STARTFONT 2.1
COMMENT "$Id: 9x18B.bdf,v 1.14 2004-11-28 19:47:42+00 mgk25 Rel $"
COMMENT "Send bug reports to Markus Kuhn <http://www.cl.cam.ac.uk/~mgk25/>"
FONT -Misc-Fixed-Bold-R-Normal--18-120-100-100-C-90-ISO10646-1
SIZE 12 100 100
FONTBOUNDINGBOX 9 18 0 -4
STARTPROPERTIES 22
FONTNAME_REGISTRY ""
FOUNDRY "Misc"
FAMILY_NAME "Fixed"
WEIGHT_NAME "Bold"
SLANT "R"
SETWIDTH_NAME "Normal"
ADD_STYLE_NAME ""
PIXEL_SIZE 18
POINT_SIZE 120
RESOLUTION_X 100
RESOLUTION_Y 100
SPACING "C"
AVERAGE_WIDTH 90
CHARSET_REGISTRY "ISO10646"
CHARSET_ENCODING "1"
DEFAULT_CHAR 0
FONT_DESCENT 4
FONT_ASCENT 14
COPYRIGHT "Public domain font.  Share and enjoy."
_XMBDFED_INFO "Edited with xmbdfed 4.5."
CAP_HEIGHT 10
X_HEIGHT 7
ENDPROPERTIES
CHARS 762
STARTCHAR char0
ENCODING 0
SWIDTH 540 0
DWIDTH 9 0
BBX 9 18 0 -4
BITMAP
0000
0000
0000
0000
6D00
0100
4000
4100
0100
4000
4100
0100
4000
5B00
0000
0000
0000
0000
ENDCHAR
STARTCHAR space
ENCODING 32
SWIDTH 540 0
DWIDTH 9 0
BBX 9 18 0 -4
BITMAP
0000
0000
0000
0000
0000
0000
0000
0000
0000
0000
0000
0000
0000
0000
0000
0000
0000
0000
ENDCHAR
STARTCHAR exclam
ENCODING 33
SWIDTH 540 0
DWIDTH 9 0
BBX 9 18 0 -4
BITMAP
0000
0000
0000
1800
1800
1800
1800
1800
1800
1800
0000
0000
1800
1800
0000
0000
0000
0000
ENDCHAR
STARTCHAR quotedbl
ENCODING 34
SWIDTH 540 0
DWIDTH 9 0
BBX 9 18 0 -4
BITMAP
0000
0000
0000
3600
3600
3600
3600
0000
0000
0000
0000
0000
0000
0000
0000
0000
0000
0000
ENDCHAR
STARTCHAR numbersign
ENCODING 35
SWIDTH 540 0
DWIDTH 9 0
BBX 9 18 0 -4
BITMAP
0000
0000
0000
0000
3600
3600
3600
7F00
3600
3600
7F00
3600
3600
3600
0000
0000
0000
0000
ENDCHAR
STARTCHAR dollar
ENCODING 36
SWIDTH 540 0
DWIDTH 9 0
BBX 9 18 0 -4
BITMAP
0000
0000
0000
0000
1800
7E00
DB00
D800
7800
3C00
1E00
1B00
DB00
7E00
1800
0000
0000
0000
ENDCHAR
STARTCHAR percent
ENCODING 37
SWIDTH 540 0
DWIDTH 9 0
BBX 9 18 0 -4
BITMAP
0000
0000
0000
0000
7300
DE00
DE00
6C00
1800
1800
3600
7B00
7B00
CE00
0000
0000
0000
0000
ENDCHAR
STARTCHAR ampersand
ENCODING 38
SWIDTH 540 0
DWIDTH 9 0
BBX 9 18 0 -4
BITMAP
0000
0000
0000
0000
7000
D800
D800
D800
7000
7300
DE00
CC00
DE00
7300
0000
0000
0000
0000
ENDCHAR
STARTCHAR quotesingle
ENCODING 39
SWIDTH 540 0
DWIDTH 9 0
BBX 9 18 0 -4
BITMAP
0000
0000
0000
1800
1800
1800
1800
0000
0000
0000
0000
0000
0000
0000
0000
0000
0000
0000
ENDCHAR
STARTCHAR parenleft
ENCODING 40
SWIDTH 540 0
DWIDTH 9 0
BBX 9 18 0 -4
BITMAP
0000
0000
0000
0C00
1800
1800
3000
3000
3000
3000
3000
3000
1800
1800
0C00
0000
0000
0000
ENDCHAR
STARTCHAR parenright
ENCODING 41
SWIDTH 540 0
DWIDTH 9 0
BBX 9 18 0 -4
BITMAP
0000
0000
0000
3000
1800
1800
0C00
0C00
0C00
0C00
0C00
0C00
1800
1800
3000
0000
0000
0000
ENDCHAR
STARTCHAR asterisk
ENCODING 42
SWIDTH 540 0
DWIDTH 9 0
BBX 9 18 0 -4
BITMAP
0000
0000
0000
0000
0000
0000
1800
DB00
7E00
3C00
7E00
DB00
1800
0000
0000
0000
0000
0000
ENDCHAR
STARTCHAR plus
ENCODING 43
SWIDTH 540 0
DWIDTH 9 0
BBX 9 18 0 -4
BITMAP
0000
0000
0000
0000
0000
0000
1800
1800
1800
FF00
1800
1800
1800
0000
0000
0000
0000
0000
ENDCHAR
STARTCHAR comma
ENCODING 44
SWIDTH 540 0
DWIDTH 9 0
BBX 9 18 0 -4
BITMAP
0000
0000
0000
0000
0000
0000
0000
0000
0000
0000
0000
0000
1C00
1C00
0C00
1800
0000
0000
ENDCHAR
STARTCHAR hyphen
ENCODING 45
SWIDTH 540 0
DWIDTH 9 0
BBX 9 18 0 -4
BITMAP
0000
0000
0000
0000
0000
0000
0000
0000
0000
7F00
0000
0000
0000
0000
0000
0000
0000
0000
ENDCHAR
STARTCHAR period
ENCODING 46
SWIDTH 540 0
DWIDTH 9 0
BBX 9 18 0 -4
BITMAP
0000
0000
0000
0000
0000
0000
0000
0000
0000
0000
0000
0000
1C00
1C00
0000
0000
0000
0000
ENDCHAR
STARTCHAR slash
ENCODING 47
SWIDTH 540 0
DWIDTH 9 0
BBX 9 18 0 -4
BITMAP
0000
0000
0000
0000
0300
0600
0600
0C00
1800
1800
3000
6000
6000
C000
0000
0000
0000
0000
ENDCHAR
STARTCHAR zero
ENCODING 48
SWIDTH 540 0
DWIDTH 9 0
BBX 9 18 0 -4
BITMAP
0000
0000
0000
0000
1C00
3600
6300
6300
6300
6300
6300
6300
3600
1C00
0000
0000
0000
0000
ENDCHAR
STARTCHAR one
ENCODING 49
SWIDTH 540 0
DWIDTH 9 0
BBX 9 18 0 -4
BITMAP
0000
0000
0000
0000
1800
3800
7800
D800
1800
1800
1800
1800
1800
FF00
0000
0000
0000
0000
ENDCHAR
STARTCHAR two
ENCODING 50
SWIDTH 540 0
DWIDTH 9 0
BBX 9 18 0 -4
BITMAP
0000
0000
0000
0000
1C00
3600
6300
0300
0300
0600
0C00
1800
3000
7F00
0000
0000
0000
0000
ENDCHAR
STARTCHAR three
ENCODING 51
SWIDTH 540 0
DWIDTH 9 0
BBX 9 18 0 -4
BITMAP
0000
0000
0000
0000
7F00
0300
0600
0C00
1C00
0600
0300
0300
6600
3C00
0000
0000
0000
0000
ENDCHAR
STARTCHAR four
ENCODING 52
SWIDTH 540 0
DWIDTH 9 0
BBX 9 18 0 -4
BITMAP
0000
0000
0000
0000
0600
0E00
1E00
3600
6600
6600
7F00
0600
0600
0600
0000
0000
0000
0000
ENDCHAR
STARTCHAR five
ENCODING 53
SWIDTH 540 0
DWIDTH 9 0
BBX 9 18 0 -4
BITMAP
0000
0000
0000
0000
7F00
6000
6000
6000
7C00
0600
0300
0300
6600
3C00
0000
0000
0000
0000
ENDCHAR
STARTCHAR six
ENCODING 54
SWIDTH 540 0
DWIDTH 9 0
BBX 9 18 0 -4
BITMAP
0000
0000
0000
0000
1E00
3000
6000
6000
7C00
6600
6300
6300
3600
1C00
0000
0000
0000
0000
ENDCHAR
STARTCHAR seven
ENCODING 55
SWIDTH 540 0
DWIDTH 9 0
BBX 9 18 0 -4
BITMAP
0000
0000
0000
0000
7F00
0300
0600
0600
0C00
0C00
1800
1800
1800
1800
0000
0000
0000
0000
ENDCHAR
STARTCHAR eight
ENCODING 56
SWIDTH 540 0
DWIDTH 9 0
BBX 9 18 0 -4
BITMAP
0000
0000
0000
0000
1C00
3600
6300
3600
1C00
3600
6300
6300
3600
1C00
0000
0000
0000
0000
ENDCHAR
STARTCHAR nine
ENCODING 57
SWIDTH 540 0
DWIDTH 9 0
BBX 9 18 0 -4
BITMAP
0000
0000
0000
0000
1C00
3600
6300
6300
3700
1F00
0300
0300
0600
3C00
0000
0000
0000
0000
ENDCHAR
STARTCHAR colon
ENCODING 58
SWIDTH 540 0
DWIDTH 9 0
BBX 9 18 0 -4
BITMAP
0000
0000
0000
0000
0000
0000
0000
1C00
1C00
0000
0000
0000
1C00
1C00
0000
0000
0000
0000
ENDCHAR
STARTCHAR semicolon
ENCODING 59
SWIDTH 540 0
DWIDTH 9 0
BBX 9 18 0 -4
BITMAP
0000
0000
0000
0000
0000
0000
0000
1C00
1C00
0000
0000
0000
1C00
1C00
0C00
1800
0000
0000
ENDCHAR
STARTCHAR less
ENCODING 60
SWIDTH 540 0
DWIDTH 9 0
BBX 9 18 0 -4
BITMAP
0000
0000
0000
0000
0000
0600
0C00
1800
3000
6000
3000
1800
0C00
0600
0000
0000
0000
0000
ENDCHAR
STARTCHAR equal
ENCODING 61
SWIDTH 540 0
DWIDTH 9 0
BBX 9 18 0 -4
BITMAP
0000
0000
0000
0000
0000
0000
0000
0000
7F00
0000
0000
7F00
0000
0000
0000
0000
0000
0000
ENDCHAR
STARTCHAR greater
ENCODING 62
SWIDTH 540 0
DWIDTH 9 0
BBX 9 18 0 -4
BITMAP
0000
0000
0000
0000
0000
6000
3000
1800
0C00
0600
0C00
1800
3000
6000
0000
0000
0000
0000
ENDCHAR
STARTCHAR question
ENCODING 63
SWIDTH 540 0
DWIDTH 9 0
BBX 9 18 0 -4
BITMAP
0000
0000
0000
0000
1C00
3600
6300
0300
0600
0C00
1800
1800
0000
1800
0000
0000
0000
0000
ENDCHAR
STARTCHAR at
ENCODING 64
SWIDTH 540 0
DWIDTH 9 0
BBX 9 18 0 -4
BITMAP
0000
0000
0000
0000
3E00
6300
CD80
D580
D580
D580
D580
CF00
6000
3E00
0000
0000
0000
0000
ENDCHAR
STARTCHAR A
ENCODING 65
SWIDTH 540 0
DWIDTH 9 0
BBX 9 18 0 -4
BITMAP
0000
0000
0000
0000
0800
1C00
1C00
1C00
3600
3E00
3600
6300
6300
6300
0000
0000
0000
0000
ENDCHAR
STARTCHAR B
ENCODING 66
SWIDTH 540 0
DWIDTH 9 0
BBX 9 18 0 -4
BITMAP
0000
0000
0000
0000
7E00
6300
6300
6300
7E00
6300
6300
6300
6300
7E00
0000
0000
0000
0000
ENDCHAR
STARTCHAR C
ENCODING 67
SWIDTH 540 0
DWIDTH 9 0
BBX 9 18 0 -4
BITMAP
0000
0000
0000
0000
1E00
3300
6000
6000
6000
6000
6000
6000
3300
1E00
0000
0000
0000
0000
ENDCHAR
STARTCHAR D
ENCODING 68
SWIDTH 540 0
DWIDTH 9 0
BBX 9 18 0 -4
BITMAP
0000
0000
0000
0000
7C00
6600
6300
6300
6300
6300
6300
6300
6600
7C00
0000
0000
0000
0000
ENDCHAR
STARTCHAR E
ENCODING 69
SWIDTH 540 0
DWIDTH 9 0
BBX 9 18 0 -4
BITMAP
0000
0000
0000
0000
7F00
6000
6000
6000
7C00
6000
6000
6000
6000
7F00
0000
0000
0000
0000
ENDCHAR
STARTCHAR F
ENCODING 70
SWIDTH 540 0
DWIDTH 9 0
BBX 9 18 0 -4
BITMAP
0000
0000
0000
0000
7F00
6000
6000
6000
7C00
6000
6000
6000
6000
6000
0000
0000
0000
0000
ENDCHAR
STARTCHAR G
ENCODING 71
SWIDTH 540 0
DWIDTH 9 0
BBX 9 18 0 -4
BITMAP
0000
0000
0000
0000
1C00
3600
6300
6000
6000
6700
6300
6300
3600
1C00
0000
0000
0000
0000
ENDCHAR
STARTCHAR H
ENCODING 72
SWIDTH 540 0
DWIDTH 9 0
BBX 9 18 0 -4
BITMAP
0000
0000
0000
0000
6300
6300
6300
6300
7F00
6300
6300
6300
6300
6300
0000
0000
0000
0000
ENDCHAR
STARTCHAR I
ENCODING 73
SWIDTH 540 0
DWIDTH 9 0
BBX 9 18 0 -4
BITMAP
0000
0000
0000
0000
7E00
1800
1800
1800
1800
1800
1800
1800
1800
7E00
0000
0000
0000
0000
ENDCHAR
STARTCHAR J
ENCODING 74
SWIDTH 540 0
DWIDTH 9 0
BBX 9 18 0 -4
BITMAP
0000
0000
0000
0000
0F00
0600
0600
0600
0600
0600
0600
6600
6600
3C00
0000
0000
0000
0000
ENDCHAR
STARTCHAR K
ENCODING 75
SWIDTH 540 0
DWIDTH 9 0
BBX 9 18 0 -4
BITMAP
0000
0000
0000
0000
6300
6600
6C00
7800
7000
7800
6C00
6600
6300
6300
0000
0000
0000
0000
ENDCHAR
STARTCHAR L
ENCODING 76
SWIDTH 540 0
DWIDTH 9 0
BBX 9 18 0 -4
BITMAP
0000
0000
0000
0000
6000
6000
6000
6000
6000
6000
6000
6000
6000
7F00
0000
0000
0000
0000
ENDCHAR
STARTCHAR M
ENCODING 77
SWIDTH 540 0
DWIDTH 9 0
BBX 9 18 0 -4
BITMAP
0000
0000
0000
0000
6300
7700
7F00
6B00
6300
6300
6300
6300
6300
6300
0000
0000
0000
0000
ENDCHAR
STARTCHAR N
ENCODING 78
SWIDTH 540 0
DWIDTH 9 0
BBX 9 18 0 -4
BITMAP
0000
0000
0000
0000
6300
6300
7300
7B00
6F00
6700
6300
6300
6300
6300
0000
0000
0000
0000
ENDCHAR
STARTCHAR O
ENCODING 79
SWIDTH 540 0
DWIDTH 9 0
BBX 9 18 0 -4
BITMAP
0000
0000
0000
0000
3E00
6300
6300
6300
6300
6300
6300
6300
6300
3E00
0000
0000
0000
0000
ENDCHAR
STARTCHAR P
ENCODING 80
SWIDTH 540 0
DWIDTH 9 0
BBX 9 18 0 -4
BITMAP
0000
0000
0000
0000
7C00
6600
6300
6300
6600
7C00
6000
6000
6000
6000
0000
0000
0000
0000
ENDCHAR
STARTCHAR Q
ENCODING 81
SWIDTH 540 0
DWIDTH 9 0
BBX 9 18 0 -4
BITMAP
0000
0000
0000
0000
1C00
3600
6300
6300
6300
6300
6300
6F00
3600
1F00
0180
0000
0000
0000
ENDCHAR
STARTCHAR R
ENCODING 82
SWIDTH 540 0
DWIDTH 9 0
BBX 9 18 0 -4
BITMAP
0000
0000
0000
0000
7E00
6300
6300
6300
6300
7E00
6C00
6600
6300
6300
0000
0000
0000
0000
ENDCHAR
STARTCHAR S
ENCODING 83
SWIDTH 540 0
DWIDTH 9 0
BBX 9 18 0 -4
BITMAP
0000
0000
0000
0000
3E00
6300
6000
6000
3E00
0300
0300
0300
6300
3E00
0000
0000
0000
0000
ENDCHAR
STARTCHAR T
ENCODING 84
SWIDTH 540 0
DWIDTH 9 0
BBX 9 18 0 -4
BITMAP
0000
0000
0000
0000
7E00
1800
1800
1800
1800
1800
1800
1800
1800
1800
0000
0000
0000
0000
ENDCHAR
STARTCHAR U
ENCODING 85
SWIDTH 540 0
DWIDTH 9 0
BBX 9 18 0 -4
BITMAP
0000
0000
0000
0000
6300
6300
6300
6300
6300
6300
6300
6300
3600
1C00
0000
0000
0000
0000
ENDCHAR
STARTCHAR V
ENCODING 86
SWIDTH 540 0
DWIDTH 9 0
BBX 9 18 0 -4
BITMAP
0000
0000
0000
0000
6300
6300
6300
3600
3600
3600
1C00
1C00
1C00
0800
0000
0000
0000
0000
ENDCHAR
STARTCHAR W
ENCODING 87
SWIDTH 540 0
DWIDTH 9 0
BBX 9 18 0 -4
BITMAP
0000
0000
0000
0000
6300
6300
6300
6300
6B00
6B00
6B00
7F00
7700
2200
0000
0000
0000
0000
ENDCHAR
STARTCHAR X
ENCODING 88
SWIDTH 540 0
DWIDTH 9 0
BBX 9 18 0 -4
BITMAP
0000
0000
0000
0000
6300
6300
3600
1C00
0800
0800
1C00
3600
6300
6300
0000
0000
0000
0000
ENDCHAR
STARTCHAR Y
ENCODING 89
SWIDTH 540 0
DWIDTH 9 0
BBX 9 18 0 -4
BITMAP
0000
0000
0000
0000
C300
C300
6600
3C00
1800
1800
1800
1800
1800
1800
0000
0000
0000
0000
ENDCHAR
STARTCHAR Z
ENCODING 90
SWIDTH 540 0
DWIDTH 9 0
BBX 9 18 0 -4
BITMAP
0000
0000
0000
0000
7F00
0300
0300
0600
0C00
1800
3000
6000
6000
7F00
0000
0000
0000
0000
ENDCHAR
STARTCHAR bracketleft
ENCODING 91
SWIDTH 540 0
DWIDTH 9 0
BBX 9 18 0 -4
BITMAP
0000
0000
0000
3E00
3000
3000
3000
3000
3000
3000
3000
3000
3000
3000
3E00
0000
0000
0000
ENDCHAR
STARTCHAR backslash
ENCODING 92
SWIDTH 540 0
DWIDTH 9 0
BBX 9 18 0 -4
BITMAP
0000
0000
0000
0000
C000
6000
6000
3000
1800
1800
0C00
0600
0600
0300
0000
0000
0000
0000
ENDCHAR
STARTCHAR bracketright
ENCODING 93
SWIDTH 540 0
DWIDTH 9 0
BBX 9 18 0 -4
BITMAP
0000
0000
0000
3C00
0C00
0C00
0C00
0C00
0C00
0C00
0C00
0C00
0C00
0C00
3C00
0000
0000
0000
ENDCHAR
STARTCHAR asciicircum
ENCODING 94
SWIDTH 540 0
DWIDTH 9 0
BBX 9 18 0 -4
BITMAP
0000
0000
0000
0000
1800
3C00
6600
C300
0000
0000
0000
0000
0000
0000
0000
0000
0000
0000
ENDCHAR
STARTCHAR underscore
ENCODING 95
SWIDTH 540 0
DWIDTH 9 0
BBX 9 18 0 -4
BITMAP
0000
0000
0000
0000
0000
0000
0000
0000
0000
0000
0000
0000
0000
0000
FF00
0000
0000
0000
ENDCHAR
STARTCHAR grave
ENCODING 96
SWIDTH 540 0
DWIDTH 9 0
BBX 9 18 0 -4
BITMAP
0000
3000
1800
0C00
0000
0000
0000
0000
0000
0000
0000
0000
0000
0000
0000
0000
0000
0000
ENDCHAR
STARTCHAR a
ENCODING 97
SWIDTH 540 0
DWIDTH 9 0
BBX 9 18 0 -4
BITMAP
0000
0000
0000
0000
0000
0000
0000
3E00
0300
0300
3F00
6300
6300
3F00
0000
0000
0000
0000
ENDCHAR
STARTCHAR b
ENCODING 98
SWIDTH 540 0
DWIDTH 9 0
BBX 9 18 0 -4
BITMAP
0000
0000
0000
0000
6000
6000
6000
7E00
6300
6300
6300
6300
6300
7E00
0000
0000
0000
0000
ENDCHAR
STARTCHAR c
ENCODING 99
SWIDTH 540 0
DWIDTH 9 0
BBX 9 18 0 -4
BITMAP
0000
0000
0000
0000
0000
0000
0000
3E00
6300
6000
6000
6000
6300
3E00
0000
0000
0000
0000
ENDCHAR
STARTCHAR d
ENCODING 100
SWIDTH 540 0
DWIDTH 9 0
BBX 9 18 0 -4
BITMAP
0000
0000
0000
0000
0300
0300
0300
3F00
6300
6300
6300
6300
6300
3F00
0000
0000
0000
0000
ENDCHAR
STARTCHAR e
ENCODING 101
SWIDTH 540 0
DWIDTH 9 0
BBX 9 18 0 -4
BITMAP
0000
0000
0000
0000
0000
0000
0000
3E00
6300
6300
7F00
6000
6300
3E00
0000
0000
0000
0000
ENDCHAR
STARTCHAR f
ENCODING 102
SWIDTH 540 0
DWIDTH 9 0
BBX 9 18 0 -4
BITMAP
0000
0000
0000
0000
1C00
3600
3600
3000
3000
7800
3000
3000
3000
3000
0000
0000
0000
0000
ENDCHAR
STARTCHAR g
ENCODING 103
SWIDTH 540 0
DWIDTH 9 0
BBX 9 18 0 -4
BITMAP
0000
0000
0000
0000
0000
0000
0000
3F00
6600
6600
6600
3C00
6000
3E00
6300
6300
3E00
0000
ENDCHAR
STARTCHAR h
ENCODING 104
SWIDTH 540 0
DWIDTH 9 0
BBX 9 18 0 -4
BITMAP
0000
0000
0000
0000
6000
6000
6000
7E00
6300
6300
6300
6300
6300
6300
0000
0000
0000
0000
ENDCHAR
STARTCHAR i
ENCODING 105
SWIDTH 540 0
DWIDTH 9 0
BBX 9 18 0 -4
BITMAP
0000
0000
0000
0000
1800
1800
0000
7800
1800
1800
1800
1800
1800
7E00
0000
0000
0000
0000
ENDCHAR
STARTCHAR j
ENCODING 106
SWIDTH 540 0
DWIDTH 9 0
BBX 9 18 0 -4
BITMAP
0000
0000
0000
0000
0600
0600
0000
0E00
0600
0600
0600
0600
0600
0600
3600
3600
1C00
0000
ENDCHAR
STARTCHAR k
ENCODING 107
SWIDTH 540 0
DWIDTH 9 0
BBX 9 18 0 -4
BITMAP
0000
0000
0000
0000
6000
6000
6000
6600
6C00
7800
7800
6C00
6600
6300
0000
0000
0000
0000
ENDCHAR
STARTCHAR l
ENCODING 108
SWIDTH 540 0
DWIDTH 9 0
BBX 9 18 0 -4
BITMAP
0000
0000
0000
0000
7800
1800
1800
1800
1800
1800
1800
1800
1800
7E00
0000
0000
0000
0000
ENDCHAR
STARTCHAR m
ENCODING 109
SWIDTH 540 0
DWIDTH 9 0
BBX 9 18 0 -4
BITMAP
0000
0000
0000
0000
0000
0000
0000
FE00
DB00
DB00
DB00
DB00
DB00
C300
0000
0000
0000
0000
ENDCHAR
STARTCHAR n
ENCODING 110
SWIDTH 540 0
DWIDTH 9 0
BBX 9 18 0 -4
BITMAP
0000
0000
0000
0000
0000
0000
0000
6E00
7300
6300
6300
6300
6300
6300
0000
0000
0000
0000
ENDCHAR
STARTCHAR o
ENCODING 111
SWIDTH 540 0
DWIDTH 9 0
BBX 9 18 0 -4
BITMAP
0000
0000
0000
0000
0000
0000
0000
1C00
3600
6300
6300
6300
3600
1C00
0000
0000
0000
0000
ENDCHAR
STARTCHAR p
ENCODING 112
SWIDTH 540 0
DWIDTH 9 0
BBX 9 18 0 -4
BITMAP
0000
0000
0000
0000
0000
0000
0000
7C00
6600
6300
6300
6300
6600
7C00
6000
6000
6000
0000
ENDCHAR
STARTCHAR q
ENCODING 113
SWIDTH 540 0
DWIDTH 9 0
BBX 9 18 0 -4
BITMAP
0000
0000
0000
0000
0000
0000
0000
1F00
3300
6300
6300
6300
3300
1F00
0300
0300
0300
0000
ENDCHAR
STARTCHAR r
ENCODING 114
SWIDTH 540 0
DWIDTH 9 0
BBX 9 18 0 -4
BITMAP
0000
0000
0000
0000
0000
0000
0000
6E00
3B00
3000
3000
3000
3000
3000
0000
0000
0000
0000
ENDCHAR
STARTCHAR s
ENCODING 115
SWIDTH 540 0
DWIDTH 9 0
BBX 9 18 0 -4
BITMAP
0000
0000
0000
0000
0000
0000
0000
3E00
6300
6000
3E00
0300
6300
3E00
0000
0000
0000
0000
ENDCHAR
STARTCHAR t
ENCODING 116
SWIDTH 540 0
DWIDTH 9 0
BBX 9 18 0 -4
BITMAP
0000
0000
0000
0000
0000
1800
1800
7E00
1800
1800
1800
1800
1B00
0E00
0000
0000
0000
0000
ENDCHAR
STARTCHAR u
ENCODING 117
SWIDTH 540 0
DWIDTH 9 0
BBX 9 18 0 -4
BITMAP
0000
0000
0000
0000
0000
0000
0000
6300
6300
6300
6300
6300
6300
3F00
0000
0000
0000
0000
ENDCHAR
STARTCHAR v
ENCODING 118
SWIDTH 540 0
DWIDTH 9 0
BBX 9 18 0 -4
BITMAP
0000
0000
0000
0000
0000
0000
0000
6300
6300
3600
3600
1C00
1C00
0800
0000
0000
0000
0000
ENDCHAR
STARTCHAR w
ENCODING 119
SWIDTH 540 0
DWIDTH 9 0
BBX 9 18 0 -4
BITMAP
0000
0000
0000
0000
0000
0000
0000
C300
C300
DB00
DB00
DB00
FF00
6600
0000
0000
0000
0000
ENDCHAR
STARTCHAR x
ENCODING 120
SWIDTH 540 0
DWIDTH 9 0
BBX 9 18 0 -4
BITMAP
0000
0000
0000
0000
0000
0000
0000
6300
3600
1C00
0800
1C00
3600
6300
0000
0000
0000
0000
ENDCHAR
STARTCHAR y
ENCODING 121
SWIDTH 540 0
DWIDTH 9 0
BBX 9 18 0 -4
BITMAP
0000
0000
0000
0000
0000
0000
0000
6300
6300
3600
3600
3600
1C00
1C00
1800
5800
3000
0000
ENDCHAR
STARTCHAR z
ENCODING 122
SWIDTH 540 0
DWIDTH 9 0
BBX 9 18 0 -4
BITMAP
0000
0000
0000
0000
0000
0000
0000
7E00
0600
0C00
1800
3000
6000
7E00
0000
0000
0000
0000
ENDCHAR
STARTCHAR braceleft
ENCODING 123
SWIDTH 540 0
DWIDTH 9 0
BBX 9 18 0 -4
BITMAP
0000
0000
0000
1E00
3000
3000
3000
3000
6000
3000
3000
3000
3000
1E00
0000
0000
0000
0000
ENDCHAR
STARTCHAR bar
ENCODING 124
SWIDTH 540 0
DWIDTH 9 0
BBX 9 18 0 -4
BITMAP
0000
0000
0000
1800
1800
1800
1800
1800
1800
1800
1800
1800
1800
1800
1800
0000
0000
0000
ENDCHAR
STARTCHAR braceright
ENCODING 125
SWIDTH 540 0
DWIDTH 9 0
BBX 9 18 0 -4
BITMAP
0000
0000
0000
7000
1800
1800
1800
1800
0E00
1800
1800
1800
1800
7000
0000
0000
0000
0000
ENDCHAR
STARTCHAR asciitilde
ENCODING 126
SWIDTH 540 0
DWIDTH 9 0
BBX 9 18 0 -4
BITMAP
0000
0000
0000
0000
7300
DB00
CE00
0000
0000
0000
0000
0000
0000
0000
0000
0000
0000
0000
ENDCHAR
STARTCHAR space
ENCODING 160
SWIDTH 540 0
DWIDTH 9 0
BBX 9 18 0 -4
BITMAP
0000
0000
0000
0000
0000
0000
0000
0000
0000
0000
0000
0000
0000
0000
0000
0000
0000
0000
ENDCHAR
STARTCHAR exclamdown
ENCODING 161
SWIDTH 540 0
DWIDTH 9 0
BBX 9 18 0 -4
BITMAP
0000
0000
0000
0000
0C00
0000
0C00
0C00
0C00
0C00
0C00
0C00
0C00
0C00
0000
0000
0000
0000
ENDCHAR
STARTCHAR cent
ENCODING 162
SWIDTH 540 0
DWIDTH 9 0
BBX 9 18 0 -4
BITMAP
0000
0000
0000
0000
0000
0000
0200
3E00
6700
6800
6800
7300
3E00
2000
0000
0000
0000
0000
ENDCHAR
STARTCHAR sterling
ENCODING 163
SWIDTH 540 0
DWIDTH 9 0
BBX 9 18 0 -4
BITMAP
0000
0000
0000
0000
0000
1E00
3300
3000
3000
7C00
3000
3000
F800
BF00
E000
0000
0000
0000
ENDCHAR
STARTCHAR currency
ENCODING 164
SWIDTH 540 0
DWIDTH 9 0
BBX 9 18 0 -4
BITMAP
0000
0000
0000
0000
0000
6300
7F00
3600
2200
3600
7F00
6300
0000
0000
0000
0000
0000
0000
ENDCHAR
STARTCHAR yen
ENCODING 165
SWIDTH 540 0
DWIDTH 9 0
BBX 9 18 0 -4
BITMAP
0000
0000
0000
0000
C300
C300
6600
3C00
7E00
1800
7E00
1800
1800
1800
0000
0000
0000
0000
ENDCHAR
STARTCHAR brokenbar
ENCODING 166
SWIDTH 540 0
DWIDTH 9 0
BBX 9 18 0 -4
BITMAP
0000
0000
0000
0000
1800
1800
1800
1800
1800
0000
1800
1800
1800
1800
1800
0000
0000
0000
ENDCHAR
STARTCHAR section
ENCODING 167
SWIDTH 540 0
DWIDTH 9 0
BBX 9 18 0 -4
BITMAP
0000
0000
0000
0000
3C00
6600
6000
3C00
6600
6600
6600
3C00
0600
6600
3C00
0000
0000
0000
ENDCHAR
STARTCHAR dieresis
ENCODING 168
SWIDTH 540 0
DWIDTH 9 0
BBX 9 18 0 -4
BITMAP
0000
3600
3600
0000
0000
0000
0000
0000
0000
0000
0000
0000
0000
0000
0000
0000
0000
0000
ENDCHAR
STARTCHAR copyright
ENCODING 169
SWIDTH 540 0
DWIDTH 9 0
BBX 9 18 0 -4
BITMAP
0000
0000
0000
3C00
7E00
C300
BD00
A500
A100
A500
BD00
C300
7E00
3C00
0000
0000
0000
0000
ENDCHAR
STARTCHAR ordfeminine
ENCODING 170
SWIDTH 540 0
DWIDTH 9 0
BBX 9 18 0 -4
BITMAP
0000
0000
0000
0000
3800
0C00
3C00
6C00
3C00
0000
7C00
0000
0000
0000
0000
0000
0000
0000
ENDCHAR
STARTCHAR guillemotleft
ENCODING 171
SWIDTH 540 0
DWIDTH 9 0
BBX 9 18 0 -4
BITMAP
0000
0000
0000
0000
0000
1B00
3600
6C00
D800
D800
6C00
3600
1B00
0000
0000
0000
0000
0000
ENDCHAR
STARTCHAR logicalnot
ENCODING 172
SWIDTH 540 0
DWIDTH 9 0
BBX 9 18 0 -4
BITMAP
0000
0000
0000
0000
0000
0000
0000
7F00
7F00
0300
0300
0300
0000
0000
0000
0000
0000
0000
ENDCHAR
STARTCHAR hyphen
ENCODING 173
SWIDTH 540 0
DWIDTH 9 0
BBX 9 18 0 -4
BITMAP
0000
0000
0000
0000
0000
0000
0000
0000
0000
7E00
0000
0000
0000
0000
0000
0000
0000
0000
ENDCHAR
STARTCHAR registered
ENCODING 174
SWIDTH 540 0
DWIDTH 9 0
BBX 9 18 0 -4
BITMAP
0000
0000
0000
3C00
7E00
C300
BD00
A500
BD00
A900
AD00
C300
7E00
3C00
0000
0000
0000
0000
ENDCHAR
STARTCHAR macron
ENCODING 175
SWIDTH 540 0
DWIDTH 9 0
BBX 9 18 0 -4
BITMAP
0000
0000
0000
7E00
7E00
0000
0000
0000
0000
0000
0000
0000
0000
0000
0000
0000
0000
0000
ENDCHAR
STARTCHAR degree
ENCODING 176
SWIDTH 540 0
DWIDTH 9 0
BBX 9 18 0 -4
BITMAP
0000
0000
3800
6C00
6C00
3800
0000
0000
0000
0000
0000
0000
0000
0000
0000
0000
0000
0000
ENDCHAR
STARTCHAR plusminus
ENCODING 177
SWIDTH 540 0
DWIDTH 9 0
BBX 9 18 0 -4
BITMAP
0000
0000
0000
0000
1800
1800
1800
7E00
1800
1800
1800
0000
7E00
0000
0000
0000
0000
0000
ENDCHAR
STARTCHAR twosuperior
ENCODING 178
SWIDTH 540 0
DWIDTH 9 0
BBX 9 18 0 -4
BITMAP
0000
0000
0000
0000
3800
6C00
0C00
1800
3000
7C00
0000
0000
0000
0000
0000
0000
0000
0000
ENDCHAR
STARTCHAR threesuperior
ENCODING 179
SWIDTH 540 0
DWIDTH 9 0
BBX 9 18 0 -4
BITMAP
0000
0000
0000
0000
3800
6C00
1800
0C00
6C00
3800
0000
0000
0000
0000
0000
0000
0000
0000
ENDCHAR
STARTCHAR acute
ENCODING 180
SWIDTH 540 0
DWIDTH 9 0
BBX 9 18 0 -4
BITMAP
0000
0C00
1800
3000
0000
0000
0000
0000
0000
0000
0000
0000
0000
0000
0000
0000
0000
0000
ENDCHAR
STARTCHAR mu
ENCODING 181
SWIDTH 540 0
DWIDTH 9 0
BBX 9 18 0 -4
BITMAP
0000
0000
0000
0000
0000
0000
0000
6300
6300
6300
6300
6700
6F00
7B00
6000
6000
0000
0000
ENDCHAR
STARTCHAR paragraph
ENCODING 182
SWIDTH 540 0
DWIDTH 9 0
BBX 9 18 0 -4
BITMAP
0000
0000
0000
0000
3F00
7B00
7B00
7B00
3B00
1B00
1B00
1B00
1B00
1B00
0000
0000
0000
0000
ENDCHAR
STARTCHAR periodcentered
ENCODING 183
SWIDTH 540 0
DWIDTH 9 0
BBX 9 18 0 -4
BITMAP
0000
0000
0000
0000
0000
0000
0000
0000
1C00
1C00
0000
0000
0000
0000
0000
0000
0000
0000
ENDCHAR
STARTCHAR cedilla
ENCODING 184
SWIDTH 540 0
DWIDTH 9 0
BBX 9 18 0 -4
BITMAP
0000
0000
0000
0000
0000
0000
0000
0000
0000
0000
0000
0000
0000
0000
0C00
6600
3C00
0000
ENDCHAR
STARTCHAR onesuperior
ENCODING 185
SWIDTH 540 0
DWIDTH 9 0
BBX 9 18 0 -4
BITMAP
0000
0000
0000
0000
3000
7000
3000
3000
3000
7800
0000
0000
0000
0000
0000
0000
0000
0000
ENDCHAR
STARTCHAR ordmasculine
ENCODING 186
SWIDTH 540 0
DWIDTH 9 0
BBX 9 18 0 -4
BITMAP
0000
0000
0000
0000
3800
6C00
6C00
6C00
3800
0000
7C00
0000
0000
0000
0000
0000
0000
0000
ENDCHAR
STARTCHAR guillemotright
ENCODING 187
SWIDTH 540 0
DWIDTH 9 0
BBX 9 18 0 -4
BITMAP
0000
0000
0000
0000
0000
D800
6C00
3600
1B00
1B00
3600
6C00
D800
0000
0000
0000
0000
0000
ENDCHAR
STARTCHAR onequarter
ENCODING 188
SWIDTH 540 0
DWIDTH 9 0
BBX 9 18 0 -4
BITMAP
0000
0000
0000
6000
E000
6000
6000
6100
6300
F700
0F00
1B00
1F00
0300
0000
0000
0000
0000
ENDCHAR
STARTCHAR onehalf
ENCODING 189
SWIDTH 540 0
DWIDTH 9 0
BBX 9 18 0 -4
BITMAP
0000
0000
0000
6000
E000
6000
6000
6E00
7300
F300
0600
0C00
1800
1F00
0000
0000
0000
0000
ENDCHAR
STARTCHAR threequarters
ENCODING 190
SWIDTH 540 0
DWIDTH 9 0
BBX 9 18 0 -4
BITMAP
0000
0000
0000
7000
9800
1800
3000
1900
9B00
7700
0F00
1B00
1F00
0300
0000
0000
0000
0000
ENDCHAR
STARTCHAR questiondown
ENCODING 191
SWIDTH 540 0
DWIDTH 9 0
BBX 9 18 0 -4
BITMAP
0000
0000
0000
0000
0C00
0C00
0000
0C00
1800
3000
6000
6300
6300
3E00
0000
0000
0000
0000
ENDCHAR
STARTCHAR Agrave
ENCODING 192
SWIDTH 540 0
DWIDTH 9 0
BBX 9 18 0 -4
BITMAP
3000
1800
0C00
0000
0800
1C00
1C00
1C00
3600
3E00
3600
6300
6300
6300
0000
0000
0000
0000
ENDCHAR
STARTCHAR Aacute
ENCODING 193
SWIDTH 540 0
DWIDTH 9 0
BBX 9 18 0 -4
BITMAP
0600
0C00
1800
0000
0800
1C00
1C00
1C00
3600
3E00
3600
6300
6300
6300
0000
0000
0000
0000
ENDCHAR
STARTCHAR Acircumflex
ENCODING 194
SWIDTH 540 0
DWIDTH 9 0
BBX 9 18 0 -4
BITMAP
0800
1C00
3600
0000
0800
1C00
1C00
1C00
3600
3E00
3600
6300
6300
6300
0000
0000
0000
0000
ENDCHAR
STARTCHAR Atilde
ENCODING 195
SWIDTH 540 0
DWIDTH 9 0
BBX 9 18 0 -4
BITMAP
0000
3B00
6E00
0000
0800
1C00
1C00
1C00
3600
3E00
3600
6300
6300
6300
0000
0000
0000
0000
ENDCHAR
STARTCHAR Adieresis
ENCODING 196
SWIDTH 540 0
DWIDTH 9 0
BBX 9 18 0 -4
BITMAP
0000
3600
3600
0000
0800
1C00
1C00
1C00
3600
3E00
3600
6300
6300
6300
0000
0000
0000
0000
ENDCHAR
STARTCHAR Aring
ENCODING 197
SWIDTH 540 0
DWIDTH 9 0
BBX 9 18 0 -4
BITMAP
1C00
3600
3600
1C00
0800
1C00
1C00
1C00
3600
3E00
3600
6300
6300
6300
0000
0000
0000
0000
ENDCHAR
STARTCHAR AE
ENCODING 198
SWIDTH 540 0
DWIDTH 9 0
BBX 9 18 0 -4
BITMAP
0000
0000
0000
0000
1F00
1E00
3600
3600
3700
7E00
6600
6600
6600
6700
0000
0000
0000
0000
ENDCHAR
STARTCHAR Ccedilla
ENCODING 199
SWIDTH 540 0
DWIDTH 9 0
BBX 9 18 0 -4
BITMAP
0000
0000
0000
0000
1E00
3300
6000
6000
6000
6000
6000
6000
3300
1E00
0C00
0600
3600
1C00
ENDCHAR
STARTCHAR Egrave
ENCODING 200
SWIDTH 540 0
DWIDTH 9 0
BBX 9 18 0 -4
BITMAP
3000
1800
0C00
0000
7F00
6000
6000
6000
7C00
6000
6000
6000
6000
7F00
0000
0000
0000
0000
ENDCHAR
STARTCHAR Eacute
ENCODING 201
SWIDTH 540 0
DWIDTH 9 0
BBX 9 18 0 -4
BITMAP
0600
0C00
1800
0000
7F00
6000
6000
6000
7C00
6000
6000
6000
6000
7F00
0000
0000
0000
0000
ENDCHAR
STARTCHAR Ecircumflex
ENCODING 202
SWIDTH 540 0
DWIDTH 9 0
BBX 9 18 0 -4
BITMAP
0800
1C00
3600
0000
7F00
6000
6000
6000
7C00
6000
6000
6000
6000
7F00
0000
0000
0000
0000
ENDCHAR
STARTCHAR Edieresis
ENCODING 203
SWIDTH 540 0
DWIDTH 9 0
BBX 9 18 0 -4
BITMAP
0000
3600
3600
0000
7F00
6000
6000
6000
7C00
6000
6000
6000
6000
7F00
0000
0000
0000
0000
ENDCHAR
STARTCHAR Igrave
ENCODING 204
SWIDTH 540 0
DWIDTH 9 0
BBX 9 18 0 -4
BITMAP
3000
1800
0C00
0000
7E00
1800
1800
1800
1800
1800
1800
1800
1800
7E00
0000
0000
0000
0000
ENDCHAR
STARTCHAR Iacute
ENCODING 205
SWIDTH 540 0
DWIDTH 9 0
BBX 9 18 0 -4
BITMAP
0600
0C00
1800
0000
7E00
1800
1800
1800
1800
1800
1800
1800
1800
7E00
0000
0000
0000
0000
ENDCHAR
STARTCHAR Icircumflex
ENCODING 206
SWIDTH 540 0
DWIDTH 9 0
BBX 9 18 0 -4
BITMAP
0800
1C00
3600
0000
7E00
1800
1800
1800
1800
1800
1800
1800
1800
7E00
0000
0000
0000
0000
ENDCHAR
STARTCHAR Idieresis
ENCODING 207
SWIDTH 540 0
DWIDTH 9 0
BBX 9 18 0 -4
BITMAP
0000
3600
3600
0000
7E00
1800
1800
1800
1800
1800
1800
1800
1800
7E00
0000
0000
0000
0000
ENDCHAR
STARTCHAR Eth
ENCODING 208
SWIDTH 540 0
DWIDTH 9 0
BBX 9 18 0 -4
BITMAP
0000
0000
0000
0000
7C00
6600
6300
6300
F300
6300
6300
6300
6600
7C00
0000
0000
0000
0000
ENDCHAR
STARTCHAR Ntilde
ENCODING 209
SWIDTH 540 0
DWIDTH 9 0
BBX 9 18 0 -4
BITMAP
0000
3B00
6E00
0000
6300
6300
7300
7B00
6F00
6700
6300
6300
6300
6300
0000
0000
0000
0000
ENDCHAR
STARTCHAR Ograve
ENCODING 210
SWIDTH 540 0
DWIDTH 9 0
BBX 9 18 0 -4
BITMAP
3000
1800
0C00
0000
3E00
6300
6300
6300
6300
6300
6300
6300
6300
3E00
0000
0000
0000
0000
ENDCHAR
STARTCHAR Oacute
ENCODING 211
SWIDTH 540 0
DWIDTH 9 0
BBX 9 18 0 -4
BITMAP
0600
0C00
1800
0000
3E00
6300
6300
6300
6300
6300
6300
6300
6300
3E00
0000
0000
0000
0000
ENDCHAR
STARTCHAR Ocircumflex
ENCODING 212
SWIDTH 540 0
DWIDTH 9 0
BBX 9 18 0 -4
BITMAP
0800
1C00
3600
0000
3E00
6300
6300
6300
6300
6300
6300
6300
6300
3E00
0000
0000
0000
0000
ENDCHAR
STARTCHAR Otilde
ENCODING 213
SWIDTH 540 0
DWIDTH 9 0
BBX 9 18 0 -4
BITMAP
0000
3B00
6E00
0000
3E00
6300
6300
6300
6300
6300
6300
6300
6300
3E00
0000
0000
0000
0000
ENDCHAR
STARTCHAR Odieresis
ENCODING 214
SWIDTH 540 0
DWIDTH 9 0
BBX 9 18 0 -4
BITMAP
0000
3600
3600
0000
3E00
6300
6300
6300
6300
6300
6300
6300
6300
3E00
0000
0000
0000
0000
ENDCHAR
STARTCHAR multiply
ENCODING 215
SWIDTH 540 0
DWIDTH 9 0
BBX 9 18 0 -4
BITMAP
0000
0000
0000
0000
0000
0000
C300
6600
3C00
1800
3C00
6600
C300
0000
0000
0000
0000
0000
ENDCHAR
STARTCHAR Oslash
ENCODING 216
SWIDTH 540 0
DWIDTH 9 0
BBX 9 18 0 -4
BITMAP
0000
0000
0000
0300
3F00
6700
6700
6F00
6F00
7B00
7B00
7300
7300
7E00
6000
0000
0000
0000
ENDCHAR
STARTCHAR Ugrave
ENCODING 217
SWIDTH 540 0
DWIDTH 9 0
BBX 9 18 0 -4
BITMAP
3000
1800
0C00
0000
6300
6300
6300
6300
6300
6300
6300
6300
3600
1C00
0000
0000
0000
0000
ENDCHAR
STARTCHAR Uacute
ENCODING 218
SWIDTH 540 0
DWIDTH 9 0
BBX 9 18 0 -4
BITMAP
0600
0C00
1800
0000
6300
6300
6300
6300
6300
6300
6300
6300
3600
1C00
0000
0000
0000
0000
ENDCHAR
STARTCHAR Ucircumflex
ENCODING 219
SWIDTH 540 0
DWIDTH 9 0
BBX 9 18 0 -4
BITMAP
0800
1C00
3600
0000
6300
6300
6300
6300
6300
6300
6300
6300
3600
1C00
0000
0000
0000
0000
ENDCHAR
STARTCHAR Udieresis
ENCODING 220
SWIDTH 540 0
DWIDTH 9 0
BBX 9 18 0 -4
BITMAP
0000
3600
3600
0000
6300
6300
6300
6300
6300
6300
6300
6300
3600
1C00
0000
0000
0000
0000
ENDCHAR
STARTCHAR Yacute
ENCODING 221
SWIDTH 540 0
DWIDTH 9 0
BBX 9 18 0 -4
BITMAP
0C00
1800
3000
0000
C300
C300
6600
3C00
1800
1800
1800
1800
1800
1800
0000
0000
0000
0000
ENDCHAR
STARTCHAR Thorn
ENCODING 222
SWIDTH 540 0
DWIDTH 9 0
BBX 9 18 0 -4
BITMAP
0000
0000
0000
0000
6000
6000
7E00
6300
6300
6300
7E00
6000
6000
6000
0000
0000
0000
0000
ENDCHAR
STARTCHAR germandbls
ENCODING 223
SWIDTH 540 0
DWIDTH 9 0
BBX 9 18 0 -4
BITMAP
0000
0000
0000
0000
1E00
3300
3300
3300
7600
3300
3300
3300
3300
3600
0000
0000
0000
0000
ENDCHAR
STARTCHAR agrave
ENCODING 224
SWIDTH 540 0
DWIDTH 9 0
BBX 9 18 0 -4
BITMAP
0000
0000
0000
3000
1800
0C00
0000
3E00
0300
0300
3F00
6300
6300
3F00
0000
0000
0000
0000
ENDCHAR
STARTCHAR aacute
ENCODING 225
SWIDTH 540 0
DWIDTH 9 0
BBX 9 18 0 -4
BITMAP
0000
0000
0000
0600
0C00
1800
0000
3E00
0300
0300
3F00
6300
6300
3F00
0000
0000
0000
0000
ENDCHAR
STARTCHAR acircumflex
ENCODING 226
SWIDTH 540 0
DWIDTH 9 0
BBX 9 18 0 -4
BITMAP
0000
0000
0000
0800
1C00
3600
0000
3E00
0300
0300
3F00
6300
6300
3F00
0000
0000
0000
0000
ENDCHAR
STARTCHAR atilde
ENCODING 227
SWIDTH 540 0
DWIDTH 9 0
BBX 9 18 0 -4
BITMAP
0000
0000
0000
0000
3B00
6E00
0000
3E00
0300
0300
3F00
6300
6300
3F00
0000
0000
0000
0000
ENDCHAR
STARTCHAR adieresis
ENCODING 228
SWIDTH 540 0
DWIDTH 9 0
BBX 9 18 0 -4
BITMAP
0000
0000
0000
0000
3600
3600
0000
3E00
0300
0300
3F00
6300
6300
3F00
0000
0000
0000
0000
ENDCHAR
STARTCHAR aring
ENCODING 229
SWIDTH 540 0
DWIDTH 9 0
BBX 9 18 0 -4
BITMAP
0000
0000
0000
1C00
3600
1C00
0000
3E00
0300
0300
3F00
6300
6300
3F00
0000
0000
0000
0000
ENDCHAR
STARTCHAR ae
ENCODING 230
SWIDTH 540 0
DWIDTH 9 0
BBX 9 18 0 -4
BITMAP
0000
0000
0000
0000
0000
0000
0000
7600
1B00
1B00
7F00
D800
DB00
7600
0000
0000
0000
0000
ENDCHAR
STARTCHAR ccedilla
ENCODING 231
SWIDTH 540 0
DWIDTH 9 0
BBX 9 18 0 -4
BITMAP
0000
0000
0000
0000
0000
0000
0000
3E00
6300
6000
6000
6000
6300
3E00
0C00
0600
3600
1C00
ENDCHAR
STARTCHAR egrave
ENCODING 232
SWIDTH 540 0
DWIDTH 9 0
BBX 9 18 0 -4
BITMAP
0000
0000
0000
3000
1800
0C00
0000
3E00
6300
6300
7F00
6000
6300
3E00
0000
0000
0000
0000
ENDCHAR
STARTCHAR eacute
ENCODING 233
SWIDTH 540 0
DWIDTH 9 0
BBX 9 18 0 -4
BITMAP
0000
0000
0000
0600
0C00
1800
0000
3E00
6300
6300
7F00
6000
6300
3E00
0000
0000
0000
0000
ENDCHAR
STARTCHAR ecircumflex
ENCODING 234
SWIDTH 540 0
DWIDTH 9 0
BBX 9 18 0 -4
BITMAP
0000
0000
0000
0800
1C00
3600
0000
3E00
6300
6300
7F00
6000
6300
3E00
0000
0000
0000
0000
ENDCHAR
STARTCHAR edieresis
ENCODING 235
SWIDTH 540 0
DWIDTH 9 0
BBX 9 18 0 -4
BITMAP
0000
0000
0000
0000
3600
3600
0000
3E00
6300
6300
7F00
6000
6300
3E00
0000
0000
0000
0000
ENDCHAR
STARTCHAR igrave
ENCODING 236
SWIDTH 540 0
DWIDTH 9 0
BBX 9 18 0 -4
BITMAP
0000
0000
0000
6000
3000
1800
0000
7800
1800
1800
1800
1800
1800
7E00
0000
0000
0000
0000
ENDCHAR
STARTCHAR iacute
ENCODING 237
SWIDTH 540 0
DWIDTH 9 0
BBX 9 18 0 -4
BITMAP
0000
0000
0000
0600
0C00
1800
0000
7800
1800
1800
1800
1800
1800
7E00
0000
0000
0000
0000
ENDCHAR
STARTCHAR icircumflex
ENCODING 238
SWIDTH 540 0
DWIDTH 9 0
BBX 9 18 0 -4
BITMAP
0000
0000
0000
1000
3800
6C00
0000
7800
1800
1800
1800
1800
1800
7E00
0000
0000
0000
0000
ENDCHAR
STARTCHAR idieresis
ENCODING 239
SWIDTH 540 0
DWIDTH 9 0
BBX 9 18 0 -4
BITMAP
0000
0000
0000
0000
3600
3600
0000
7800
1800
1800
1800
1800
1800
7E00
0000
0000
0000
0000
ENDCHAR
STARTCHAR eth
ENCODING 240
SWIDTH 540 0
DWIDTH 9 0
BBX 9 18 0 -4
BITMAP
0000
0000
0000
3600
1C00
1C00
3600
0600
3F00
6300
6300
6300
6300
3E00
0000
0000
0000
0000
ENDCHAR
STARTCHAR ntilde
ENCODING 241
SWIDTH 540 0
DWIDTH 9 0
BBX 9 18 0 -4
BITMAP
0000
0000
0000
0000
3B00
6E00
0000
6E00
7300
6300
6300
6300
6300
6300
0000
0000
0000
0000
ENDCHAR
STARTCHAR ograve
ENCODING 242
SWIDTH 540 0
DWIDTH 9 0
BBX 9 18 0 -4
BITMAP
0000
0000
0000
3000
1800
0C00
0000
1C00
3600
6300
6300
6300
3600
1C00
0000
0000
0000
0000
ENDCHAR
STARTCHAR oacute
ENCODING 243
SWIDTH 540 0
DWIDTH 9 0
BBX 9 18 0 -4
BITMAP
0000
0000
0000
0600
0C00
1800
0000
1C00
3600
6300
6300
6300
3600
1C00
0000
0000
0000
0000
ENDCHAR
STARTCHAR ocircumflex
ENCODING 244
SWIDTH 540 0
DWIDTH 9 0
BBX 9 18 0 -4
BITMAP
0000
0000
0000
0800
1C00
3600
0000
1C00
3600
6300
6300
6300
3600
1C00
0000
0000
0000
0000
ENDCHAR
STARTCHAR otilde
ENCODING 245
SWIDTH 540 0
DWIDTH 9 0
BBX 9 18 0 -4
BITMAP
0000
0000
0000
0000
3B00
6E00
0000
1C00
3600
6300
6300
6300
3600
1C00
0000
0000
0000
0000
ENDCHAR
STARTCHAR odieresis
ENCODING 246
SWIDTH 540 0
DWIDTH 9 0
BBX 9 18 0 -4
BITMAP
0000
0000
0000
0000
3600
3600
0000
1C00
3600
6300
6300
6300
3600
1C00
0000
0000
0000
0000
ENDCHAR
STARTCHAR divide
ENCODING 247
SWIDTH 540 0
DWIDTH 9 0
BBX 9 18 0 -4
BITMAP
0000
0000
0000
0000
0000
0000
1800
1800
0000
FF00
0000
1800
1800
0000
0000
0000
0000
0000
ENDCHAR
STARTCHAR oslash
ENCODING 248
SWIDTH 540 0
DWIDTH 9 0
BBX 9 18 0 -4
BITMAP
0000
0000
0000
0000
0000
0000
0100
3F00
6600
CF00
DB00
F300
6600
FC00
8000
0000
0000
0000
ENDCHAR
STARTCHAR ugrave
ENCODING 249
SWIDTH 540 0
DWIDTH 9 0
BBX 9 18 0 -4
BITMAP
0000
0000
0000
3000
1800
0C00
0000
6300
6300
6300
6300
6300
6300
3F00
0000
0000
0000
0000
ENDCHAR
STARTCHAR uacute
ENCODING 250
SWIDTH 540 0
DWIDTH 9 0
BBX 9 18 0 -4
BITMAP
0000
0000
0000
0600
0C00
1800
0000
6300
6300
6300
6300
6300
6300
3F00
0000
0000
0000
0000
ENDCHAR
STARTCHAR ucircumflex
ENCODING 251
SWIDTH 540 0
DWIDTH 9 0
BBX 9 18 0 -4
BITMAP
0000
0000
0000
0800
1C00
3600
0000
6300
6300
6300
6300
6300
6300
3F00
0000
0000
0000
0000
ENDCHAR
STARTCHAR udieresis
ENCODING 252
SWIDTH 540 0
DWIDTH 9 0
BBX 9 18 0 -4
BITMAP
0000
0000
0000
0000
3600
3600
0000
6300
6300
6300
6300
6300
6300
3F00
0000
0000
0000
0000
ENDCHAR
STARTCHAR yacute
ENCODING 253
SWIDTH 540 0
DWIDTH 9 0
BBX 9 18 0 -4
BITMAP
0000
0000
0000
0600
0C00
1800
0000
6300
6300
3600
3600
3600
1C00
1C00
1800
5800
3000
0000
ENDCHAR
STARTCHAR thorn
ENCODING 254
SWIDTH 540 0
DWIDTH 9 0
BBX 9 18 0 -4
BITMAP
0000
0000
0000
0000
0000
6000
6000
7C00
6600
6300
6300
6300
6600
7C00
6000
6000
0000
0000
ENDCHAR
STARTCHAR ydieresis
ENCODING 255
SWIDTH 540 0
DWIDTH 9 0
BBX 9 18 0 -4
BITMAP
0000
0000
0000
0000
3600
3600
0000
6300
6300
3600
3600
3600
1C00
1C00
1800
5800
3000
0000
ENDCHAR
STARTCHAR Amacron
ENCODING 256
SWIDTH 540 0
DWIDTH 9 0
BBX 9 18 0 -4
BITMAP
0000
0000
3E00
0000
0800
1C00
1C00
1C00
3600
3E00
3600
6300
6300
6300
0000
0000
0000
0000
ENDCHAR
STARTCHAR amacron
ENCODING 257
SWIDTH 540 0
DWIDTH 9 0
BBX 9 18 0 -4
BITMAP
0000
0000
0000
0000
0000
3E00
0000
3E00
0300
0300
3F00
6300
6300
3F00
0000
0000
0000
0000
ENDCHAR
STARTCHAR Abreve
ENCODING 258
SWIDTH 540 0
DWIDTH 9 0
BBX 9 18 0 -4
BITMAP
0000
6300
3E00
0000
0800
1C00
1C00
1C00
3600
3E00
3600
6300
6300
6300
0000
0000
0000
0000
ENDCHAR
STARTCHAR abreve
ENCODING 259
SWIDTH 540 0
DWIDTH 9 0
BBX 9 18 0 -4
BITMAP
0000
0000
0000
0000
6300
3E00
0000
3E00
0300
0300
3F00
6300
6300
3F00
0000
0000
0000
0000
ENDCHAR
STARTCHAR Aogonek
ENCODING 260
SWIDTH 540 0
DWIDTH 9 0
BBX 9 18 0 -4
BITMAP
0000
0000
0000
0000
0800
1C00
1C00
1C00
3600
3E00
3600
6300
6300
6300
1800
1800
1F00
0000
ENDCHAR
STARTCHAR aogonek
ENCODING 261
SWIDTH 540 0
DWIDTH 9 0
BBX 9 18 0 -4
BITMAP
0000
0000
0000
0000
0000
0000
0000
3E00
0300
0300
3F00
6300
6300
3F00
1800
1800
1F00
0000
ENDCHAR
STARTCHAR Cacute
ENCODING 262
SWIDTH 540 0
DWIDTH 9 0
BBX 9 18 0 -4
BITMAP
0600
0C00
1800
0000
1E00
3300
6000
6000
6000
6000
6000
6000
3300
1E00
0000
0000
0000
0000
ENDCHAR
STARTCHAR cacute
ENCODING 263
SWIDTH 540 0
DWIDTH 9 0
BBX 9 18 0 -4
BITMAP
0000
0000
0000
0600
0C00
1800
0000
3E00
6300
6000
6000
6000
6300
3E00
0000
0000
0000
0000
ENDCHAR
STARTCHAR Ccircumflex
ENCODING 264
SWIDTH 540 0
DWIDTH 9 0
BBX 9 18 0 -4
BITMAP
0800
1C00
3600
0000
1E00
3300
6000
6000
6000
6000
6000
6000
3300
1E00
0000
0000
0000
0000
ENDCHAR
STARTCHAR ccircumflex
ENCODING 265
SWIDTH 540 0
DWIDTH 9 0
BBX 9 18 0 -4
BITMAP
0000
0000
0000
0800
1C00
3600
0000
3E00
6300
6000
6000
6000
6300
3E00
0000
0000
0000
0000
ENDCHAR
STARTCHAR Cdotaccent
ENCODING 266
SWIDTH 540 0
DWIDTH 9 0
BBX 9 18 0 -4
BITMAP
0000
0C00
0C00
0000
1E00
3300
6000
6000
6000
6000
6000
6000
3300
1E00
0000
0000
0000
0000
ENDCHAR
STARTCHAR cdotaccent
ENCODING 267
SWIDTH 540 0
DWIDTH 9 0
BBX 9 18 0 -4
BITMAP
0000
0000
0000
0000
1800
1800
0000
3E00
6300
6000
6000
6000
6300
3E00
0000
0000
0000
0000
ENDCHAR
STARTCHAR Ccaron
ENCODING 268
SWIDTH 540 0
DWIDTH 9 0
BBX 9 18 0 -4
BITMAP
3600
1C00
0800
0000
1E00
3300
6000
6000
6000
6000
6000
6000
3300
1E00
0000
0000
0000
0000
ENDCHAR
STARTCHAR ccaron
ENCODING 269
SWIDTH 540 0
DWIDTH 9 0
BBX 9 18 0 -4
BITMAP
0000
0000
0000
3600
1C00
0800
0000
3E00
6300
6000
6000
6000
6300
3E00
0000
0000
0000
0000
ENDCHAR
STARTCHAR Dcaron
ENCODING 270
SWIDTH 540 0
DWIDTH 9 0
BBX 9 18 0 -4
BITMAP
3600
1C00
0800
0000
7C00
6600
6300
6300
6300
6300
6300
6300
6600
7C00
0000
0000
0000
0000
ENDCHAR
STARTCHAR dcaron
ENCODING 271
SWIDTH 540 0
DWIDTH 9 0
BBX 9 18 0 -4
BITMAP
0000
3600
1C00
0800
0300
0300
0300
3F00
6300
6300
6300
6300
6300
3F00
0000
0000
0000
0000
ENDCHAR
STARTCHAR Dcroat
ENCODING 272
SWIDTH 540 0
DWIDTH 9 0
BBX 9 18 0 -4
BITMAP
0000
0000
0000
0000
7C00
6600
6300
6300
F300
6300
6300
6300
6600
7C00
0000
0000
0000
0000
ENDCHAR
STARTCHAR dcroat
ENCODING 273
SWIDTH 540 0
DWIDTH 9 0
BBX 9 18 0 -4
BITMAP
0000
0000
0000
0000
0600
1F00
0600
7E00
C600
C600
C600
C600
C600
7E00
0000
0000
0000
0000
ENDCHAR
STARTCHAR Emacron
ENCODING 274
SWIDTH 540 0
DWIDTH 9 0
BBX 9 18 0 -4
BITMAP
0000
0000
3E00
0000
7F00
6000
6000
6000
7C00
6000
6000
6000
6000
7F00
0000
0000
0000
0000
ENDCHAR
STARTCHAR emacron
ENCODING 275
SWIDTH 540 0
DWIDTH 9 0
BBX 9 18 0 -4
BITMAP
0000
0000
0000
0000
0000
3E00
0000
3E00
6300
6300
7F00
6000
6300
3E00
0000
0000
0000
0000
ENDCHAR
STARTCHAR Ebreve
ENCODING 276
SWIDTH 540 0
DWIDTH 9 0
BBX 9 18 0 -4
BITMAP
0000
6300
3E00
0000
7F00
6000
6000
6000
7C00
6000
6000
6000
6000
7F00
0000
0000
0000
0000
ENDCHAR
STARTCHAR ebreve
ENCODING 277
SWIDTH 540 0
DWIDTH 9 0
BBX 9 18 0 -4
BITMAP
0000
0000
0000
0000
6300
3E00
0000
3E00
6300
6300
7F00
6000
6300
3E00
0000
0000
0000
0000
ENDCHAR
STARTCHAR Edotaccent
ENCODING 278
SWIDTH 540 0
DWIDTH 9 0
BBX 9 18 0 -4
BITMAP
0000
0C00
0C00
0000
7F00
6000
6000
6000
7C00
6000
6000
6000
6000
7F00
0000
0000
0000
0000
ENDCHAR
STARTCHAR edotaccent
ENCODING 279
SWIDTH 540 0
DWIDTH 9 0
BBX 9 18 0 -4
BITMAP
0000
0000
0000
0000
0C00
0C00
0000
3E00
6300
6300
7F00
6000
6300
3E00
0000
0000
0000
0000
ENDCHAR
STARTCHAR Eogonek
ENCODING 280
SWIDTH 540 0
DWIDTH 9 0
BBX 9 18 0 -4
BITMAP
0000
0000
0000
0000
7F00
6000
6000
6000
7C00
6000
6000
6000
6000
7F00
1800
1800
1F00
0000
ENDCHAR
STARTCHAR eogonek
ENCODING 281
SWIDTH 540 0
DWIDTH 9 0
BBX 9 18 0 -4
BITMAP
0000
0000
0000
0000
0000
0000
0000
3E00
6300
6300
7F00
6000
6300
3E00
1800
1800
1F00
0000
ENDCHAR
STARTCHAR Ecaron
ENCODING 282
SWIDTH 540 0
DWIDTH 9 0
BBX 9 18 0 -4
BITMAP
3600
1C00
0800
0000
7F00
6000
6000
6000
7C00
6000
6000
6000
6000
7F00
0000
0000
0000
0000
ENDCHAR
STARTCHAR ecaron
ENCODING 283
SWIDTH 540 0
DWIDTH 9 0
BBX 9 18 0 -4
BITMAP
0000
0000
0000
3600
1C00
0800
0000
3E00
6300
6300
7F00
6000
6300
3E00
0000
0000
0000
0000
ENDCHAR
STARTCHAR Gcircumflex
ENCODING 284
SWIDTH 540 0
DWIDTH 9 0
BBX 9 18 0 -4
BITMAP
0800
1C00
3600
0000
1C00
3600
6300
6000
6000
6700
6300
6300
3600
1C00
0000
0000
0000
0000
ENDCHAR
STARTCHAR gcircumflex
ENCODING 285
SWIDTH 540 0
DWIDTH 9 0
BBX 9 18 0 -4
BITMAP
0000
0000
0000
0800
1C00
3600
0000
3F00
6600
6600
6600
3C00
6000
3E00
6300
6300
3E00
0000
ENDCHAR
STARTCHAR Gbreve
ENCODING 286
SWIDTH 540 0
DWIDTH 9 0
BBX 9 18 0 -4
BITMAP
0000
6300
3E00
0000
1C00
3600
6300
6000
6000
6700
6300
6300
3600
1C00
0000
0000
0000
0000
ENDCHAR
STARTCHAR gbreve
ENCODING 287
SWIDTH 540 0
DWIDTH 9 0
BBX 9 18 0 -4
BITMAP
0000
0000
0000
0000
6300
3E00
0000
3F00
6600
6600
6600
3C00
6000
3E00
6300
6300
3E00
0000
ENDCHAR
STARTCHAR Gdotaccent
ENCODING 288
SWIDTH 540 0
DWIDTH 9 0
BBX 9 18 0 -4
BITMAP
0000
1800
1800
0000
1C00
3600
6300
6000
6000
6700
6300
6300
3600
1C00
0000
0000
0000
0000
ENDCHAR
STARTCHAR gdotaccent
ENCODING 289
SWIDTH 540 0
DWIDTH 9 0
BBX 9 18 0 -4
BITMAP
0000
0000
0000
0000
1800
1800
0000
3F00
6600
6600
6600
3C00
6000
3E00
6300
6300
3E00
0000
ENDCHAR
STARTCHAR Gcommaaccent
ENCODING 290
SWIDTH 540 0
DWIDTH 9 0
BBX 9 18 0 -4
BITMAP
0000
0000
0000
0000
1C00
3600
6300
6000
6000
6700
6300
6300
3600
1C00
0C00
0600
3600
1C00
ENDCHAR
STARTCHAR gcommaaccent
ENCODING 291
SWIDTH 540 0
DWIDTH 9 0
BBX 9 18 0 -4
BITMAP
0000
0000
0C00
1800
1C00
1C00
0000
3F00
6600
6600
6600
3C00
6000
3E00
6300
6300
3E00
0000
ENDCHAR
STARTCHAR Hcircumflex
ENCODING 292
SWIDTH 540 0
DWIDTH 9 0
BBX 9 18 0 -4
BITMAP
0800
1C00
3600
0000
6300
6300
6300
6300
7F00
6300
6300
6300
6300
6300
0000
0000
0000
0000
ENDCHAR
STARTCHAR hcircumflex
ENCODING 293
SWIDTH 540 0
DWIDTH 9 0
BBX 9 18 0 -4
BITMAP
0800
1C00
3600
0000
6000
6000
6000
7E00
6300
6300
6300
6300
6300
6300
0000
0000
0000
0000
ENDCHAR
STARTCHAR Hbar
ENCODING 294
SWIDTH 540 0
DWIDTH 9 0
BBX 9 18 0 -4
BITMAP
0000
0000
0000
0000
6300
6300
FF80
6300
7F00
6300
6300
6300
6300
6300
0000
0000
0000
0000
ENDCHAR
STARTCHAR hbar
ENCODING 295
SWIDTH 540 0
DWIDTH 9 0
BBX 9 18 0 -4
BITMAP
0000
0000
0000
0000
6000
F800
6000
7E00
6300
6300
6300
6300
6300
6300
0000
0000
0000
0000
ENDCHAR
STARTCHAR Itilde
ENCODING 296
SWIDTH 540 0
DWIDTH 9 0
BBX 9 18 0 -4
BITMAP
0000
3B00
6E00
0000
7E00
1800
1800
1800
1800
1800
1800
1800
1800
7E00
0000
0000
0000
0000
ENDCHAR
STARTCHAR itilde
ENCODING 297
SWIDTH 540 0
DWIDTH 9 0
BBX 9 18 0 -4
BITMAP
0000
0000
0000
0000
3B00
6E00
0000
7800
1800
1800
1800
1800
1800
7E00
0000
0000
0000
0000
ENDCHAR
STARTCHAR Imacron
ENCODING 298
SWIDTH 540 0
DWIDTH 9 0
BBX 9 18 0 -4
BITMAP
0000
0000
7E00
0000
7E00
1800
1800
1800
1800
1800
1800
1800
1800
7E00
0000
0000
0000
0000
ENDCHAR
STARTCHAR imacron
ENCODING 299
SWIDTH 540 0
DWIDTH 9 0
BBX 9 18 0 -4
BITMAP
0000
0000
0000
0000
0000
7E00
0000
7800
1800
1800
1800
1800
1800
7E00
0000
0000
0000
0000
ENDCHAR
STARTCHAR Ibreve
ENCODING 300
SWIDTH 540 0
DWIDTH 9 0
BBX 9 18 0 -4
BITMAP
0000
6300
3E00
0000
7E00
1800
1800
1800
1800
1800
1800
1800
1800
7E00
0000
0000
0000
0000
ENDCHAR
STARTCHAR ibreve
ENCODING 301
SWIDTH 540 0
DWIDTH 9 0
BBX 9 18 0 -4
BITMAP
0000
0000
0000
0000
6600
3C00
0000
7800
1800
1800
1800
1800
1800
7E00
0000
0000
0000
0000
ENDCHAR
STARTCHAR Iogonek
ENCODING 302
SWIDTH 540 0
DWIDTH 9 0
BBX 9 18 0 -4
BITMAP
0000
0000
0000
0000
7E00
1800
1800
1800
1800
1800
1800
1800
1800
7E00
1800
1800
1F00
0000
ENDCHAR
STARTCHAR iogonek
ENCODING 303
SWIDTH 540 0
DWIDTH 9 0
BBX 9 18 0 -4
BITMAP
0000
0000
0000
0000
1800
1800
0000
7800
1800
1800
1800
1800
1800
7E00
1800
1800
1F00
0000
ENDCHAR
STARTCHAR Idotaccent
ENCODING 304
SWIDTH 540 0
DWIDTH 9 0
BBX 9 18 0 -4
BITMAP
0000
1800
1800
0000
7E00
1800
1800
1800
1800
1800
1800
1800
1800
7E00
0000
0000
0000
0000
ENDCHAR
STARTCHAR dotlessi
ENCODING 305
SWIDTH 540 0
DWIDTH 9 0
BBX 9 18 0 -4
BITMAP
0000
0000
0000
0000
0000
0000
0000
7800
1800
1800
1800
1800
1800
7E00
0000
0000
0000
0000
ENDCHAR
STARTCHAR IJ
ENCODING 306
SWIDTH 540 0
DWIDTH 9 0
BBX 9 18 0 -4
BITMAP
0000
0000
0000
0000
F700
6300
6300
6300
6300
6300
6300
6300
6B00
F600
0000
0000
0000
0000
ENDCHAR
STARTCHAR ij
ENCODING 307
SWIDTH 540 0
DWIDTH 9 0
BBX 9 18 0 -4
BITMAP
0000
0000
0000
0000
3300
3300
0000
7700
3300
3300
3300
3300
3300
7B00
0300
1B00
0E00
0000
ENDCHAR
STARTCHAR Jcircumflex
ENCODING 308
SWIDTH 540 0
DWIDTH 9 0
BBX 9 18 0 -4
BITMAP
0C00
1E00
3300
0000
1E00
0C00
0C00
0C00
0C00
0C00
0C00
CC00
CC00
7800
0000
0000
0000
0000
ENDCHAR
STARTCHAR jcircumflex
ENCODING 309
SWIDTH 540 0
DWIDTH 9 0
BBX 9 18 0 -4
BITMAP
0000
0000
0000
0C00
1E00
3300
0000
1C00
0C00
0C00
0C00
0C00
0C00
0C00
6C00
6C00
3800
0000
ENDCHAR
STARTCHAR Kcommaaccent
ENCODING 310
SWIDTH 540 0
DWIDTH 9 0
BBX 9 18 0 -4
BITMAP
0000
0000
0000
0000
6300
6600
6C00
7800
7000
7800
6C00
6600
6300
6300
0C00
0600
3600
1C00
ENDCHAR
STARTCHAR kcommaaccent
ENCODING 311
SWIDTH 540 0
DWIDTH 9 0
BBX 9 18 0 -4
BITMAP
0000
0000
0000
0000
6000
6000
6000
6600
6C00
7800
7800
6C00
6600
6300
0C00
0600
3600
1C00
ENDCHAR
STARTCHAR kgreenlandic
ENCODING 312
SWIDTH 540 0
DWIDTH 9 0
BBX 9 18 0 -4
BITMAP
0000
0000
0000
0000
0000
0000
0000
6600
6C00
7800
7000
7800
6C00
6600
0000
0000
0000
0000
ENDCHAR
STARTCHAR Lacute
ENCODING 313
SWIDTH 540 0
DWIDTH 9 0
BBX 9 18 0 -4
BITMAP
0600
0C00
1800
0000
6000
6000
6000
6000
6000
6000
6000
6000
6000
7F00
0000
0000
0000
0000
ENDCHAR
STARTCHAR lacute
ENCODING 314
SWIDTH 540 0
DWIDTH 9 0
BBX 9 18 0 -4
BITMAP
0600
0C00
1800
0000
7800
1800
1800
1800
1800
1800
1800
1800
1800
7E00
0000
0000
0000
0000
ENDCHAR
STARTCHAR Lcommaaccent
ENCODING 315
SWIDTH 540 0
DWIDTH 9 0
BBX 9 18 0 -4
BITMAP
0000
0000
0000
0000
6000
6000
6000
6000
6000
6000
6000
6000
6000
7F00
0C00
0600
3600
1C00
ENDCHAR
STARTCHAR lcommaaccent
ENCODING 316
SWIDTH 540 0
DWIDTH 9 0
BBX 9 18 0 -4
BITMAP
0000
0000
0000
0000
7800
1800
1800
1800
1800
1800
1800
1800
1800
7E00
0C00
0600
3600
1C00
ENDCHAR
STARTCHAR Lcaron
ENCODING 317
SWIDTH 540 0
DWIDTH 9 0
BBX 9 18 0 -4
BITMAP
3600
1C00
0800
0000
6000
6000
6000
6000
6000
6000
6000
6000
6000
7F00
0000
0000
0000
0000
ENDCHAR
STARTCHAR lcaron
ENCODING 318
SWIDTH 540 0
DWIDTH 9 0
BBX 9 18 0 -4
BITMAP
3600
1C00
0800
0000
7800
1800
1800
1800
1800
1800
1800
1800
1800
7E00
0000
0000
0000
0000
ENDCHAR
STARTCHAR Ldot
ENCODING 319
SWIDTH 540 0
DWIDTH 9 0
BBX 9 18 0 -4
BITMAP
0000
0000
0000
0000
6000
6000
6000
6C00
6C00
6000
6000
6000
6000
7F00
0000
0000
0000
0000
ENDCHAR
STARTCHAR ldot
ENCODING 320
SWIDTH 540 0
DWIDTH 9 0
BBX 9 18 0 -4
BITMAP
0000
0000
0000
0000
7800
1800
1800
1B00
1B00
1800
1800
1800
1800
7E00
0000
0000
0000
0000
ENDCHAR
STARTCHAR Lslash
ENCODING 321
SWIDTH 540 0
DWIDTH 9 0
BBX 9 18 0 -4
BITMAP
0000
0000
0000
0000
3000
3000
3C00
3800
3000
7000
F000
3000
3000
3F00
0000
0000
0000
0000
ENDCHAR
STARTCHAR lslash
ENCODING 322
SWIDTH 540 0
DWIDTH 9 0
BBX 9 18 0 -4
BITMAP
0000
0000
0000
0000
7800
1800
1E00
1C00
1800
3800
7800
1800
1800
7E00
0000
0000
0000
0000
ENDCHAR
STARTCHAR Nacute
ENCODING 323
SWIDTH 540 0
DWIDTH 9 0
BBX 9 18 0 -4
BITMAP
0600
0C00
1800
0000
6300
6300
7300
7B00
6F00
6700
6300
6300
6300
6300
0000
0000
0000
0000
ENDCHAR
STARTCHAR nacute
ENCODING 324
SWIDTH 540 0
DWIDTH 9 0
BBX 9 18 0 -4
BITMAP
0000
0000
0000
0600
0C00
1800
0000
6E00
7300
6300
6300
6300
6300
6300
0000
0000
0000
0000
ENDCHAR
STARTCHAR Ncommaaccent
ENCODING 325
SWIDTH 540 0
DWIDTH 9 0
BBX 9 18 0 -4
BITMAP
0000
0000
0000
0000
6300
6300
7300
7B00
6F00
6700
6300
6300
6300
6300
0C00
0600
3600
1C00
ENDCHAR
STARTCHAR ncommaaccent
ENCODING 326
SWIDTH 540 0
DWIDTH 9 0
BBX 9 18 0 -4
BITMAP
0000
0000
0000
0000
0000
0000
0000
6E00
7300
6300
6300
6300
6300
6300
0C00
0600
3600
1C00
ENDCHAR
STARTCHAR Ncaron
ENCODING 327
SWIDTH 540 0
DWIDTH 9 0
BBX 9 18 0 -4
BITMAP
3600
1C00
0800
0000
6300
6300
7300
7B00
6F00
6700
6300
6300
6300
6300
0000
0000
0000
0000
ENDCHAR
STARTCHAR ncaron
ENCODING 328
SWIDTH 540 0
DWIDTH 9 0
BBX 9 18 0 -4
BITMAP
0000
0000
0000
3600
1C00
0800
0000
6E00
7300
6300
6300
6300
6300
6300
0000
0000
0000
0000
ENDCHAR
STARTCHAR napostrophe
ENCODING 329
SWIDTH 540 0
DWIDTH 9 0
BBX 9 18 0 -4
BITMAP
0000
0000
6000
6000
2000
4000
0000
3600
3B00
3300
3300
3300
3300
3300
0000
0000
0000
0000
ENDCHAR
STARTCHAR Eng
ENCODING 330
SWIDTH 540 0
DWIDTH 9 0
BBX 9 18 0 -4
BITMAP
0000
0000
0000
0000
6300
6300
7300
7B00
6F00
6700
6300
6300
6300
6300
0300
1B00
0E00
0000
ENDCHAR
STARTCHAR eng
ENCODING 331
SWIDTH 540 0
DWIDTH 9 0
BBX 9 18 0 -4
BITMAP
0000
0000
0000
0000
0000
0000
0000
6E00
7B00
7300
6300
6300
6300
6300
0300
1B00
0E00
0000
ENDCHAR
STARTCHAR Omacron
ENCODING 332
SWIDTH 540 0
DWIDTH 9 0
BBX 9 18 0 -4
BITMAP
0000
0000
3E00
0000
3E00
6300
6300
6300
6300
6300
6300
6300
6300
3E00
0000
0000
0000
0000
ENDCHAR
STARTCHAR omacron
ENCODING 333
SWIDTH 540 0
DWIDTH 9 0
BBX 9 18 0 -4
BITMAP
0000
0000
0000
0000
0000
3E00
0000
1C00
3600
6300
6300
6300
3600
1C00
0000
0000
0000
0000
ENDCHAR
STARTCHAR Obreve
ENCODING 334
SWIDTH 540 0
DWIDTH 9 0
BBX 9 18 0 -4
BITMAP
0000
6300
3E00
0000
3E00
6300
6300
6300
6300
6300
6300
6300
6300
3E00
0000
0000
0000
0000
ENDCHAR
STARTCHAR obreve
ENCODING 335
SWIDTH 540 0
DWIDTH 9 0
BBX 9 18 0 -4
BITMAP
0000
0000
0000
0000
6300
3E00
0000
1C00
3600
6300
6300
6300
3600
1C00
0000
0000
0000
0000
ENDCHAR
STARTCHAR Ohungarumlaut
ENCODING 336
SWIDTH 540 0
DWIDTH 9 0
BBX 9 18 0 -4
BITMAP
1B00
3600
6C00
0000
3E00
6300
6300
6300
6300
6300
6300
6300
6300
3E00
0000
0000
0000
0000
ENDCHAR
STARTCHAR ohungarumlaut
ENCODING 337
SWIDTH 540 0
DWIDTH 9 0
BBX 9 18 0 -4
BITMAP
0000
0000
0000
1B00
3600
6C00
0000
1C00
3600
6300
6300
6300
3600
1C00
0000
0000
0000
0000
ENDCHAR
STARTCHAR OE
ENCODING 338
SWIDTH 540 0
DWIDTH 9 0
BBX 9 18 0 -4
BITMAP
0000
0000
0000
0000
3F00
6C00
6C00
6C00
6E00
6C00
6C00
6C00
6C00
3F00
0000
0000
0000
0000
ENDCHAR
STARTCHAR oe
ENCODING 339
SWIDTH 540 0
DWIDTH 9 0
BBX 9 18 0 -4
BITMAP
0000
0000
0000
0000
0000
0000
0000
6E00
DB00
DB00
DF00
D800
DB00
6E00
0000
0000
0000
0000
ENDCHAR
STARTCHAR Racute
ENCODING 340
SWIDTH 540 0
DWIDTH 9 0
BBX 9 18 0 -4
BITMAP
0600
0C00
1800
0000
7E00
6300
6300
6300
6300
7E00
6C00
6600
6300
6300
0000
0000
0000
0000
ENDCHAR
STARTCHAR racute
ENCODING 341
SWIDTH 540 0
DWIDTH 9 0
BBX 9 18 0 -4
BITMAP
0000
0000
0000
0600
0C00
1800
0000
6E00
3B00
3000
3000
3000
3000
3000
0000
0000
0000
0000
ENDCHAR
STARTCHAR Rcommaaccent
ENCODING 342
SWIDTH 540 0
DWIDTH 9 0
BBX 9 18 0 -4
BITMAP
0000
0000
0000
0000
7E00
6300
6300
6300
6300
7E00
6C00
6600
6300
6300
0C00
0600
3600
1C00
ENDCHAR
STARTCHAR rcommaaccent
ENCODING 343
SWIDTH 540 0
DWIDTH 9 0
BBX 9 18 0 -4
BITMAP
0000
0000
0000
0000
0000
0000
0000
6E00
3B00
3000
3000
3000
3000
3000
0C00
0600
3600
1C00
ENDCHAR
STARTCHAR Rcaron
ENCODING 344
SWIDTH 540 0
DWIDTH 9 0
BBX 9 18 0 -4
BITMAP
3600
1C00
0800
0000
7E00
6300
6300
6300
6300
7E00
6C00
6600
6300
6300
0000
0000
0000
0000
ENDCHAR
STARTCHAR rcaron
ENCODING 345
SWIDTH 540 0
DWIDTH 9 0
BBX 9 18 0 -4
BITMAP
0000
0000
0000
3600
1C00
0800
0000
6E00
3B00
3000
3000
3000
3000
3000
0000
0000
0000
0000
ENDCHAR
STARTCHAR Sacute
ENCODING 346
SWIDTH 540 0
DWIDTH 9 0
BBX 9 18 0 -4
BITMAP
0600
0C00
1800
0000
3E00
6300
6000
6000
3E00
0300
0300
0300
6300
3E00
0000
0000
0000
0000
ENDCHAR
STARTCHAR sacute
ENCODING 347
SWIDTH 540 0
DWIDTH 9 0
BBX 9 18 0 -4
BITMAP
0000
0000
0000
0600
0C00
1800
0000
3E00
6300
6000
3E00
0300
6300
3E00
0000
0000
0000
0000
ENDCHAR
STARTCHAR Scircumflex
ENCODING 348
SWIDTH 540 0
DWIDTH 9 0
BBX 9 18 0 -4
BITMAP
0800
1C00
3600
0000
3E00
6300
6000
6000
3E00
0300
0300
0300
6300
3E00
0000
0000
0000
0000
ENDCHAR
STARTCHAR scircumflex
ENCODING 349
SWIDTH 540 0
DWIDTH 9 0
BBX 9 18 0 -4
BITMAP
0000
0000
0000
0800
1C00
3600
0000
3E00
6300
6000
3E00
0300
6300
3E00
0000
0000
0000
0000
ENDCHAR
STARTCHAR Scedilla
ENCODING 350
SWIDTH 540 0
DWIDTH 9 0
BBX 9 18 0 -4
BITMAP
0000
0000
0000
0000
3E00
6300
6000
6000
3E00
0300
0300
0300
6300
3E00
0C00
0600
3600
1C00
ENDCHAR
STARTCHAR scedilla
ENCODING 351
SWIDTH 540 0
DWIDTH 9 0
BBX 9 18 0 -4
BITMAP
0000
0000
0000
0000
0000
0000
0000
3E00
6300
6000
3E00
0300
6300
3E00
0C00
0600
3600
1C00
ENDCHAR
STARTCHAR Scaron
ENCODING 352
SWIDTH 540 0
DWIDTH 9 0
BBX 9 18 0 -4
BITMAP
3600
1C00
0800
0000
3E00
6300
6000
6000
3E00
0300
0300
0300
6300
3E00
0000
0000
0000
0000
ENDCHAR
STARTCHAR scaron
ENCODING 353
SWIDTH 540 0
DWIDTH 9 0
BBX 9 18 0 -4
BITMAP
0000
0000
0000
3600
1C00
0800
0000
3E00
6300
6000
3E00
0300
6300
3E00
0000
0000
0000
0000
ENDCHAR
STARTCHAR Tcommaaccent
ENCODING 354
SWIDTH 540 0
DWIDTH 9 0
BBX 9 18 0 -4
BITMAP
0000
0000
0000
0000
7E00
1800
1800
1800
1800
1800
1800
1800
1800
1800
0C00
0600
3600
1C00
ENDCHAR
STARTCHAR tcommaaccent
ENCODING 355
SWIDTH 540 0
DWIDTH 9 0
BBX 9 18 0 -4
BITMAP
0000
0000
0000
0000
0000
1800
1800
7E00
1800
1800
1800
1800
1B00
0E00
0C00
0600
3600
1C00
ENDCHAR
STARTCHAR Tcaron
ENCODING 356
SWIDTH 540 0
DWIDTH 9 0
BBX 9 18 0 -4
BITMAP
6600
3C00
1800
0000
7E00
1800
1800
1800
1800
1800
1800
1800
1800
1800
0000
0000
0000
0000
ENDCHAR
STARTCHAR tcaron
ENCODING 357
SWIDTH 540 0
DWIDTH 9 0
BBX 9 18 0 -4
BITMAP
0000
6600
3C00
1800
0000
1800
1800
7E00
1800
1800
1800
1800
1B00
0E00
0000
0000
0000
0000
ENDCHAR
STARTCHAR Tbar
ENCODING 358
SWIDTH 540 0
DWIDTH 9 0
BBX 9 18 0 -4
BITMAP
0000
0000
0000
0000
FF00
1800
1800
7E00
1800
1800
1800
1800
1800
1800
0000
0000
0000
0000
ENDCHAR
STARTCHAR tbar
ENCODING 359
SWIDTH 540 0
DWIDTH 9 0
BBX 9 18 0 -4
BITMAP
0000
0000
0000
0000
0000
3000
3000
FC00
3000
FC00
3000
3000
3300
1E00
0000
0000
0000
0000
ENDCHAR
STARTCHAR Utilde
ENCODING 360
SWIDTH 540 0
DWIDTH 9 0
BBX 9 18 0 -4
BITMAP
0000
3B00
6E00
0000
6300
6300
6300
6300
6300
6300
6300
6300
3600
1C00
0000
0000
0000
0000
ENDCHAR
STARTCHAR utilde
ENCODING 361
SWIDTH 540 0
DWIDTH 9 0
BBX 9 18 0 -4
BITMAP
0000
0000
0000
0000
3B00
6E00
0000
6300
6300
6300
6300
6300
6300
3F00
0000
0000
0000
0000
ENDCHAR
STARTCHAR Umacron
ENCODING 362
SWIDTH 540 0
DWIDTH 9 0
BBX 9 18 0 -4
BITMAP
0000
0000
3E00
0000
6300
6300
6300
6300
6300
6300
6300
6300
3600
1C00
0000
0000
0000
0000
ENDCHAR
STARTCHAR umacron
ENCODING 363
SWIDTH 540 0
DWIDTH 9 0
BBX 9 18 0 -4
BITMAP
0000
0000
0000
0000
0000
3E00
0000
6300
6300
6300
6300
6300
6300
3F00
0000
0000
0000
0000
ENDCHAR
STARTCHAR Ubreve
ENCODING 364
SWIDTH 540 0
DWIDTH 9 0
BBX 9 18 0 -4
BITMAP
0000
6300
3E00
0000
6300
6300
6300
6300
6300
6300
6300
6300
3600
1C00
0000
0000
0000
0000
ENDCHAR
STARTCHAR ubreve
ENCODING 365
SWIDTH 540 0
DWIDTH 9 0
BBX 9 18 0 -4
BITMAP
0000
0000
0000
0000
6300
3E00
0000
6300
6300
6300
6300
6300
6300
3F00
0000
0000
0000
0000
ENDCHAR
STARTCHAR Uring
ENCODING 366
SWIDTH 540 0
DWIDTH 9 0
BBX 9 18 0 -4
BITMAP
1C00
3600
1C00
0000
6300
6300
6300
6300
6300
6300
6300
6300
3600
1C00
0000
0000
0000
0000
ENDCHAR
STARTCHAR uring
ENCODING 367
SWIDTH 540 0
DWIDTH 9 0
BBX 9 18 0 -4
BITMAP
0000
0000
0000
1C00
3600
1C00
0000
6300
6300
6300
6300
6300
6300
3F00
0000
0000
0000
0000
ENDCHAR
STARTCHAR Uhungarumlaut
ENCODING 368
SWIDTH 540 0
DWIDTH 9 0
BBX 9 18 0 -4
BITMAP
1B00
3600
6C00
0000
6300
6300
6300
6300
6300
6300
6300
6300
3600
1C00
0000
0000
0000
0000
ENDCHAR
STARTCHAR uhungarumlaut
ENCODING 369
SWIDTH 540 0
DWIDTH 9 0
BBX 9 18 0 -4
BITMAP
0000
0000
0000
1B00
3600
6C00
0000
6300
6300
6300
6300
6300
6300
3F00
0000
0000
0000
0000
ENDCHAR
STARTCHAR Uogonek
ENCODING 370
SWIDTH 540 0
DWIDTH 9 0
BBX 9 18 0 -4
BITMAP
0000
0000
0000
0000
6300
6300
6300
6300
6300
6300
6300
6300
3600
1C00
1800
1800
1F00
0000
ENDCHAR
STARTCHAR uogonek
ENCODING 371
SWIDTH 540 0
DWIDTH 9 0
BBX 9 18 0 -4
BITMAP
0000
0000
0000
0000
0000
0000
0000
6300
6300
6300
6300
6300
6300
3F00
1800
1800
1F00
0000
ENDCHAR
STARTCHAR Wcircumflex
ENCODING 372
SWIDTH 540 0
DWIDTH 9 0
BBX 9 18 0 -4
BITMAP
0800
1C00
3600
0000
6300
6300
6300
6300
6B00
6B00
6B00
7F00
7700
2200
0000
0000
0000
0000
ENDCHAR
STARTCHAR wcircumflex
ENCODING 373
SWIDTH 540 0
DWIDTH 9 0
BBX 9 18 0 -4
BITMAP
0000
0000
0000
1800
3C00
6600
0000
C300
C300
DB00
DB00
DB00
FF00
6600
0000
0000
0000
0000
ENDCHAR
STARTCHAR Ycircumflex
ENCODING 374
SWIDTH 540 0
DWIDTH 9 0
BBX 9 18 0 -4
BITMAP
1800
3C00
6600
0000
C300
C300
6600
3C00
1800
1800
1800
1800
1800
1800
0000
0000
0000
0000
ENDCHAR
STARTCHAR ycircumflex
ENCODING 375
SWIDTH 540 0
DWIDTH 9 0
BBX 9 18 0 -4
BITMAP
0000
0000
0000
0800
1C00
3600
0000
6300
6300
3600
3600
3600
1C00
1C00
1800
5800
3000
0000
ENDCHAR
STARTCHAR Ydieresis
ENCODING 376
SWIDTH 540 0
DWIDTH 9 0
BBX 9 18 0 -4
BITMAP
0000
6600
6600
0000
C300
C300
6600
3C00
1800
1800
1800
1800
1800
1800
0000
0000
0000
0000
ENDCHAR
STARTCHAR Zacute
ENCODING 377
SWIDTH 540 0
DWIDTH 9 0
BBX 9 18 0 -4
BITMAP
0600
0C00
1800
0000
7F00
0300
0300
0600
0C00
1800
3000
6000
6000
7F00
0000
0000
0000
0000
ENDCHAR
STARTCHAR zacute
ENCODING 378
SWIDTH 540 0
DWIDTH 9 0
BBX 9 18 0 -4
BITMAP
0000
0000
0000
0600
0C00
1800
0000
7E00
0600
0C00
1800
3000
6000
7E00
0000
0000
0000
0000
ENDCHAR
STARTCHAR Zdotaccent
ENCODING 379
SWIDTH 540 0
DWIDTH 9 0
BBX 9 18 0 -4
BITMAP
0000
1800
1800
0000
7F00
0300
0300
0600
0C00
1800
3000
6000
6000
7F00
0000
0000
0000
0000
ENDCHAR
STARTCHAR zdotaccent
ENCODING 380
SWIDTH 540 0
DWIDTH 9 0
BBX 9 18 0 -4
BITMAP
0000
0000
0000
0000
1800
1800
0000
7E00
0600
0C00
1800
3000
6000
7E00
0000
0000
0000
0000
ENDCHAR
STARTCHAR Zcaron
ENCODING 381
SWIDTH 540 0
DWIDTH 9 0
BBX 9 18 0 -4
BITMAP
3600
1C00
0800
0000
7F00
0300
0300
0600
0C00
1800
3000
6000
6000
7F00
0000
0000
0000
0000
ENDCHAR
STARTCHAR zcaron
ENCODING 382
SWIDTH 540 0
DWIDTH 9 0
BBX 9 18 0 -4
BITMAP
0000
0000
0000
3600
1C00
0800
0000
7E00
0600
0C00
1800
3000
6000
7E00
0000
0000
0000
0000
ENDCHAR
STARTCHAR longs
ENCODING 383
SWIDTH 540 0
DWIDTH 9 0
BBX 9 18 0 -4
BITMAP
0000
0000
0000
0000
1C00
3600
3000
3000
3000
7000
3000
3000
3000
3000
0000
0000
0000
0000
ENDCHAR
STARTCHAR uni018F
ENCODING 399
SWIDTH 540 0
DWIDTH 9 0
BBX 9 18 0 -4
BITMAP
0000
0000
0000
0000
3E00
6300
0300
0300
7F00
6300
6300
6300
6300
3E00
0000
0000
0000
0000
ENDCHAR
STARTCHAR florin
ENCODING 402
SWIDTH 540 0
DWIDTH 9 0
BBX 9 18 0 -4
BITMAP
0000
0000
0000
0000
0E00
1B00
1B00
1800
1800
3C00
1800
1800
D800
D800
7000
0000
0000
0000
ENDCHAR
STARTCHAR Ohorn
ENCODING 416
SWIDTH 540 0
DWIDTH 9 0
BBX 9 18 0 -4
BITMAP
0000
0000
0000
0000
3C80
6680
6700
6600
6600
6600
6600
6600
6600
3C00
0000
0000
0000
0000
ENDCHAR
STARTCHAR ohorn
ENCODING 417
SWIDTH 540 0
DWIDTH 9 0
BBX 9 18 0 -4
BITMAP
0000
0000
0000
0000
0000
0000
0000
1C80
3680
6300
6300
6300
3600
1C00
0000
0000
0000
0000
ENDCHAR
STARTCHAR Uhorn
ENCODING 431
SWIDTH 540 0
DWIDTH 9 0
BBX 9 18 0 -4
BITMAP
0000
0000
0000
0000
6680
6680
6700
6600
6600
6600
6600
6600
3C00
1800
0000
0000
0000
0000
ENDCHAR
STARTCHAR uhorn
ENCODING 432
SWIDTH 540 0
DWIDTH 9 0
BBX 9 18 0 -4
BITMAP
0000
0000
0000
0000
0000
0000
0000
6680
6680
6700
6600
6600
6600
3E00
0000
0000
0000
0000
ENDCHAR
STARTCHAR Scommaaccent
ENCODING 536
SWIDTH 540 0
DWIDTH 9 0
BBX 9 18 0 -4
BITMAP
0000
0000
0000
0000
7E00
C300
C000
C000
7E00
0300
0300
0300
C300
7E00
0000
1C00
0C00
1800
ENDCHAR
STARTCHAR scommaaccent
ENCODING 537
SWIDTH 540 0
DWIDTH 9 0
BBX 9 18 0 -4
BITMAP
0000
0000
0000
0000
0000
0000
0000
7E00
C300
C000
7E00
0300
C300
7E00
0000
1C00
0C00
1800
ENDCHAR
STARTCHAR Tcommaaccent
ENCODING 538
SWIDTH 540 0
DWIDTH 9 0
BBX 9 18 0 -4
BITMAP
0000
0000
0000
0000
FF00
1800
1800
1800
1800
1800
1800
1800
1800
1800
0000
1C00
0C00
1800
ENDCHAR
STARTCHAR tcommaaccent
ENCODING 539
SWIDTH 540 0
DWIDTH 9 0
BBX 9 18 0 -4
BITMAP
0000
0000
0000
0000
0000
3000
3000
FC00
3000
3000
3000
3000
3300
1E00
0000
1C00
0C00
1800
ENDCHAR
STARTCHAR uni0259
ENCODING 601
SWIDTH 540 0
DWIDTH 9 0
BBX 9 18 0 -4
BITMAP
0000
0000
0000
0000
0000
0000
0000
3E00
6300
0300
7F00
6300
6300
3E00
0000
0000
0000
0000
ENDCHAR
STARTCHAR afii57929
ENCODING 700
SWIDTH 540 0
DWIDTH 9 0
BBX 9 18 0 -4
BITMAP
0000
0000
0000
0000
1C00
1C00
0C00
1800
0000
0000
0000
0000
0000
0000
0000
0000
0000
0000
ENDCHAR
STARTCHAR afii64937
ENCODING 701
SWIDTH 540 0
DWIDTH 9 0
BBX 9 18 0 -4
BITMAP
0000
0000
0000
0000
1C00
1C00
1800
0C00
0000
0000
0000
0000
0000
0000
0000
0000
0000
0000
ENDCHAR
STARTCHAR circumflex
ENCODING 710
SWIDTH 540 0
DWIDTH 9 0
BBX 9 18 0 -4
BITMAP
0000
0000
0000
0000
0800
1C00
3600
0000
0000
0000
0000
0000
0000
0000
0000
0000
0000
0000
ENDCHAR
STARTCHAR caron
ENCODING 711
SWIDTH 540 0
DWIDTH 9 0
BBX 9 18 0 -4
BITMAP
0000
0000
0000
0000
3600
1C00
0800
0000
0000
0000
0000
0000
0000
0000
0000
0000
0000
0000
ENDCHAR
STARTCHAR breve
ENCODING 728
SWIDTH 540 0
DWIDTH 9 0
BBX 9 18 0 -4
BITMAP
0000
0000
0000
6300
3E00
0000
0000
0000
0000
0000
0000
0000
0000
0000
0000
0000
0000
0000
ENDCHAR
STARTCHAR dotaccent
ENCODING 729
SWIDTH 540 0
DWIDTH 9 0
BBX 9 18 0 -4
BITMAP
0000
0000
0000
1800
1800
0000
0000
0000
0000
0000
0000
0000
0000
0000
0000
0000
0000
0000
ENDCHAR
STARTCHAR ring
ENCODING 730
SWIDTH 540 0
DWIDTH 9 0
BBX 9 18 0 -4
BITMAP
0000
0000
0000
1C00
3600
1C00
0000
0000
0000
0000
0000
0000
0000
0000
0000
0000
0000
0000
ENDCHAR
STARTCHAR ogonek
ENCODING 731
SWIDTH 540 0
DWIDTH 9 0
BBX 9 18 0 -4
BITMAP
0000
0000
0000
0000
0000
0000
0000
0000
0000
0000
0000
0000
0000
0000
1800
3000
1E00
0000
ENDCHAR
STARTCHAR tilde
ENCODING 732
SWIDTH 540 0
DWIDTH 9 0
BBX 9 18 0 -4
BITMAP
0000
0000
0000
3B00
6E00
0000
0000
0000
0000
0000
0000
0000
0000
0000
0000
0000
0000
0000
ENDCHAR
STARTCHAR hungarumlaut
ENCODING 733
SWIDTH 540 0
DWIDTH 9 0
BBX 9 18 0 -4
BITMAP
0000
0000
0000
1B00
3600
6C00
0000
0000
0000
0000
0000
0000
0000
0000
0000
0000
0000
0000
ENDCHAR
STARTCHAR gravecomb
ENCODING 768
SWIDTH 540 0
DWIDTH 9 0
BBX 9 18 0 -4
BITMAP
3000
1800
0C00
0000
0000
0000
0000
0000
0000
0000
0000
0000
0000
0000
0000
0000
0000
0000
ENDCHAR
STARTCHAR acutecomb
ENCODING 769
SWIDTH 540 0
DWIDTH 9 0
BBX 9 18 0 -4
BITMAP
0C00
1800
3000
0000
0000
0000
0000
0000
0000
0000
0000
0000
0000
0000
0000
0000
0000
0000
ENDCHAR
STARTCHAR uni0302
ENCODING 770
SWIDTH 540 0
DWIDTH 9 0
BBX 9 18 0 -4
BITMAP
0800
1C00
3600
0000
0000
0000
0000
0000
0000
0000
0000
0000
0000
0000
0000
0000
0000
0000
ENDCHAR
STARTCHAR tildecomb
ENCODING 771
SWIDTH 540 0
DWIDTH 9 0
BBX 9 18 0 -4
BITMAP
0000
3B00
6E00
0000
0000
0000
0000
0000
0000
0000
0000
0000
0000
0000
0000
0000
0000
0000
ENDCHAR
STARTCHAR uni0304
ENCODING 772
SWIDTH 540 0
DWIDTH 9 0
BBX 9 18 0 -4
BITMAP
0000
0000
3E00
0000
0000
0000
0000
0000
0000
0000
0000
0000
0000
0000
0000
0000
0000
0000
ENDCHAR
STARTCHAR uni0305
ENCODING 773
SWIDTH 540 0
DWIDTH 9 0
BBX 9 18 0 -4
BITMAP
0000
0000
FF80
0000
0000
0000
0000
0000
0000
0000
0000
0000
0000
0000
0000
0000
0000
0000
ENDCHAR
STARTCHAR uni0306
ENCODING 774
SWIDTH 540 0
DWIDTH 9 0
BBX 9 18 0 -4
BITMAP
0000
6300
3E00
0000
0000
0000
0000
0000
0000
0000
0000
0000
0000
0000
0000
0000
0000
0000
ENDCHAR
STARTCHAR uni0307
ENCODING 775
SWIDTH 540 0
DWIDTH 9 0
BBX 9 18 0 -4
BITMAP
0000
1800
1800
0000
0000
0000
0000
0000
0000
0000
0000
0000
0000
0000
0000
0000
0000
0000
ENDCHAR
STARTCHAR uni0308
ENCODING 776
SWIDTH 540 0
DWIDTH 9 0
BBX 9 18 0 -4
BITMAP
0000
3600
3600
0000
0000
0000
0000
0000
0000
0000
0000
0000
0000
0000
0000
0000
0000
0000
ENDCHAR
STARTCHAR hookabovecomb
ENCODING 777
SWIDTH 540 0
DWIDTH 9 0
BBX 9 18 0 -4
BITMAP
3800
6C00
0C00
1800
0000
0000
0000
0000
0000
0000
0000
0000
0000
0000
0000
0000
0000
0000
ENDCHAR
STARTCHAR uni030A
ENCODING 778
SWIDTH 540 0
DWIDTH 9 0
BBX 9 18 0 -4
BITMAP
1C00
3600
1C00
0000
0000
0000
0000
0000
0000
0000
0000
0000
0000
0000
0000
0000
0000
0000
ENDCHAR
STARTCHAR uni030B
ENCODING 779
SWIDTH 540 0
DWIDTH 9 0
BBX 9 18 0 -4
BITMAP
1B00
3600
6C00
0000
0000
0000
0000
0000
0000
0000
0000
0000
0000
0000
0000
0000
0000
0000
ENDCHAR
STARTCHAR uni030C
ENCODING 780
SWIDTH 540 0
DWIDTH 9 0
BBX 9 18 0 -4
BITMAP
3600
1C00
0800
0000
0000
0000
0000
0000
0000
0000
0000
0000
0000
0000
0000
0000
0000
0000
ENDCHAR
STARTCHAR uni030D
ENCODING 781
SWIDTH 540 0
DWIDTH 9 0
BBX 9 18 0 -4
BITMAP
1800
1800
1800
1800
0000
0000
0000
0000
0000
0000
0000
0000
0000
0000
0000
0000
0000
0000
ENDCHAR
STARTCHAR uni030E
ENCODING 782
SWIDTH 540 0
DWIDTH 9 0
BBX 9 18 0 -4
BITMAP
3600
3600
3600
3600
0000
0000
0000
0000
0000
0000
0000
0000
0000
0000
0000
0000
0000
0000
ENDCHAR
STARTCHAR uni030F
ENCODING 783
SWIDTH 540 0
DWIDTH 9 0
BBX 9 18 0 -4
BITMAP
6C00
3600
1B00
0000
0000
0000
0000
0000
0000
0000
0000
0000
0000
0000
0000
0000
0000
0000
ENDCHAR
STARTCHAR uni0310
ENCODING 784
SWIDTH 540 0
DWIDTH 9 0
BBX 9 18 0 -4
BITMAP
1800
C300
7E00
0000
0000
0000
0000
0000
0000
0000
0000
0000
0000
0000
0000
0000
0000
0000
ENDCHAR
STARTCHAR uni0311
ENCODING 785
SWIDTH 540 0
DWIDTH 9 0
BBX 9 18 0 -4
BITMAP
0000
3C00
6600
0000
0000
0000
0000
0000
0000
0000
0000
0000
0000
0000
0000
0000
0000
0000
ENDCHAR
STARTCHAR dotbelowcomb
ENCODING 803
SWIDTH 540 0
DWIDTH 9 0
BBX 9 18 0 -4
BITMAP
0000
0000
0000
0000
0000
0000
0000
0000
0000
0000
0000
0000
0000
0000
0000
1800
1800
0000
ENDCHAR
STARTCHAR uni0324
ENCODING 804
SWIDTH 540 0
DWIDTH 9 0
BBX 9 18 0 -4
BITMAP
0000
0000
0000
0000
0000
0000
0000
0000
0000
0000
0000
0000
0000
0000
0000
3600
3600
0000
ENDCHAR
STARTCHAR uni0325
ENCODING 805
SWIDTH 540 0
DWIDTH 9 0
BBX 9 18 0 -4
BITMAP
0000
0000
0000
0000
0000
0000
0000
0000
0000
0000
0000
0000
0000
0000
0000
1C00
3600
1C00
ENDCHAR
STARTCHAR uni0327
ENCODING 807
SWIDTH 540 0
DWIDTH 9 0
BBX 9 18 0 -4
BITMAP
0000
0000
0000
0000
0000
0000
0000
0000
0000
0000
0000
0000
0000
0000
0C00
0600
3600
1C00
ENDCHAR
STARTCHAR uni0328
ENCODING 808
SWIDTH 540 0
DWIDTH 9 0
BBX 9 18 0 -4
BITMAP
0000
0000
0000
0000
0000
0000
0000
0000
0000
0000
0000
0000
0000
0000
1800
1800
1F00
0000
ENDCHAR
STARTCHAR uni0340
ENCODING 832
SWIDTH 540 0
DWIDTH 9 0
BBX 9 18 0 -4
BITMAP
3000
1800
0C00
0000
0000
0000
0000
0000
0000
0000
0000
0000
0000
0000
0000
0000
0000
0000
ENDCHAR
STARTCHAR uni0341
ENCODING 833
SWIDTH 540 0
DWIDTH 9 0
BBX 9 18 0 -4
BITMAP
0C00
1800
3000
0000
0000
0000
0000
0000
0000
0000
0000
0000
0000
0000
0000
0000
0000
0000
ENDCHAR
STARTCHAR uni0374
ENCODING 884
SWIDTH 540 0
DWIDTH 9 0
BBX 9 18 0 -4
BITMAP
0000
0000
0000
0C00
1800
3000
0000
0000
0000
0000
0000
0000
0000
0000
0000
0000
0000
0000
ENDCHAR
STARTCHAR uni0375
ENCODING 885
SWIDTH 540 0
DWIDTH 9 0
BBX 9 18 0 -4
BITMAP
0000
0000
0000
0000
0000
0000
0000
0000
0000
0000
0000
0000
0000
0000
0C00
1800
3000
0000
ENDCHAR
STARTCHAR uni037A
ENCODING 890
SWIDTH 540 0
DWIDTH 9 0
BBX 9 18 0 -4
BITMAP
0000
0000
0000
0000
0000
0000
0000
0000
0000
0000
0000
0000
0000
0000
0000
3000
3C00
0000
ENDCHAR
STARTCHAR uni037E
ENCODING 894
SWIDTH 540 0
DWIDTH 9 0
BBX 9 18 0 -4
BITMAP
0000
0000
0000
0000
0000
0000
0000
1C00
1C00
0000
0000
0000
1C00
1C00
0C00
0C00
1800
0000
ENDCHAR
STARTCHAR tonos
ENCODING 900
SWIDTH 540 0
DWIDTH 9 0
BBX 9 18 0 -4
BITMAP
0000
0000
0000
0C00
1800
3000
0000
0000
0000
0000
0000
0000
0000
0000
0000
0000
0000
0000
ENDCHAR
STARTCHAR dieresistonos
ENCODING 901
SWIDTH 540 0
DWIDTH 9 0
BBX 9 18 0 -4
BITMAP
0000
0600
0C00
1800
0000
3600
3600
0000
0000
0000
0000
0000
0000
0000
0000
0000
0000
0000
ENDCHAR
STARTCHAR Alphatonos
ENCODING 902
SWIDTH 540 0
DWIDTH 9 0
BBX 9 18 0 -4
BITMAP
0600
0C00
1800
0000
0800
1C00
1C00
1C00
3600
3E00
3600
6300
6300
6300
0000
0000
0000
0000
ENDCHAR
STARTCHAR anoteleia
ENCODING 903
SWIDTH 540 0
DWIDTH 9 0
BBX 9 18 0 -4
BITMAP
0000
0000
0000
0000
0000
0000
0000
1800
1800
0000
0000
0000
0000
0000
0000
0000
0000
0000
ENDCHAR
STARTCHAR Epsilontonos
ENCODING 904
SWIDTH 540 0
DWIDTH 9 0
BBX 9 18 0 -4
BITMAP
0600
0C00
1800
0000
7F00
6000
6000
6000
7C00
6000
6000
6000
6000
7F00
0000
0000
0000
0000
ENDCHAR
STARTCHAR Etatonos
ENCODING 905
SWIDTH 540 0
DWIDTH 9 0
BBX 9 18 0 -4
BITMAP
0600
0C00
1800
0000
6300
6300
6300
6300
7F00
6300
6300
6300
6300
6300
0000
0000
0000
0000
ENDCHAR
STARTCHAR Iotatonos
ENCODING 906
SWIDTH 540 0
DWIDTH 9 0
BBX 9 18 0 -4
BITMAP
0600
0C00
1800
0000
7E00
1800
1800
1800
1800
1800
1800
1800
1800
7E00
0000
0000
0000
0000
ENDCHAR
STARTCHAR Omicrontonos
ENCODING 908
SWIDTH 540 0
DWIDTH 9 0
BBX 9 18 0 -4
BITMAP
0600
0C00
1800
0000
3E00
6300
6300
6300
6300
6300
6300
6300
6300
3E00
0000
0000
0000
0000
ENDCHAR
STARTCHAR Upsilontonos
ENCODING 910
SWIDTH 540 0
DWIDTH 9 0
BBX 9 18 0 -4
BITMAP
0600
0C00
1800
0000
C300
C300
6600
3C00
1800
1800
1800
1800
1800
1800
0000
0000
0000
0000
ENDCHAR
STARTCHAR Omegatonos
ENCODING 911
SWIDTH 540 0
DWIDTH 9 0
BBX 9 18 0 -4
BITMAP
0600
0C00
1800
0000
3C00
6600
C300
C300
C300
C300
C300
6600
6600
E700
0000
0000
0000
0000
ENDCHAR
STARTCHAR iotadieresistonos
ENCODING 912
SWIDTH 540 0
DWIDTH 9 0
BBX 9 18 0 -4
BITMAP
0600
0C00
1800
0000
6600
6600
0000
1800
1800
1800
1800
1800
1B00
0E00
0000
0000
0000
0000
ENDCHAR
STARTCHAR Alpha
ENCODING 913
SWIDTH 540 0
DWIDTH 9 0
BBX 9 18 0 -4
BITMAP
0000
0000
0000
0000
0800
1C00
1C00
1C00
3600
3E00
3600
6300
6300
6300
0000
0000
0000
0000
ENDCHAR
STARTCHAR Beta
ENCODING 914
SWIDTH 540 0
DWIDTH 9 0
BBX 9 18 0 -4
BITMAP
0000
0000
0000
0000
7E00
6300
6300
6300
7E00
6300
6300
6300
6300
7E00
0000
0000
0000
0000
ENDCHAR
STARTCHAR Gamma
ENCODING 915
SWIDTH 540 0
DWIDTH 9 0
BBX 9 18 0 -4
BITMAP
0000
0000
0000
0000
7F00
6000
6000
6000
6000
6000
6000
6000
6000
6000
0000
0000
0000
0000
ENDCHAR
STARTCHAR Delta
ENCODING 916
SWIDTH 540 0
DWIDTH 9 0
BBX 9 18 0 -4
BITMAP
0000
0000
0000
0000
1800
1800
3C00
3C00
6600
6600
6600
C300
C300
FF00
0000
0000
0000
0000
ENDCHAR
STARTCHAR Epsilon
ENCODING 917
SWIDTH 540 0
DWIDTH 9 0
BBX 9 18 0 -4
BITMAP
0000
0000
0000
0000
7F00
6000
6000
6000
7C00
6000
6000
6000
6000
7F00
0000
0000
0000
0000
ENDCHAR
STARTCHAR Zeta
ENCODING 918
SWIDTH 540 0
DWIDTH 9 0
BBX 9 18 0 -4
BITMAP
0000
0000
0000
0000
7F00
0300
0300
0600
0C00
1800
3000
6000
6000
7F00
0000
0000
0000
0000
ENDCHAR
STARTCHAR Eta
ENCODING 919
SWIDTH 540 0
DWIDTH 9 0
BBX 9 18 0 -4
BITMAP
0000
0000
0000
0000
6300
6300
6300
6300
7F00
6300
6300
6300
6300
6300
0000
0000
0000
0000
ENDCHAR
STARTCHAR Theta
ENCODING 920
SWIDTH 540 0
DWIDTH 9 0
BBX 9 18 0 -4
BITMAP
0000
0000
0000
0000
3E00
6300
6300
6300
7F00
6300
6300
6300
6300
3E00
0000
0000
0000
0000
ENDCHAR
STARTCHAR Iota
ENCODING 921
SWIDTH 540 0
DWIDTH 9 0
BBX 9 18 0 -4
BITMAP
0000
0000
0000
0000
7E00
1800
1800
1800
1800
1800
1800
1800
1800
7E00
0000
0000
0000
0000
ENDCHAR
STARTCHAR Kappa
ENCODING 922
SWIDTH 540 0
DWIDTH 9 0
BBX 9 18 0 -4
BITMAP
0000
0000
0000
0000
6300
6600
6C00
7800
7000
7800
6C00
6600
6300
6300
0000
0000
0000
0000
ENDCHAR
STARTCHAR Lambda
ENCODING 923
SWIDTH 540 0
DWIDTH 9 0
BBX 9 18 0 -4
BITMAP
0000
0000
0000
0000
1800
1800
3C00
3C00
6600
6600
6600
C300
C300
C300
0000
0000
0000
0000
ENDCHAR
STARTCHAR Mu
ENCODING 924
SWIDTH 540 0
DWIDTH 9 0
BBX 9 18 0 -4
BITMAP
0000
0000
0000
0000
6300
7700
7F00
6B00
6300
6300
6300
6300
6300
6300
0000
0000
0000
0000
ENDCHAR
STARTCHAR Nu
ENCODING 925
SWIDTH 540 0
DWIDTH 9 0
BBX 9 18 0 -4
BITMAP
0000
0000
0000
0000
6300
6300
7300
7B00
6F00
6700
6300
6300
6300
6300
0000
0000
0000
0000
ENDCHAR
STARTCHAR Xi
ENCODING 926
SWIDTH 540 0
DWIDTH 9 0
BBX 9 18 0 -4
BITMAP
0000
0000
0000
0000
7F00
7F00
0000
0000
3E00
3E00
0000
0000
7F00
7F00
0000
0000
0000
0000
ENDCHAR
STARTCHAR Omicron
ENCODING 927
SWIDTH 540 0
DWIDTH 9 0
BBX 9 18 0 -4
BITMAP
0000
0000
0000
0000
3E00
6300
6300
6300
6300
6300
6300
6300
6300
3E00
0000
0000
0000
0000
ENDCHAR
STARTCHAR Pi
ENCODING 928
SWIDTH 540 0
DWIDTH 9 0
BBX 9 18 0 -4
BITMAP
0000
0000
0000
0000
7F00
6300
6300
6300
6300
6300
6300
6300
6300
6300
0000
0000
0000
0000
ENDCHAR
STARTCHAR Rho
ENCODING 929
SWIDTH 540 0
DWIDTH 9 0
BBX 9 18 0 -4
BITMAP
0000
0000
0000
0000
7C00
6600
6300
6300
6600
7C00
6000
6000
6000
6000
0000
0000
0000
0000
ENDCHAR
STARTCHAR Sigma
ENCODING 931
SWIDTH 540 0
DWIDTH 9 0
BBX 9 18 0 -4
BITMAP
0000
0000
0000
0000
7F00
3000
1800
0C00
0600
0600
0C00
1800
3000
7F00
0000
0000
0000
0000
ENDCHAR
STARTCHAR Tau
ENCODING 932
SWIDTH 540 0
DWIDTH 9 0
BBX 9 18 0 -4
BITMAP
0000
0000
0000
0000
7E00
1800
1800
1800
1800
1800
1800
1800
1800
1800
0000
0000
0000
0000
ENDCHAR
STARTCHAR Upsilon
ENCODING 933
SWIDTH 540 0
DWIDTH 9 0
BBX 9 18 0 -4
BITMAP
0000
0000
0000
0000
C300
C300
6600
3C00
1800
1800
1800
1800
1800
1800
0000
0000
0000
0000
ENDCHAR
STARTCHAR Phi
ENCODING 934
SWIDTH 540 0
DWIDTH 9 0
BBX 9 18 0 -4
BITMAP
0000
0000
0000
0000
1800
7E00
DB00
DB00
DB00
DB00
DB00
DB00
7E00
1800
0000
0000
0000
0000
ENDCHAR
STARTCHAR Chi
ENCODING 935
SWIDTH 540 0
DWIDTH 9 0
BBX 9 18 0 -4
BITMAP
0000
0000
0000
0000
C300
C300
6600
3C00
1800
1800
3C00
6600
C300
C300
0000
0000
0000
0000
ENDCHAR
STARTCHAR Psi
ENCODING 936
SWIDTH 540 0
DWIDTH 9 0
BBX 9 18 0 -4
BITMAP
0000
0000
0000
0000
DB00
DB00
DB00
DB00
DB00
DB00
7E00
1800
1800
1800
0000
0000
0000
0000
ENDCHAR
STARTCHAR Omega
ENCODING 937
SWIDTH 540 0
DWIDTH 9 0
BBX 9 18 0 -4
BITMAP
0000
0000
0000
0000
3C00
6600
C300
C300
C300
C300
C300
6600
6600
E700
0000
0000
0000
0000
ENDCHAR
STARTCHAR Iotadieresis
ENCODING 938
SWIDTH 540 0
DWIDTH 9 0
BBX 9 18 0 -4
BITMAP
0000
6600
6600
0000
7E00
1800
1800
1800
1800
1800
1800
1800
1800
7E00
0000
0000
0000
0000
ENDCHAR
STARTCHAR Upsilondieresis
ENCODING 939
SWIDTH 540 0
DWIDTH 9 0
BBX 9 18 0 -4
BITMAP
0000
6600
6600
0000
C300
C300
6600
3C00
1800
1800
1800
1800
1800
1800
0000
0000
0000
0000
ENDCHAR
STARTCHAR alphatonos
ENCODING 940
SWIDTH 540 0
DWIDTH 9 0
BBX 9 18 0 -4
BITMAP
0000
0000
0000
0600
0C00
1800
0000
3F00
6700
6300
6300
6700
6F00
3B00
0000
0000
0000
0000
ENDCHAR
STARTCHAR epsilontonos
ENCODING 941
SWIDTH 540 0
DWIDTH 9 0
BBX 9 18 0 -4
BITMAP
0000
0000
0000
0600
0C00
1800
0000
3E00
6300
6000
3C00
6000
6300
3E00
0000
0000
0000
0000
ENDCHAR
STARTCHAR etatonos
ENCODING 942
SWIDTH 540 0
DWIDTH 9 0
BBX 9 18 0 -4
BITMAP
0000
0000
0000
0600
0C00
1800
0000
6E00
7B00
7300
6300
6300
6300
6300
0300
0300
0300
0000
ENDCHAR
STARTCHAR iotatonos
ENCODING 943
SWIDTH 540 0
DWIDTH 9 0
BBX 9 18 0 -4
BITMAP
0000
0000
0000
0C00
1800
3000
0000
3000
3000
3000
3000
3000
3600
1C00
0000
0000
0000
0000
ENDCHAR
STARTCHAR upsilondieresistonos
ENCODING 944
SWIDTH 540 0
DWIDTH 9 0
BBX 9 18 0 -4
BITMAP
0600
0C00
1800
0000
3600
3600
0000
6300
6300
6300
6300
6300
6300
3E00
0000
0000
0000
0000
ENDCHAR
STARTCHAR alpha
ENCODING 945
SWIDTH 540 0
DWIDTH 9 0
BBX 9 18 0 -4
BITMAP
0000
0000
0000
0000
0000
0000
0000
3F00
6700
6300
6300
6700
6F00
3B00
0000
0000
0000
0000
ENDCHAR
STARTCHAR beta
ENCODING 946
SWIDTH 540 0
DWIDTH 9 0
BBX 9 18 0 -4
BITMAP
0000
0000
0000
0000
3800
6C00
6C00
6C00
7E00
6300
6300
6300
6300
7E00
6000
6000
6000
0000
ENDCHAR
STARTCHAR gamma
ENCODING 947
SWIDTH 540 0
DWIDTH 9 0
BBX 9 18 0 -4
BITMAP
0000
0000
0000
0000
0000
0000
0000
C300
C300
6600
6600
3C00
3C00
1800
1800
1800
1800
0000
ENDCHAR
STARTCHAR delta
ENCODING 948
SWIDTH 540 0
DWIDTH 9 0
BBX 9 18 0 -4
BITMAP
0000
0000
0000
0000
3E00
6300
3000
3E00
6300
6300
6300
6300
6300
3E00
0000
0000
0000
0000
ENDCHAR
STARTCHAR epsilon
ENCODING 949
SWIDTH 540 0
DWIDTH 9 0
BBX 9 18 0 -4
BITMAP
0000
0000
0000
0000
0000
0000
0000
3E00
6300
6000
3C00
6000
6300
3E00
0000
0000
0000
0000
ENDCHAR
STARTCHAR zeta
ENCODING 950
SWIDTH 540 0
DWIDTH 9 0
BBX 9 18 0 -4
BITMAP
0000
0000
0000
0000
7F00
0C00
1800
3000
6000
6000
6000
6000
6000
3E00
0300
0300
0600
0000
ENDCHAR
STARTCHAR eta
ENCODING 951
SWIDTH 540 0
DWIDTH 9 0
BBX 9 18 0 -4
BITMAP
0000
0000
0000
0000
0000
0000
0000
6E00
7B00
7300
6300
6300
6300
6300
0300
0300
0300
0000
ENDCHAR
STARTCHAR theta
ENCODING 952
SWIDTH 540 0
DWIDTH 9 0
BBX 9 18 0 -4
BITMAP
0000
0000
0000
0000
3C00
6600
6600
6600
7E00
6600
6600
6600
6600
3C00
0000
0000
0000
0000
ENDCHAR
STARTCHAR iota
ENCODING 953
SWIDTH 540 0
DWIDTH 9 0
BBX 9 18 0 -4
BITMAP
0000
0000
0000
0000
0000
0000
0000
3000
3000
3000
3000
3000
3600
1C00
0000
0000
0000
0000
ENDCHAR
STARTCHAR kappa
ENCODING 954
SWIDTH 540 0
DWIDTH 9 0
BBX 9 18 0 -4
BITMAP
0000
0000
0000
0000
0000
0000
0000
6600
6C00
7800
7000
7800
6C00
6600
0000
0000
0000
0000
ENDCHAR
STARTCHAR lambda
ENCODING 955
SWIDTH 540 0
DWIDTH 9 0
BBX 9 18 0 -4
BITMAP
0000
0000
0000
0000
3C00
6600
0600
3E00
6600
6600
6600
6600
6600
6600
0000
0000
0000
0000
ENDCHAR
STARTCHAR mu
ENCODING 956
SWIDTH 540 0
DWIDTH 9 0
BBX 9 18 0 -4
BITMAP
0000
0000
0000
0000
0000
0000
0000
6300
6300
6300
6300
6300
7700
7B00
6000
6000
6000
0000
ENDCHAR
STARTCHAR nu
ENCODING 957
SWIDTH 540 0
DWIDTH 9 0
BBX 9 18 0 -4
BITMAP
0000
0000
0000
0000
0000
0000
0000
C300
C300
6600
6600
3C00
3C00
1800
0000
0000
0000
0000
ENDCHAR
STARTCHAR xi
ENCODING 958
SWIDTH 540 0
DWIDTH 9 0
BBX 9 18 0 -4
BITMAP
0000
0000
0000
0000
7F00
1800
3000
3000
1C00
3000
6000
6000
6000
3E00
0300
0300
0600
0000
ENDCHAR
STARTCHAR omicron
ENCODING 959
SWIDTH 540 0
DWIDTH 9 0
BBX 9 18 0 -4
BITMAP
0000
0000
0000
0000
0000
0000
0000
1C00
3600
6300
6300
6300
3600
1C00
0000
0000
0000
0000
ENDCHAR
STARTCHAR pi
ENCODING 960
SWIDTH 540 0
DWIDTH 9 0
BBX 9 18 0 -4
BITMAP
0000
0000
0000
0000
0000
0000
0000
7F00
3600
3600
3600
3600
3600
3600
0000
0000
0000
0000
ENDCHAR
STARTCHAR rho
ENCODING 961
SWIDTH 540 0
DWIDTH 9 0
BBX 9 18 0 -4
BITMAP
0000
0000
0000
0000
0000
0000
0000
3E00
6300
6300
6300
6300
6300
7E00
6000
6000
6000
0000
ENDCHAR
STARTCHAR sigma1
ENCODING 962
SWIDTH 540 0
DWIDTH 9 0
BBX 9 18 0 -4
BITMAP
0000
0000
0000
0000
0000
0000
0000
3E00
6300
6000
6000
6000
6000
3E00
0300
0300
0E00
0000
ENDCHAR
STARTCHAR sigma
ENCODING 963
SWIDTH 540 0
DWIDTH 9 0
BBX 9 18 0 -4
BITMAP
0000
0000
0000
0000
0000
0000
0000
3F00
6C00
6600
6300
6300
6300
3E00
0000
0000
0000
0000
ENDCHAR
STARTCHAR tau
ENCODING 964
SWIDTH 540 0
DWIDTH 9 0
BBX 9 18 0 -4
BITMAP
0000
0000
0000
0000
0000
0000
0000
7E00
1800
1800
1800
1800
1B00
0E00
0000
0000
0000
0000
ENDCHAR
STARTCHAR upsilon
ENCODING 965
SWIDTH 540 0
DWIDTH 9 0
BBX 9 18 0 -4
BITMAP
0000
0000
0000
0000
0000
0000
0000
6300
6300
6300
6300
6300
6300
3E00
0000
0000
0000
0000
ENDCHAR
STARTCHAR phi
ENCODING 966
SWIDTH 540 0
DWIDTH 9 0
BBX 9 18 0 -4
BITMAP
0000
0000
0000
0000
0000
0000
0000
6E00
DB00
DB00
DB00
DB00
DB00
7E00
1800
1800
1800
0000
ENDCHAR
STARTCHAR chi
ENCODING 967
SWIDTH 540 0
DWIDTH 9 0
BBX 9 18 0 -4
BITMAP
0000
0000
0000
0000
0000
0000
0000
C300
C300
6600
3C00
1800
1800
3C00
6600
C300
C300
0000
ENDCHAR
STARTCHAR psi
ENCODING 968
SWIDTH 540 0
DWIDTH 9 0
BBX 9 18 0 -4
BITMAP
0000
0000
0000
0000
0000
0000
0000
DB00
DB00
DB00
DB00
DB00
DB00
7E00
1800
1800
1800
0000
ENDCHAR
STARTCHAR omega
ENCODING 969
SWIDTH 540 0
DWIDTH 9 0
BBX 9 18 0 -4
BITMAP
0000
0000
0000
0000
0000
0000
0000
C300
DB00
DB00
DB00
DB00
DB00
7E00
0000
0000
0000
0000
ENDCHAR
STARTCHAR iotadieresis
ENCODING 970
SWIDTH 540 0
DWIDTH 9 0
BBX 9 18 0 -4
BITMAP
0000
0000
0000
0000
6600
6600
0000
1800
1800
1800
1800
1800
1B00
0E00
0000
0000
0000
0000
ENDCHAR
STARTCHAR upsilondieresis
ENCODING 971
SWIDTH 540 0
DWIDTH 9 0
BBX 9 18 0 -4
BITMAP
0000
0000
0000
0000
3600
3600
0000
6300
6300
6300
6300
6300
6300
3E00
0000
0000
0000
0000
ENDCHAR
STARTCHAR omicrontonos
ENCODING 972
SWIDTH 540 0
DWIDTH 9 0
BBX 9 18 0 -4
BITMAP
0000
0000
0000
0600
0C00
1800
0000
1C00
3600
6300
6300
6300
3600
1C00
0000
0000
0000
0000
ENDCHAR
STARTCHAR upsilontonos
ENCODING 973
SWIDTH 540 0
DWIDTH 9 0
BBX 9 18 0 -4
BITMAP
0000
0000
0000
0600
0C00
1800
0000
6300
6300
6300
6300
6300
6300
3E00
0000
0000
0000
0000
ENDCHAR
STARTCHAR omegatonos
ENCODING 974
SWIDTH 540 0
DWIDTH 9 0
BBX 9 18 0 -4
BITMAP
0000
0000
0000
0600
0C00
1800
0000
C300
DB00
DB00
DB00
DB00
DB00
7E00
0000
0000
0000
0000
ENDCHAR
STARTCHAR uni0400
ENCODING 1024
SWIDTH 540 0
DWIDTH 9 0
BBX 9 18 0 -4
BITMAP
3000
1800
0C00
0000
7F00
6000
6000
6000
7C00
6000
6000
6000
6000
7F00
0000
0000
0000
0000
ENDCHAR
STARTCHAR afii10023
ENCODING 1025
SWIDTH 540 0
DWIDTH 9 0
BBX 9 18 0 -4
BITMAP
0000
3600
3600
0000
7F00
6000
6000
6000
7C00
6000
6000
6000
6000
7F00
0000
0000
0000
0000
ENDCHAR
STARTCHAR afii10051
ENCODING 1026
SWIDTH 540 0
DWIDTH 9 0
BBX 9 18 0 -4
BITMAP
0000
0000
0000
0000
FE00
3000
3000
3000
3E00
3300
3300
3300
3300
3300
0300
0600
0000
0000
ENDCHAR
STARTCHAR afii10052
ENCODING 1027
SWIDTH 540 0
DWIDTH 9 0
BBX 9 18 0 -4
BITMAP
0600
0C00
1800
0000
7F00
6000
6000
6000
6000
6000
6000
6000
6000
6000
0000
0000
0000
0000
ENDCHAR
STARTCHAR afii10053
ENCODING 1028
SWIDTH 540 0
DWIDTH 9 0
BBX 9 18 0 -4
BITMAP
0000
0000
0000
0000
1E00
3300
6000
6000
7800
6000
6000
6000
3300
1E00
0000
0000
0000
0000
ENDCHAR
STARTCHAR afii10054
ENCODING 1029
SWIDTH 540 0
DWIDTH 9 0
BBX 9 18 0 -4
BITMAP
0000
0000
0000
0000
3E00
6300
6000
6000
3E00
0300
0300
0300
6300
3E00
0000
0000
0000
0000
ENDCHAR
STARTCHAR afii10055
ENCODING 1030
SWIDTH 540 0
DWIDTH 9 0
BBX 9 18 0 -4
BITMAP
0000
0000
0000
0000
7E00
1800
1800
1800
1800
1800
1800
1800
1800
7E00
0000
0000
0000
0000
ENDCHAR
STARTCHAR afii10056
ENCODING 1031
SWIDTH 540 0
DWIDTH 9 0
BBX 9 18 0 -4
BITMAP
0000
3600
3600
0000
7E00
1800
1800
1800
1800
1800
1800
1800
1800
7E00
0000
0000
0000
0000
ENDCHAR
STARTCHAR afii10057
ENCODING 1032
SWIDTH 540 0
DWIDTH 9 0
BBX 9 18 0 -4
BITMAP
0000
0000
0000
0000
0F00
0600
0600
0600
0600
0600
0600
6600
6600
3C00
0000
0000
0000
0000
ENDCHAR
STARTCHAR afii10058
ENCODING 1033
SWIDTH 540 0
DWIDTH 9 0
BBX 9 18 0 -4
BITMAP
0000
0000
0000
0000
7C00
6C00
6C00
6C00
6F00
6D80
6D80
6D80
6D80
EF00
0000
0000
0000
0000
ENDCHAR
STARTCHAR afii10059
ENCODING 1034
SWIDTH 540 0
DWIDTH 9 0
BBX 9 18 0 -4
BITMAP
0000
0000
0000
0000
D800
D800
D800
D800
FE00
DB00
DB00
DB00
DB00
DE00
0000
0000
0000
0000
ENDCHAR
STARTCHAR afii10060
ENCODING 1035
SWIDTH 540 0
DWIDTH 9 0
BBX 9 18 0 -4
BITMAP
0000
0000
0000
0000
FE00
3000
3000
3000
3E00
3300
3300
3300
3300
3300
0000
0000
0000
0000
ENDCHAR
STARTCHAR afii10061
ENCODING 1036
SWIDTH 540 0
DWIDTH 9 0
BBX 9 18 0 -4
BITMAP
0600
0C00
1800
0000
6300
6600
6C00
7800
7000
7800
6C00
6600
6300
6300
0000
0000
0000
0000
ENDCHAR
STARTCHAR uni040D
ENCODING 1037
SWIDTH 540 0
DWIDTH 9 0
BBX 9 18 0 -4
BITMAP
3000
1800
0C00
0000
6300
6300
6300
6700
6F00
7B00
7300
6300
6300
6300
0000
0000
0000
0000
ENDCHAR
STARTCHAR afii10062
ENCODING 1038
SWIDTH 540 0
DWIDTH 9 0
BBX 9 18 0 -4
BITMAP
0000
3600
1C00
0000
6300
6300
3600
3600
3600
1C00
1C00
1800
D800
7000
0000
0000
0000
0000
ENDCHAR
STARTCHAR afii10145
ENCODING 1039
SWIDTH 540 0
DWIDTH 9 0
BBX 9 18 0 -4
BITMAP
0000
0000
0000
0000
C300
C300
C300
C300
C300
C300
C300
C300
C300
FF00
1800
1800
0000
0000
ENDCHAR
STARTCHAR afii10017
ENCODING 1040
SWIDTH 540 0
DWIDTH 9 0
BBX 9 18 0 -4
BITMAP
0000
0000
0000
0000
0800
1C00
1C00
1C00
3600
3E00
3600
6300
6300
6300
0000
0000
0000
0000
ENDCHAR
STARTCHAR afii10018
ENCODING 1041
SWIDTH 540 0
DWIDTH 9 0
BBX 9 18 0 -4
BITMAP
0000
0000
0000
0000
7E00
6000
6000
6000
7E00
6300
6300
6300
6300
7E00
0000
0000
0000
0000
ENDCHAR
STARTCHAR afii10019
ENCODING 1042
SWIDTH 540 0
DWIDTH 9 0
BBX 9 18 0 -4
BITMAP
0000
0000
0000
0000
7E00
6300
6300
6300
7E00
6300
6300
6300
6300
7E00
0000
0000
0000
0000
ENDCHAR
STARTCHAR afii10020
ENCODING 1043
SWIDTH 540 0
DWIDTH 9 0
BBX 9 18 0 -4
BITMAP
0000
0000
0000
0000
7F00
6000
6000
6000
6000
6000
6000
6000
6000
6000
0000
0000
0000
0000
ENDCHAR
STARTCHAR afii10021
ENCODING 1044
SWIDTH 540 0
DWIDTH 9 0
BBX 9 18 0 -4
BITMAP
0000
0000
0000
0000
3E00
3600
3600
3600
3600
6600
6600
6600
6600
FF00
C300
C300
0000
0000
ENDCHAR
STARTCHAR afii10022
ENCODING 1045
SWIDTH 540 0
DWIDTH 9 0
BBX 9 18 0 -4
BITMAP
0000
0000
0000
0000
7F00
6000
6000
6000
7C00
6000
6000
6000
6000
7F00
0000
0000
0000
0000
ENDCHAR
STARTCHAR afii10024
ENCODING 1046
SWIDTH 540 0
DWIDTH 9 0
BBX 9 18 0 -4
BITMAP
0000
0000
0000
0000
DB00
DB00
7E00
7E00
3C00
7E00
7E00
DB00
DB00
DB00
0000
0000
0000
0000
ENDCHAR
STARTCHAR afii10025
ENCODING 1047
SWIDTH 540 0
DWIDTH 9 0
BBX 9 18 0 -4
BITMAP
0000
0000
0000
0000
3E00
6300
0300
0600
0C00
0600
0300
0300
6300
3E00
0000
0000
0000
0000
ENDCHAR
STARTCHAR afii10026
ENCODING 1048
SWIDTH 540 0
DWIDTH 9 0
BBX 9 18 0 -4
BITMAP
0000
0000
0000
0000
6300
6300
6300
6700
6F00
7B00
7300
6300
6300
6300
0000
0000
0000
0000
ENDCHAR
STARTCHAR afii10027
ENCODING 1049
SWIDTH 540 0
DWIDTH 9 0
BBX 9 18 0 -4
BITMAP
0000
3600
1C00
0000
6300
6300
6300
6700
6F00
7B00
7300
6300
6300
6300
0000
0000
0000
0000
ENDCHAR
STARTCHAR afii10028
ENCODING 1050
SWIDTH 540 0
DWIDTH 9 0
BBX 9 18 0 -4
BITMAP
0000
0000
0000
0000
6300
6600
6C00
7800
7000
7800
6C00
6600
6300
6300
0000
0000
0000
0000
ENDCHAR
STARTCHAR afii10029
ENCODING 1051
SWIDTH 540 0
DWIDTH 9 0
BBX 9 18 0 -4
BITMAP
0000
0000
0000
0000
0F00
1B00
1B00
1B00
1B00
3300
3300
3300
3300
6300
0000
0000
0000
0000
ENDCHAR
STARTCHAR afii10030
ENCODING 1052
SWIDTH 540 0
DWIDTH 9 0
BBX 9 18 0 -4
BITMAP
0000
0000
0000
0000
6300
7700
7F00
6B00
6300
6300
6300
6300
6300
6300
0000
0000
0000
0000
ENDCHAR
STARTCHAR afii10031
ENCODING 1053
SWIDTH 540 0
DWIDTH 9 0
BBX 9 18 0 -4
BITMAP
0000
0000
0000
0000
6300
6300
6300
6300
7F00
6300
6300
6300
6300
6300
0000
0000
0000
0000
ENDCHAR
STARTCHAR afii10032
ENCODING 1054
SWIDTH 540 0
DWIDTH 9 0
BBX 9 18 0 -4
BITMAP
0000
0000
0000
0000
3E00
6300
6300
6300
6300
6300
6300
6300
6300
3E00
0000
0000
0000
0000
ENDCHAR
STARTCHAR afii10033
ENCODING 1055
SWIDTH 540 0
DWIDTH 9 0
BBX 9 18 0 -4
BITMAP
0000
0000
0000
0000
7F00
6300
6300
6300
6300
6300
6300
6300
6300
6300
0000
0000
0000
0000
ENDCHAR
STARTCHAR afii10034
ENCODING 1056
SWIDTH 540 0
DWIDTH 9 0
BBX 9 18 0 -4
BITMAP
0000
0000
0000
0000
7C00
6600
6300
6300
6600
7C00
6000
6000
6000
6000
0000
0000
0000
0000
ENDCHAR
STARTCHAR afii10035
ENCODING 1057
SWIDTH 540 0
DWIDTH 9 0
BBX 9 18 0 -4
BITMAP
0000
0000
0000
0000
1E00
3300
6000
6000
6000
6000
6000
6000
3300
1E00
0000
0000
0000
0000
ENDCHAR
STARTCHAR afii10036
ENCODING 1058
SWIDTH 540 0
DWIDTH 9 0
BBX 9 18 0 -4
BITMAP
0000
0000
0000
0000
7E00
1800
1800
1800
1800
1800
1800
1800
1800
1800
0000
0000
0000
0000
ENDCHAR
STARTCHAR afii10037
ENCODING 1059
SWIDTH 540 0
DWIDTH 9 0
BBX 9 18 0 -4
BITMAP
0000
0000
0000
0000
6300
6300
3600
3600
3600
1C00
1C00
1800
D800
7000
0000
0000
0000
0000
ENDCHAR
STARTCHAR afii10038
ENCODING 1060
SWIDTH 540 0
DWIDTH 9 0
BBX 9 18 0 -4
BITMAP
0000
0000
0000
0000
1800
7E00
DB00
DB00
DB00
DB00
DB00
DB00
7E00
1800
0000
0000
0000
0000
ENDCHAR
STARTCHAR afii10039
ENCODING 1061
SWIDTH 540 0
DWIDTH 9 0
BBX 9 18 0 -4
BITMAP
0000
0000
0000
0000
C300
C300
6600
3C00
1800
1800
3C00
6600
C300
C300
0000
0000
0000
0000
ENDCHAR
STARTCHAR afii10040
ENCODING 1062
SWIDTH 540 0
DWIDTH 9 0
BBX 9 18 0 -4
BITMAP
0000
0000
0000
0000
6600
6600
6600
6600
6600
6600
6600
6600
6600
7F00
0300
0300
0000
0000
ENDCHAR
STARTCHAR afii10041
ENCODING 1063
SWIDTH 540 0
DWIDTH 9 0
BBX 9 18 0 -4
BITMAP
0000
0000
0000
0000
6300
6300
6300
6300
3F00
0300
0300
0300
0300
0300
0000
0000
0000
0000
ENDCHAR
STARTCHAR afii10042
ENCODING 1064
SWIDTH 540 0
DWIDTH 9 0
BBX 9 18 0 -4
BITMAP
0000
0000
0000
0000
DB00
DB00
DB00
DB00
DB00
DB00
DB00
DB00
DB00
FF00
0000
0000
0000
0000
ENDCHAR
STARTCHAR afii10043
ENCODING 1065
SWIDTH 540 0
DWIDTH 9 0
BBX 9 18 0 -4
BITMAP
0000
0000
0000
0000
DB00
DB00
DB00
DB00
DB00
DB00
DB00
DB00
DB00
FF80
0180
0180
0000
0000
ENDCHAR
STARTCHAR afii10044
ENCODING 1066
SWIDTH 540 0
DWIDTH 9 0
BBX 9 18 0 -4
BITMAP
0000
0000
0000
0000
F000
3000
3000
3000
3C00
3600
3300
3300
3600
3C00
0000
0000
0000
0000
ENDCHAR
STARTCHAR afii10045
ENCODING 1067
SWIDTH 540 0
DWIDTH 9 0
BBX 9 18 0 -4
BITMAP
0000
0000
0000
0000
C300
C300
C300
C300
F300
DB00
DB00
DB00
DB00
F300
0000
0000
0000
0000
ENDCHAR
STARTCHAR afii10046
ENCODING 1068
SWIDTH 540 0
DWIDTH 9 0
BBX 9 18 0 -4
BITMAP
0000
0000
0000
0000
C000
C000
C000
C000
FC00
C600
C300
C300
C600
FC00
0000
0000
0000
0000
ENDCHAR
STARTCHAR afii10047
ENCODING 1069
SWIDTH 540 0
DWIDTH 9 0
BBX 9 18 0 -4
BITMAP
0000
0000
0000
0000
3C00
6600
0300
0300
0F00
0300
0300
0300
6600
3C00
0000
0000
0000
0000
ENDCHAR
STARTCHAR afii10048
ENCODING 1070
SWIDTH 540 0
DWIDTH 9 0
BBX 9 18 0 -4
BITMAP
0000
0000
0000
0000
CE00
DB00
DB00
DB00
FB00
DB00
DB00
DB00
DB00
CE00
0000
0000
0000
0000
ENDCHAR
STARTCHAR afii10049
ENCODING 1071
SWIDTH 540 0
DWIDTH 9 0
BBX 9 18 0 -4
BITMAP
0000
0000
0000
0000
3F00
6300
6300
6300
6300
3F00
1B00
3300
6300
6300
0000
0000
0000
0000
ENDCHAR
STARTCHAR afii10065
ENCODING 1072
SWIDTH 540 0
DWIDTH 9 0
BBX 9 18 0 -4
BITMAP
0000
0000
0000
0000
0000
0000
0000
3E00
0300
0300
3F00
6300
6300
3F00
0000
0000
0000
0000
ENDCHAR
STARTCHAR afii10066
ENCODING 1073
SWIDTH 540 0
DWIDTH 9 0
BBX 9 18 0 -4
BITMAP
0000
0000
0000
0000
0600
3C00
6000
7E00
6300
6300
6300
6300
6300
3E00
0000
0000
0000
0000
ENDCHAR
STARTCHAR afii10067
ENCODING 1074
SWIDTH 540 0
DWIDTH 9 0
BBX 9 18 0 -4
BITMAP
0000
0000
0000
0000
0000
0000
0000
7E00
6300
6300
7E00
6300
6300
7E00
0000
0000
0000
0000
ENDCHAR
STARTCHAR afii10068
ENCODING 1075
SWIDTH 540 0
DWIDTH 9 0
BBX 9 18 0 -4
BITMAP
0000
0000
0000
0000
0000
0000
0000
7F00
6000
6000
6000
6000
6000
6000
0000
0000
0000
0000
ENDCHAR
STARTCHAR afii10069
ENCODING 1076
SWIDTH 540 0
DWIDTH 9 0
BBX 9 18 0 -4
BITMAP
0000
0000
0000
0000
0000
0000
0000
1E00
1600
3600
3600
6600
6600
7F00
4100
0000
0000
0000
ENDCHAR
STARTCHAR afii10070
ENCODING 1077
SWIDTH 540 0
DWIDTH 9 0
BBX 9 18 0 -4
BITMAP
0000
0000
0000
0000
0000
0000
0000
3C00
6600
C300
FF00
C000
6300
3E00
0000
0000
0000
0000
ENDCHAR
STARTCHAR afii10072
ENCODING 1078
SWIDTH 540 0
DWIDTH 9 0
BBX 9 18 0 -4
BITMAP
0000
0000
0000
0000
0000
0000
0000
DB00
DB00
7E00
3C00
7E00
DB00
DB00
0000
0000
0000
0000
ENDCHAR
STARTCHAR afii10073
ENCODING 1079
SWIDTH 540 0
DWIDTH 9 0
BBX 9 18 0 -4
BITMAP
0000
0000
0000
0000
0000
0000
0000
3E00
6300
0300
0E00
0300
6300
3E00
0000
0000
0000
0000
ENDCHAR
STARTCHAR afii10074
ENCODING 1080
SWIDTH 540 0
DWIDTH 9 0
BBX 9 18 0 -4
BITMAP
0000
0000
0000
0000
0000
0000
0000
6300
6300
6700
6B00
7300
6300
6300
0000
0000
0000
0000
ENDCHAR
STARTCHAR afii10075
ENCODING 1081
SWIDTH 540 0
DWIDTH 9 0
BBX 9 18 0 -4
BITMAP
0000
0000
0000
0000
3600
1C00
0000
6300
6300
6700
6B00
7300
6300
6300
0000
0000
0000
0000
ENDCHAR
STARTCHAR afii10076
ENCODING 1082
SWIDTH 540 0
DWIDTH 9 0
BBX 9 18 0 -4
BITMAP
0000
0000
0000
0000
0000
0000
0000
6300
6600
6C00
7800
6C00
6600
6300
0000
0000
0000
0000
ENDCHAR
STARTCHAR afii10077
ENCODING 1083
SWIDTH 540 0
DWIDTH 9 0
BBX 9 18 0 -4
BITMAP
0000
0000
0000
0000
0000
0000
0000
0F00
1B00
1B00
3300
3300
3300
6300
0000
0000
0000
0000
ENDCHAR
STARTCHAR afii10078
ENCODING 1084
SWIDTH 540 0
DWIDTH 9 0
BBX 9 18 0 -4
BITMAP
0000
0000
0000
0000
0000
0000
0000
6300
7700
7F00
6B00
6300
6300
6300
0000
0000
0000
0000
ENDCHAR
STARTCHAR afii10079
ENCODING 1085
SWIDTH 540 0
DWIDTH 9 0
BBX 9 18 0 -4
BITMAP
0000
0000
0000
0000
0000
0000
0000
6300
6300
6300
7F00
6300
6300
6300
0000
0000
0000
0000
ENDCHAR
STARTCHAR afii10080
ENCODING 1086
SWIDTH 540 0
DWIDTH 9 0
BBX 9 18 0 -4
BITMAP
0000
0000
0000
0000
0000
0000
0000
3E00
6300
6300
6300
6300
6300
3E00
0000
0000
0000
0000
ENDCHAR
STARTCHAR afii10081
ENCODING 1087
SWIDTH 540 0
DWIDTH 9 0
BBX 9 18 0 -4
BITMAP
0000
0000
0000
0000
0000
0000
0000
7F00
6300
6300
6300
6300
6300
6300
0000
0000
0000
0000
ENDCHAR
STARTCHAR afii10082
ENCODING 1088
SWIDTH 540 0
DWIDTH 9 0
BBX 9 18 0 -4
BITMAP
0000
0000
0000
0000
0000
0000
0000
7E00
6300
6300
6300
6300
6300
7E00
6000
6000
6000
0000
ENDCHAR
STARTCHAR afii10083
ENCODING 1089
SWIDTH 540 0
DWIDTH 9 0
BBX 9 18 0 -4
BITMAP
0000
0000
0000
0000
0000
0000
0000
3E00
6300
6000
6000
6000
6300
3E00
0000
0000
0000
0000
ENDCHAR
STARTCHAR afii10084
ENCODING 1090
SWIDTH 540 0
DWIDTH 9 0
BBX 9 18 0 -4
BITMAP
0000
0000
0000
0000
0000
0000
0000
FF00
1800
1800
1800
1800
1800
1800
0000
0000
0000
0000
ENDCHAR
STARTCHAR afii10085
ENCODING 1091
SWIDTH 540 0
DWIDTH 9 0
BBX 9 18 0 -4
BITMAP
0000
0000
0000
0000
0000
0000
0000
6300
6300
6300
6300
6300
6300
3F00
0300
4300
3E00
0000
ENDCHAR
STARTCHAR afii10086
ENCODING 1092
SWIDTH 540 0
DWIDTH 9 0
BBX 9 18 0 -4
BITMAP
0000
0000
0000
0000
1800
1800
1800
7E00
DB00
DB00
DB00
DB00
DB00
7E00
1800
1800
1800
0000
ENDCHAR
STARTCHAR afii10087
ENCODING 1093
SWIDTH 540 0
DWIDTH 9 0
BBX 9 18 0 -4
BITMAP
0000
0000
0000
0000
0000
0000
0000
C300
6600
3C00
1800
3C00
6600
C300
0000
0000
0000
0000
ENDCHAR
STARTCHAR afii10088
ENCODING 1094
SWIDTH 540 0
DWIDTH 9 0
BBX 9 18 0 -4
BITMAP
0000
0000
0000
0000
0000
0000
0000
6300
6300
6300
6300
6300
6300
7F00
0300
0300
0000
0000
ENDCHAR
STARTCHAR afii10089
ENCODING 1095
SWIDTH 540 0
DWIDTH 9 0
BBX 9 18 0 -4
BITMAP
0000
0000
0000
0000
0000
0000
0000
6300
6300
6300
3F00
0300
0300
0300
0000
0000
0000
0000
ENDCHAR
STARTCHAR afii10090
ENCODING 1096
SWIDTH 540 0
DWIDTH 9 0
BBX 9 18 0 -4
BITMAP
0000
0000
0000
0000
0000
0000
0000
DB00
DB00
DB00
DB00
DB00
DB00
FF00
0000
0000
0000
0000
ENDCHAR
STARTCHAR afii10091
ENCODING 1097
SWIDTH 540 0
DWIDTH 9 0
BBX 9 18 0 -4
BITMAP
0000
0000
0000
0000
0000
0000
0000
DB00
DB00
DB00
DB00
DB00
DB00
FF00
0300
0300
0000
0000
ENDCHAR
STARTCHAR afii10092
ENCODING 1098
SWIDTH 540 0
DWIDTH 9 0
BBX 9 18 0 -4
BITMAP
0000
0000
0000
0000
0000
0000
0000
F000
3000
3000
3E00
3300
3300
3E00
0000
0000
0000
0000
ENDCHAR
STARTCHAR afii10093
ENCODING 1099
SWIDTH 540 0
DWIDTH 9 0
BBX 9 18 0 -4
BITMAP
0000
0000
0000
0000
0000
0000
0000
C300
C300
C300
F300
DB00
DB00
F300
0000
0000
0000
0000
ENDCHAR
STARTCHAR afii10094
ENCODING 1100
SWIDTH 540 0
DWIDTH 9 0
BBX 9 18 0 -4
BITMAP
0000
0000
0000
0000
0000
0000
0000
6000
6000
6000
7E00
6300
6300
7E00
0000
0000
0000
0000
ENDCHAR
STARTCHAR afii10095
ENCODING 1101
SWIDTH 540 0
DWIDTH 9 0
BBX 9 18 0 -4
BITMAP
0000
0000
0000
0000
0000
0000
0000
3E00
6300
0300
0F00
0300
6300
3E00
0000
0000
0000
0000
ENDCHAR
STARTCHAR afii10096
ENCODING 1102
SWIDTH 540 0
DWIDTH 9 0
BBX 9 18 0 -4
BITMAP
0000
0000
0000
0000
0000
0000
0000
CE00
DB00
DB00
FB00
DB00
DB00
CE00
0000
0000
0000
0000
ENDCHAR
STARTCHAR afii10097
ENCODING 1103
SWIDTH 540 0
DWIDTH 9 0
BBX 9 18 0 -4
BITMAP
0000
0000
0000
0000
0000
0000
0000
3F00
6300
6300
3F00
1B00
3300
6300
0000
0000
0000
0000
ENDCHAR
STARTCHAR uni0450
ENCODING 1104
SWIDTH 540 0
DWIDTH 9 0
BBX 9 18 0 -4
BITMAP
0000
0000
0000
3000
1800
0C00
0000
3E00
6300
6300
7F00
6000
6300
3E00
0000
0000
0000
0000
ENDCHAR
STARTCHAR afii10071
ENCODING 1105
SWIDTH 540 0
DWIDTH 9 0
BBX 9 18 0 -4
BITMAP
0000
0000
0000
0000
3300
3300
0000
3E00
6300
6300
7F00
6000
6300
3E00
0000
0000
0000
0000
ENDCHAR
STARTCHAR afii10099
ENCODING 1106
SWIDTH 540 0
DWIDTH 9 0
BBX 9 18 0 -4
BITMAP
0000
0000
0000
0000
3000
7C00
3000
3E00
3300
3300
3300
3300
3300
3300
0300
0E00
0000
0000
ENDCHAR
STARTCHAR afii10100
ENCODING 1107
SWIDTH 540 0
DWIDTH 9 0
BBX 9 18 0 -4
BITMAP
0000
0000
0000
0600
0C00
1800
0000
7F00
6000
6000
6000
6000
6000
6000
0000
0000
0000
0000
ENDCHAR
STARTCHAR afii10101
ENCODING 1108
SWIDTH 540 0
DWIDTH 9 0
BBX 9 18 0 -4
BITMAP
0000
0000
0000
0000
0000
0000
0000
3E00
6100
6000
7800
6000
6100
3E00
0000
0000
0000
0000
ENDCHAR
STARTCHAR afii10102
ENCODING 1109
SWIDTH 540 0
DWIDTH 9 0
BBX 9 18 0 -4
BITMAP
0000
0000
0000
0000
0000
0000
0000
3E00
6100
6000
3E00
0300
4300
3E00
0000
0000
0000
0000
ENDCHAR
STARTCHAR afii10103
ENCODING 1110
SWIDTH 540 0
DWIDTH 9 0
BBX 9 18 0 -4
BITMAP
0000
0000
0000
0000
1800
1800
0000
3800
1800
1800
1800
1800
1800
7E00
0000
0000
0000
0000
ENDCHAR
STARTCHAR afii10104
ENCODING 1111
SWIDTH 540 0
DWIDTH 9 0
BBX 9 18 0 -4
BITMAP
0000
0000
0000
0000
6600
6600
0000
3800
1800
1800
1800
1800
1800
7E00
0000
0000
0000
0000
ENDCHAR
STARTCHAR afii10105
ENCODING 1112
SWIDTH 540 0
DWIDTH 9 0
BBX 9 18 0 -4
BITMAP
0000
0000
0000
0000
0600
0600
0000
0E00
0600
0600
0600
0600
0600
6600
6600
6600
3C00
0000
ENDCHAR
STARTCHAR afii10106
ENCODING 1113
SWIDTH 540 0
DWIDTH 9 0
BBX 9 18 0 -4
BITMAP
0000
0000
0000
0000
0000
0000
0000
3C00
6C00
6C00
6F00
6D80
ED80
CF00
0000
0000
0000
0000
ENDCHAR
STARTCHAR afii10107
ENCODING 1114
SWIDTH 540 0
DWIDTH 9 0
BBX 9 18 0 -4
BITMAP
0000
0000
0000
0000
0000
0000
0000
D800
D800
D800
FE00
DB00
DB00
DE00
0000
0000
0000
0000
ENDCHAR
STARTCHAR afii10108
ENCODING 1115
SWIDTH 540 0
DWIDTH 9 0
BBX 9 18 0 -4
BITMAP
0000
0000
0000
0000
3000
7C00
3000
3E00
3300
3300
3300
3300
3300
3300
0000
0000
0000
0000
ENDCHAR
STARTCHAR afii10109
ENCODING 1116
SWIDTH 540 0
DWIDTH 9 0
BBX 9 18 0 -4
BITMAP
0000
0000
0000
0600
0C00
1800
0000
6300
6600
6C00
7800
6C00
6600
6300
0000
0000
0000
0000
ENDCHAR
STARTCHAR uni045D
ENCODING 1117
SWIDTH 540 0
DWIDTH 9 0
BBX 9 18 0 -4
BITMAP
0000
0000
0000
3000
1800
0C00
0000
6300
6300
6700
6B00
7300
6300
6300
0000
0000
0000
0000
ENDCHAR
STARTCHAR afii10110
ENCODING 1118
SWIDTH 540 0
DWIDTH 9 0
BBX 9 18 0 -4
BITMAP
0000
0000
0000
0000
3600
1C00
0000
6300
6300
6300
6300
6300
6300
3F00
0300
6300
3E00
0000
ENDCHAR
STARTCHAR afii10193
ENCODING 1119
SWIDTH 540 0
DWIDTH 9 0
BBX 9 18 0 -4
BITMAP
0000
0000
0000
0000
0000
0000
0000
6600
6600
6600
6600
6600
6600
7E00
1800
1800
0000
0000
ENDCHAR
STARTCHAR afii10050
ENCODING 1168
SWIDTH 540 0
DWIDTH 9 0
BBX 9 18 0 -4
BITMAP
0000
0000
0600
0600
7E00
6000
6000
6000
6000
6000
6000
6000
6000
6000
0000
0000
0000
0000
ENDCHAR
STARTCHAR afii10098
ENCODING 1169
SWIDTH 540 0
DWIDTH 9 0
BBX 9 18 0 -4
BITMAP
0000
0000
0000
0000
0000
0600
0600
7E00
6000
6000
6000
6000
6000
6000
0000
0000
0000
0000
ENDCHAR
STARTCHAR afii57664
ENCODING 1488
SWIDTH 540 0
DWIDTH 9 0
BBX 9 18 0 -4
BITMAP
0000
0000
0000
0000
0000
C400
E700
7700
3E00
FE00
CE00
6700
7300
F300
0000
0000
0000
0000
ENDCHAR
STARTCHAR afii57665
ENCODING 1489
SWIDTH 540 0
DWIDTH 9 0
BBX 9 18 0 -4
BITMAP
0000
0000
0000
0000
0000
0000
8000
FC00
7E00
0600
0600
0600
7F00
FE00
0000
0000
0000
0000
ENDCHAR
STARTCHAR afii57666
ENCODING 1490
SWIDTH 540 0
DWIDTH 9 0
BBX 9 18 0 -4
BITMAP
0000
0000
0000
0000
0000
0000
6000
3800
1C00
0C00
0C00
0E00
1F00
3B00
0000
0000
0000
0000
ENDCHAR
STARTCHAR afii57667
ENCODING 1491
SWIDTH 540 0
DWIDTH 9 0
BBX 9 18 0 -4
BITMAP
0000
0000
0000
0000
0000
0000
8000
FF00
7F00
0600
0600
0600
0600
0600
0000
0000
0000
0000
ENDCHAR
STARTCHAR afii57668
ENCODING 1492
SWIDTH 540 0
DWIDTH 9 0
BBX 9 18 0 -4
BITMAP
0000
0000
0000
0000
0000
0000
C000
FF00
7F00
0600
6600
6600
6600
C600
0000
0000
0000
0000
ENDCHAR
STARTCHAR afii57669
ENCODING 1493
SWIDTH 540 0
DWIDTH 9 0
BBX 9 18 0 -4
BITMAP
0000
0000
0000
0000
0000
0000
6000
7800
1C00
0C00
0C00
0C00
0C00
0C00
0000
0000
0000
0000
ENDCHAR
STARTCHAR afii57670
ENCODING 1494
SWIDTH 540 0
DWIDTH 9 0
BBX 9 18 0 -4
BITMAP
0000
0000
0000
0000
0000
0000
6000
7C00
3E00
1800
1800
1800
1800
1800
0000
0000
0000
0000
ENDCHAR
STARTCHAR afii57671
ENCODING 1495
SWIDTH 540 0
DWIDTH 9 0
BBX 9 18 0 -4
BITMAP
0000
0000
0000
0000
0000
0000
C000
FF00
7F00
6600
6600
6600
6600
C600
0000
0000
0000
0000
ENDCHAR
STARTCHAR afii57672
ENCODING 1496
SWIDTH 540 0
DWIDTH 9 0
BBX 9 18 0 -4
BITMAP
0000
0000
0000
0000
0000
0000
C000
E300
7700
6700
6300
6300
7F00
7E00
0000
0000
0000
0000
ENDCHAR
STARTCHAR afii57673
ENCODING 1497
SWIDTH 540 0
DWIDTH 9 0
BBX 9 18 0 -4
BITMAP
0000
0000
0000
0000
0000
0000
6000
7800
3C00
0C00
0C00
0000
0000
0000
0000
0000
0000
0000
ENDCHAR
STARTCHAR afii57674
ENCODING 1498
SWIDTH 540 0
DWIDTH 9 0
BBX 9 18 0 -4
BITMAP
0000
0000
0000
0000
0000
0000
8000
FE00
7F00
0600
0C00
0C00
0C00
0C00
0C00
0C00
0C00
0000
ENDCHAR
STARTCHAR afii57675
ENCODING 1499
SWIDTH 540 0
DWIDTH 9 0
BBX 9 18 0 -4
BITMAP
0000
0000
0000
0000
0000
0000
C000
FE00
7F00
0300
0300
0700
7E00
FC00
0000
0000
0000
0000
ENDCHAR
STARTCHAR afii57676
ENCODING 1500
SWIDTH 540 0
DWIDTH 9 0
BBX 9 18 0 -4
BITMAP
0000
0000
0000
0000
C000
6000
6000
7F00
3F00
0300
0300
0600
0C00
1800
0000
0000
0000
0000
ENDCHAR
STARTCHAR afii57677
ENCODING 1501
SWIDTH 540 0
DWIDTH 9 0
BBX 9 18 0 -4
BITMAP
0000
0000
0000
0000
0000
0000
C000
FE00
7F00
C300
C300
C300
FF00
FF00
0000
0000
0000
0000
ENDCHAR
STARTCHAR afii57678
ENCODING 1502
SWIDTH 540 0
DWIDTH 9 0
BBX 9 18 0 -4
BITMAP
0000
0000
0000
0000
0000
0000
C000
DE00
7F00
6300
C300
C300
DF00
BE00
0000
0000
0000
0000
ENDCHAR
STARTCHAR afii57679
ENCODING 1503
SWIDTH 540 0
DWIDTH 9 0
BBX 9 18 0 -4
BITMAP
0000
0000
0000
0000
0000
3000
3800
1C00
0C00
1800
1800
1800
1800
1800
1800
1800
1800
0000
ENDCHAR
STARTCHAR afii57680
ENCODING 1504
SWIDTH 540 0
DWIDTH 9 0
BBX 9 18 0 -4
BITMAP
0000
0000
0000
0000
0000
0000
3000
3800
1C00
0C00
0C00
0C00
1C00
3C00
0000
0000
0000
0000
ENDCHAR
STARTCHAR afii57681
ENCODING 1505
SWIDTH 540 0
DWIDTH 9 0
BBX 9 18 0 -4
BITMAP
0000
0000
0000
0000
0000
0000
C000
FE00
7F00
6300
6300
6300
7E00
3C00
0000
0000
0000
0000
ENDCHAR
STARTCHAR afii57682
ENCODING 1506
SWIDTH 540 0
DWIDTH 9 0
BBX 9 18 0 -4
BITMAP
0000
0000
0000
0000
0000
0000
C600
E700
7300
6300
3300
1B00
7E00
FC00
0000
0000
0000
0000
ENDCHAR
STARTCHAR afii57683
ENCODING 1507
SWIDTH 540 0
DWIDTH 9 0
BBX 9 18 0 -4
BITMAP
0000
0000
0000
0000
0000
0000
C000
FE00
7F00
C600
EC00
EC00
0C00
0C00
0C00
0C00
0C00
0000
ENDCHAR
STARTCHAR afii57684
ENCODING 1508
SWIDTH 540 0
DWIDTH 9 0
BBX 9 18 0 -4
BITMAP
0000
0000
0000
0000
0000
0000
C000
FF00
7F00
6300
7300
0700
7E00
FC00
0000
0000
0000
0000
ENDCHAR
STARTCHAR afii57685
ENCODING 1509
SWIDTH 540 0
DWIDTH 9 0
BBX 9 18 0 -4
BITMAP
0000
0000
0000
0000
0000
0000
C600
F700
7300
3600
3C00
3800
3000
3000
3000
3000
3000
0000
ENDCHAR
STARTCHAR afii57686
ENCODING 1510
SWIDTH 540 0
DWIDTH 9 0
BBX 9 18 0 -4
BITMAP
0000
0000
0000
0000
0000
0000
C600
E700
6700
3C00
1800
0600
7F00
FE00
0000
0000
0000
0000
ENDCHAR
STARTCHAR afii57687
ENCODING 1511
SWIDTH 540 0
DWIDTH 9 0
BBX 9 18 0 -4
BITMAP
0000
0000
0000
0000
0000
0000
C000
FE00
7F00
0300
6300
6300
6600
6C00
6000
6000
6000
0000
ENDCHAR
STARTCHAR afii57688
ENCODING 1512
SWIDTH 540 0
DWIDTH 9 0
BBX 9 18 0 -4
BITMAP
0000
0000
0000
0000
0000
0000
C000
FE00
7F00
0300
0300
0300
0300
0300
0000
0000
0000
0000
ENDCHAR
STARTCHAR afii57689
ENCODING 1513
SWIDTH 540 0
DWIDTH 9 0
BBX 9 18 0 -4
BITMAP
0000
0000
0000
0000
0000
0000
DB00
DB00
DB00
DB00
DB00
B300
FE00
7C00
0000
0000
0000
0000
ENDCHAR
STARTCHAR afii57690
ENCODING 1514
SWIDTH 540 0
DWIDTH 9 0
BBX 9 18 0 -4
BITMAP
0000
0000
0000
0000
0000
0000
C000
FE00
7F00
3300
6300
6300
6300
E300
0000
0000
0000
0000
ENDCHAR
STARTCHAR uni0E01
ENCODING 3585
SWIDTH 540 0
DWIDTH 9 0
BBX 9 18 0 -4
BITMAP
0000
0000
0000
0000
0000
0000
0000
7E00
C300
E300
6300
6300
6300
6300
0000
0000
0000
0000
ENDCHAR
STARTCHAR uni0E02
ENCODING 3586
SWIDTH 540 0
DWIDTH 9 0
BBX 9 18 0 -4
BITMAP
0000
0000
0000
0000
0000
0000
0000
7300
DB00
BB00
5B00
1B00
1B00
0E00
0000
0000
0000
0000
ENDCHAR
STARTCHAR uni0E03
ENCODING 3587
SWIDTH 540 0
DWIDTH 9 0
BBX 9 18 0 -4
BITMAP
0000
0000
0000
0000
0000
0000
0000
B300
DB00
9B00
5B00
1B00
1B00
0E00
0000
0000
0000
0000
ENDCHAR
STARTCHAR uni0E04
ENCODING 3588
SWIDTH 540 0
DWIDTH 9 0
BBX 9 18 0 -4
BITMAP
0000
0000
0000
0000
0000
0000
0000
7E00
C300
D300
EB00
5300
C300
C300
0000
0000
0000
0000
ENDCHAR
STARTCHAR uni0E05
ENCODING 3589
SWIDTH 540 0
DWIDTH 9 0
BBX 9 18 0 -4
BITMAP
0000
0000
0000
0000
0000
0000
0000
6E00
D300
D300
EB00
5300
C300
C300
0000
0000
0000
0000
ENDCHAR
STARTCHAR uni0E06
ENCODING 3590
SWIDTH 540 0
DWIDTH 9 0
BBX 9 18 0 -4
BITMAP
0000
0000
0000
0000
0000
0000
0000
B300
F300
B300
3300
7300
BB00
6600
0000
0000
0000
0000
ENDCHAR
STARTCHAR uni0E07
ENCODING 3591
SWIDTH 540 0
DWIDTH 9 0
BBX 9 18 0 -4
BITMAP
0000
0000
0000
0000
0000
0000
0000
0600
0B00
0700
6300
3300
1B00
0E00
0000
0000
0000
0000
ENDCHAR
STARTCHAR uni0E08
ENCODING 3592
SWIDTH 540 0
DWIDTH 9 0
BBX 9 18 0 -4
BITMAP
0000
0000
0000
0000
0000
0000
0000
7E00
8300
3300
5B00
3B00
1B00
0E00
0000
0000
0000
0000
ENDCHAR
STARTCHAR uni0E09
ENCODING 3593
SWIDTH 540 0
DWIDTH 9 0
BBX 9 18 0 -4
BITMAP
0000
0000
0000
0000
0000
0000
0000
7C00
8600
6600
B600
7600
3D00
3200
0000
0000
0000
0000
ENDCHAR
STARTCHAR uni0E0A
ENCODING 3594
SWIDTH 540 0
DWIDTH 9 0
BBX 9 18 0 -4
BITMAP
0000
0000
0000
0000
0000
0000
0300
7300
DE00
BB00
5B00
1B00
1B00
0E00
0000
0000
0000
0000
ENDCHAR
STARTCHAR uni0E0B
ENCODING 3595
SWIDTH 540 0
DWIDTH 9 0
BBX 9 18 0 -4
BITMAP
0000
0000
0000
0000
0000
0000
0300
B300
DE00
9B00
5B00
1B00
1B00
0E00
0000
0000
0000
0000
ENDCHAR
STARTCHAR uni0E0C
ENCODING 3596
SWIDTH 540 0
DWIDTH 9 0
BBX 9 18 0 -4
BITMAP
0000
0000
0000
0000
0000
0000
0000
7300
DB00
7B00
DB00
DB00
AF00
5B00
0000
0000
0000
0000
ENDCHAR
STARTCHAR uni0E0D
ENCODING 3597
SWIDTH 540 0
DWIDTH 9 0
BBX 9 18 0 -4
BITMAP
0000
0000
0000
0000
0000
0000
0000
7300
DB00
7B00
DB00
DB00
BB00
4E00
0900
0E00
0000
0000
ENDCHAR
STARTCHAR uni0E0E
ENCODING 3598
SWIDTH 540 0
DWIDTH 9 0
BBX 9 18 0 -4
BITMAP
0000
0000
0000
0000
0000
0000
0000
3F00
6180
7180
3180
7180
B180
6980
3D80
4B80
3000
0000
ENDCHAR
STARTCHAR uni0E0F
ENCODING 3599
SWIDTH 540 0
DWIDTH 9 0
BBX 9 18 0 -4
BITMAP
0000
0000
0000
0000
0000
0000
0000
3F00
6180
7180
3180
7180
B180
5180
3580
5B80
2000
0000
ENDCHAR
STARTCHAR uni0E10
ENCODING 3600
SWIDTH 540 0
DWIDTH 9 0
BBX 9 18 0 -4
BITMAP
0000
0000
0000
0000
0000
0000
0000
7D00
C200
FE00
3300
5B00
3B00
0E00
6700
AB00
5700
0000
ENDCHAR
STARTCHAR uni0E11
ENCODING 3601
SWIDTH 540 0
DWIDTH 9 0
BBX 9 18 0 -4
BITMAP
0000
0000
0000
0000
0000
0000
0000
B300
F580
B580
3980
3980
3180
3180
0000
0000
0000
0000
ENDCHAR
STARTCHAR uni0E12
ENCODING 3602
SWIDTH 540 0
DWIDTH 9 0
BBX 9 18 0 -4
BITMAP
0000
0000
0000
0000
0000
0000
0000
5300
AB00
8B00
EB00
AB00
DF00
9B00
0000
0000
0000
0000
ENDCHAR
STARTCHAR uni0E13
ENCODING 3603
SWIDTH 540 0
DWIDTH 9 0
BBX 9 18 0 -4
BITMAP
0000
0000
0000
0000
0000
0000
0000
6600
D600
7600
D600
D600
B500
5A00
0000
0000
0000
0000
ENDCHAR
STARTCHAR uni0E14
ENCODING 3604
SWIDTH 540 0
DWIDTH 9 0
BBX 9 18 0 -4
BITMAP
0000
0000
0000
0000
0000
0000
0000
7E00
C300
D300
EB00
D300
E300
4300
0000
0000
0000
0000
ENDCHAR
STARTCHAR uni0E15
ENCODING 3605
SWIDTH 540 0
DWIDTH 9 0
BBX 9 18 0 -4
BITMAP
0000
0000
0000
0000
0000
0000
0000
6E00
D300
D300
EB00
D300
E300
4300
0000
0000
0000
0000
ENDCHAR
STARTCHAR uni0E16
ENCODING 3606
SWIDTH 540 0
DWIDTH 9 0
BBX 9 18 0 -4
BITMAP
0000
0000
0000
0000
0000
0000
0000
7E00
C300
E300
6300
6300
5300
2300
0000
0000
0000
0000
ENDCHAR
STARTCHAR uni0E17
ENCODING 3607
SWIDTH 540 0
DWIDTH 9 0
BBX 9 18 0 -4
BITMAP
0000
0000
0000
0000
0000
0000
0000
6300
B580
7580
3980
3980
3180
3180
0000
0000
0000
0000
ENDCHAR
STARTCHAR uni0E18
ENCODING 3608
SWIDTH 540 0
DWIDTH 9 0
BBX 9 18 0 -4
BITMAP
0000
0000
0000
0000
0000
0000
0000
7D00
C200
FE00
6300
6300
6300
3E00
0000
0000
0000
0000
ENDCHAR
STARTCHAR uni0E19
ENCODING 3609
SWIDTH 540 0
DWIDTH 9 0
BBX 9 18 0 -4
BITMAP
0000
0000
0000
0000
0000
0000
0000
6300
B300
7300
3300
3700
3A80
3100
0000
0000
0000
0000
ENDCHAR
STARTCHAR uni0E1A
ENCODING 3610
SWIDTH 540 0
DWIDTH 9 0
BBX 9 18 0 -4
BITMAP
0000
0000
0000
0000
0000
0000
0000
6180
B180
7180
3180
3180
3180
1F00
0000
0000
0000
0000
ENDCHAR
STARTCHAR uni0E1B
ENCODING 3611
SWIDTH 540 0
DWIDTH 9 0
BBX 9 18 0 -4
BITMAP
0000
0000
0000
0000
0000
0180
0180
6180
B180
7180
3180
3180
3180
1F00
0000
0000
0000
0000
ENDCHAR
STARTCHAR uni0E1C
ENCODING 3612
SWIDTH 540 0
DWIDTH 9 0
BBX 9 18 0 -4
BITMAP
0000
0000
0000
0000
0000
0000
0000
4300
A300
C300
C300
DB00
DB00
6600
0000
0000
0000
0000
ENDCHAR
STARTCHAR uni0E1D
ENCODING 3613
SWIDTH 540 0
DWIDTH 9 0
BBX 9 18 0 -4
BITMAP
0000
0000
0000
0000
0000
0300
0300
4300
A300
C300
C300
DB00
DB00
6600
0000
0000
0000
0000
ENDCHAR
STARTCHAR uni0E1E
ENCODING 3614
SWIDTH 540 0
DWIDTH 9 0
BBX 9 18 0 -4
BITMAP
0000
0000
0000
0000
0000
0000
0000
6180
B180
7580
3580
3B80
3B80
3180
0000
0000
0000
0000
ENDCHAR
STARTCHAR uni0E1F
ENCODING 3615
SWIDTH 540 0
DWIDTH 9 0
BBX 9 18 0 -4
BITMAP
0000
0000
0000
0000
0000
0180
0180
6180
B180
7580
3580
3B80
3B80
3180
0000
0000
0000
0000
ENDCHAR
STARTCHAR uni0E20
ENCODING 3616
SWIDTH 540 0
DWIDTH 9 0
BBX 9 18 0 -4
BITMAP
0000
0000
0000
0000
0000
0000
0000
3F00
6180
7180
3180
7180
B180
6180
0000
0000
0000
0000
ENDCHAR
STARTCHAR uni0E21
ENCODING 3617
SWIDTH 540 0
DWIDTH 9 0
BBX 9 18 0 -4
BITMAP
0000
0000
0000
0000
0000
0000
0000
6300
B300
7300
3300
7300
BB00
6600
0000
0000
0000
0000
ENDCHAR
STARTCHAR uni0E22
ENCODING 3618
SWIDTH 540 0
DWIDTH 9 0
BBX 9 18 0 -4
BITMAP
0000
0000
0000
0000
0000
0000
0000
6300
D300
E300
7300
C300
C300
7E00
0000
0000
0000
0000
ENDCHAR
STARTCHAR uni0E23
ENCODING 3619
SWIDTH 540 0
DWIDTH 9 0
BBX 9 18 0 -4
BITMAP
0000
0000
0000
0000
0000
0000
0000
7D00
C200
FC00
0600
0E00
1600
0C00
0000
0000
0000
0000
ENDCHAR
STARTCHAR uni0E24
ENCODING 3620
SWIDTH 540 0
DWIDTH 9 0
BBX 9 18 0 -4
BITMAP
0000
0000
0000
0000
0000
0000
0000
7E00
C300
E300
6300
6300
5300
2300
0300
0300
0000
0000
ENDCHAR
STARTCHAR uni0E25
ENCODING 3621
SWIDTH 540 0
DWIDTH 9 0
BBX 9 18 0 -4
BITMAP
0000
0000
0000
0000
0000
0000
0000
7E00
8300
7300
DB00
CF00
A700
4300
0000
0000
0000
0000
ENDCHAR
STARTCHAR uni0E26
ENCODING 3622
SWIDTH 540 0
DWIDTH 9 0
BBX 9 18 0 -4
BITMAP
0000
0000
0000
0000
0000
0000
0000
3F00
6180
7180
3180
7180
B180
6180
0180
0180
0000
0000
ENDCHAR
STARTCHAR uni0E27
ENCODING 3623
SWIDTH 540 0
DWIDTH 9 0
BBX 9 18 0 -4
BITMAP
0000
0000
0000
0000
0000
0000
0000
7E00
8300
0300
0300
0700
0B00
0600
0000
0000
0000
0000
ENDCHAR
STARTCHAR uni0E28
ENCODING 3624
SWIDTH 540 0
DWIDTH 9 0
BBX 9 18 0 -4
BITMAP
0000
0000
0000
0000
0000
0000
0300
7E00
C300
D300
EB00
5300
C300
C300
0000
0000
0000
0000
ENDCHAR
STARTCHAR uni0E29
ENCODING 3625
SWIDTH 540 0
DWIDTH 9 0
BBX 9 18 0 -4
BITMAP
0000
0000
0000
0000
0000
0000
0000
6180
B580
7B80
3780
3180
3180
1F00
0000
0000
0000
0000
ENDCHAR
STARTCHAR uni0E2A
ENCODING 3626
SWIDTH 540 0
DWIDTH 9 0
BBX 9 18 0 -4
BITMAP
0000
0000
0000
0000
0000
0000
0300
7E00
8300
7300
DB00
CF00
A700
4300
0000
0000
0000
0000
ENDCHAR
STARTCHAR uni0E2B
ENCODING 3627
SWIDTH 540 0
DWIDTH 9 0
BBX 9 18 0 -4
BITMAP
0000
0000
0000
0000
0000
0000
0000
6100
B280
7300
3580
3980
3180
3180
0000
0000
0000
0000
ENDCHAR
STARTCHAR uni0E2C
ENCODING 3628
SWIDTH 540 0
DWIDTH 9 0
BBX 9 18 0 -4
BITMAP
0000
0000
0000
0000
0000
0000
0180
6700
B180
7580
3580
3B80
3B80
3180
0000
0000
0000
0000
ENDCHAR
STARTCHAR uni0E2D
ENCODING 3629
SWIDTH 540 0
DWIDTH 9 0
BBX 9 18 0 -4
BITMAP
0000
0000
0000
0000
0000
0000
0000
7E00
8300
4300
A300
C300
C300
7E00
0000
0000
0000
0000
ENDCHAR
STARTCHAR uni0E2E
ENCODING 3630
SWIDTH 540 0
DWIDTH 9 0
BBX 9 18 0 -4
BITMAP
0000
0000
0000
0000
0000
0000
0300
7F00
C600
7B00
4300
A300
C300
7E00
0000
0000
0000
0000
ENDCHAR
STARTCHAR uni0E2F
ENCODING 3631
SWIDTH 540 0
DWIDTH 9 0
BBX 9 18 0 -4
BITMAP
0000
0000
0000
0000
0000
0000
0000
4700
AB00
7300
0300
0300
0300
0300
0000
0000
0000
0000
ENDCHAR
STARTCHAR uni0E30
ENCODING 3632
SWIDTH 540 0
DWIDTH 9 0
BBX 9 18 0 -4
BITMAP
0000
0000
0000
0000
0000
0000
0000
4300
A600
7C00
0000
4300
A600
7C00
0000
0000
0000
0000
ENDCHAR
STARTCHAR uni0E31
ENCODING 3633
SWIDTH 540 0
DWIDTH 9 0
BBX 9 18 0 -4
BITMAP
0000
0000
0000
2300
5600
3C00
0000
0000
0000
0000
0000
0000
0000
0000
0000
0000
0000
0000
ENDCHAR
STARTCHAR uni0E32
ENCODING 3634
SWIDTH 540 0
DWIDTH 9 0
BBX 9 18 0 -4
BITMAP
0000
0000
0000
0000
0000
0000
0000
7E00
8300
0300
0300
0300
0300
0300
0000
0000
0000
0000
ENDCHAR
STARTCHAR uni0E33
ENCODING 3635
SWIDTH 540 0
DWIDTH 9 0
BBX 9 18 0 -4
BITMAP
0000
0000
0000
0000
0000
4000
A000
4F00
1180
0180
0180
0180
0180
0180
0000
0000
0000
0000
ENDCHAR
STARTCHAR uni0E34
ENCODING 3636
SWIDTH 540 0
DWIDTH 9 0
BBX 9 18 0 -4
BITMAP
0000
0000
0000
7C00
C600
FF00
0000
0000
0000
0000
0000
0000
0000
0000
0000
0000
0000
0000
ENDCHAR
STARTCHAR uni0E35
ENCODING 3637
SWIDTH 540 0
DWIDTH 9 0
BBX 9 18 0 -4
BITMAP
0000
0000
0000
7B00
C700
FF00
0000
0000
0000
0000
0000
0000
0000
0000
0000
0000
0000
0000
ENDCHAR
STARTCHAR uni0E36
ENCODING 3638
SWIDTH 540 0
DWIDTH 9 0
BBX 9 18 0 -4
BITMAP
0000
0000
0000
7200
CD00
FE00
0000
0000
0000
0000
0000
0000
0000
0000
0000
0000
0000
0000
ENDCHAR
STARTCHAR uni0E37
ENCODING 3639
SWIDTH 540 0
DWIDTH 9 0
BBX 9 18 0 -4
BITMAP
0000
0000
0000
7500
CD00
FF00
0000
0000
0000
0000
0000
0000
0000
0000
0000
0000
0000
0000
ENDCHAR
STARTCHAR uni0E38
ENCODING 3640
SWIDTH 540 0
DWIDTH 9 0
BBX 9 18 0 -4
BITMAP
0000
0000
0000
0000
0000
0000
0000
0000
0000
0000
0000
0000
0000
0000
0000
0600
0B00
0700
ENDCHAR
STARTCHAR uni0E39
ENCODING 3641
SWIDTH 540 0
DWIDTH 9 0
BBX 9 18 0 -4
BITMAP
0000
0000
0000
0000
0000
0000
0000
0000
0000
0000
0000
0000
0000
0000
0000
3B00
2B00
1F00
ENDCHAR
STARTCHAR uni0E3A
ENCODING 3642
SWIDTH 540 0
DWIDTH 9 0
BBX 9 18 0 -4
BITMAP
0000
0000
0000
0000
0000
0000
0000
0000
0000
0000
0000
0000
0000
0000
0000
0700
0700
0000
ENDCHAR
STARTCHAR uni0E3F
ENCODING 3647
SWIDTH 540 0
DWIDTH 9 0
BBX 9 18 0 -4
BITMAP
0000
0000
0000
0000
1800
FE00
DB00
DB00
FE00
DB00
DB00
DB00
FE00
1800
0000
0000
0000
0000
ENDCHAR
STARTCHAR uni0E40
ENCODING 3648
SWIDTH 540 0
DWIDTH 9 0
BBX 9 18 0 -4
BITMAP
0000
0000
0000
0000
0000
0000
0000
1800
1800
1800
1800
1800
1400
0800
0000
0000
0000
0000
ENDCHAR
STARTCHAR uni0E41
ENCODING 3649
SWIDTH 540 0
DWIDTH 9 0
BBX 9 18 0 -4
BITMAP
0000
0000
0000
0000
0000
0000
0000
6600
6600
6600
6600
6600
5500
2200
0000
0000
0000
0000
ENDCHAR
STARTCHAR uni0E42
ENCODING 3650
SWIDTH 540 0
DWIDTH 9 0
BBX 9 18 0 -4
BITMAP
0000
0000
0000
0000
0000
7D00
C200
F800
0C00
0C00
0C00
0C00
0A00
0400
0000
0000
0000
0000
ENDCHAR
STARTCHAR uni0E43
ENCODING 3651
SWIDTH 540 0
DWIDTH 9 0
BBX 9 18 0 -4
BITMAP
0000
0000
0000
0000
3C00
6600
5600
2600
0600
0600
0600
0600
0500
0200
0000
0000
0000
0000
ENDCHAR
STARTCHAR uni0E44
ENCODING 3652
SWIDTH 540 0
DWIDTH 9 0
BBX 9 18 0 -4
BITMAP
0000
0000
0000
0000
0000
8E00
5600
2600
0600
0600
0600
0600
0500
0200
0000
0000
0000
0000
ENDCHAR
STARTCHAR uni0E45
ENCODING 3653
SWIDTH 540 0
DWIDTH 9 0
BBX 9 18 0 -4
BITMAP
0000
0000
0000
0000
0000
0000
0000
7E00
8300
0300
0300
0300
0300
0300
0300
0300
0000
0000
ENDCHAR
STARTCHAR uni0E46
ENCODING 3654
SWIDTH 540 0
DWIDTH 9 0
BBX 9 18 0 -4
BITMAP
0000
0000
0000
0000
0000
0000
0000
6E00
D300
C300
A300
4300
0300
0300
0300
0300
0600
0000
ENDCHAR
STARTCHAR uni0E47
ENCODING 3655
SWIDTH 540 0
DWIDTH 9 0
BBX 9 18 0 -4
BITMAP
0000
0000
0100
3E00
6B00
3600
0000
0000
0000
0000
0000
0000
0000
0000
0000
0000
0000
0000
ENDCHAR
STARTCHAR uni0E48
ENCODING 3656
SWIDTH 540 0
DWIDTH 9 0
BBX 9 18 0 -4
BITMAP
0300
0300
0000
0000
0000
0000
0000
0000
0000
0000
0000
0000
0000
0000
0000
0000
0000
0000
ENDCHAR
STARTCHAR uni0E49
ENCODING 3657
SWIDTH 540 0
DWIDTH 9 0
BBX 9 18 0 -4
BITMAP
7300
3E00
0000
0000
0000
0000
0000
0000
0000
0000
0000
0000
0000
0000
0000
0000
0000
0000
ENDCHAR
STARTCHAR uni0E4A
ENCODING 3658
SWIDTH 540 0
DWIDTH 9 0
BBX 9 18 0 -4
BITMAP
6D00
5600
0000
0000
0000
0000
0000
0000
0000
0000
0000
0000
0000
0000
0000
0000
0000
0000
ENDCHAR
STARTCHAR uni0E4B
ENCODING 3659
SWIDTH 540 0
DWIDTH 9 0
BBX 9 18 0 -4
BITMAP
0600
0F00
0600
0000
0000
0000
0000
0000
0000
0000
0000
0000
0000
0000
0000
0000
0000
0000
ENDCHAR
STARTCHAR uni0E4C
ENCODING 3660
SWIDTH 540 0
DWIDTH 9 0
BBX 9 18 0 -4
BITMAP
3D00
3600
0000
0000
0000
0000
0000
0000
0000
0000
0000
0000
0000
0000
0000
0000
0000
0000
ENDCHAR
STARTCHAR uni0E4D
ENCODING 3661
SWIDTH 540 0
DWIDTH 9 0
BBX 9 18 0 -4
BITMAP
0000
0000
0000
0800
1400
0800
0000
0000
0000
0000
0000
0000
0000
0000
0000
0000
0000
0000
ENDCHAR
STARTCHAR uni0E4E
ENCODING 3662
SWIDTH 540 0
DWIDTH 9 0
BBX 9 18 0 -4
BITMAP
0000
0300
0600
0E00
1800
0E00
0000
0000
0000
0000
0000
0000
0000
0000
0000
0000
0000
0000
ENDCHAR
STARTCHAR uni0E4F
ENCODING 3663
SWIDTH 540 0
DWIDTH 9 0
BBX 9 18 0 -4
BITMAP
0000
0000
0000
0000
0000
0000
0000
1C00
2200
4900
5500
4900
2200
1C00
0000
0000
0000
0000
ENDCHAR
STARTCHAR uni0E50
ENCODING 3664
SWIDTH 540 0
DWIDTH 9 0
BBX 9 18 0 -4
BITMAP
0000
0000
0000
0000
0000
0000
0000
3C00
6600
C300
C300
C300
6600
3C00
0000
0000
0000
0000
ENDCHAR
STARTCHAR uni0E51
ENCODING 3665
SWIDTH 540 0
DWIDTH 9 0
BBX 9 18 0 -4
BITMAP
0000
0000
0000
0000
0000
0000
0000
3C00
6600
D300
EB00
7300
0600
3C00
0000
0000
0000
0000
ENDCHAR
STARTCHAR uni0E52
ENCODING 3666
SWIDTH 540 0
DWIDTH 9 0
BBX 9 18 0 -4
BITMAP
0000
0000
0000
0000
0000
0000
C000
6B00
7580
7980
7580
6980
6180
3F00
0000
0000
0000
0000
ENDCHAR
STARTCHAR uni0E53
ENCODING 3667
SWIDTH 540 0
DWIDTH 9 0
BBX 9 18 0 -4
BITMAP
0000
0000
0000
0000
0000
0000
0000
6E00
D300
D300
D300
C300
A300
4300
0000
0000
0000
0000
ENDCHAR
STARTCHAR uni0E54
ENCODING 3668
SWIDTH 540 0
DWIDTH 9 0
BBX 9 18 0 -4
BITMAP
0000
0000
0000
0000
0000
0000
0100
3E00
6000
C400
CA00
CC00
6600
3F00
0000
0000
0000
0000
ENDCHAR
STARTCHAR uni0E55
ENCODING 3669
SWIDTH 540 0
DWIDTH 9 0
BBX 9 18 0 -4
BITMAP
0000
0000
0000
0000
0000
0800
1500
3E00
6000
C400
CA00
CC00
6600
3F00
0000
0000
0000
0000
ENDCHAR
STARTCHAR uni0E56
ENCODING 3670
SWIDTH 540 0
DWIDTH 9 0
BBX 9 18 0 -4
BITMAP
0000
0000
0000
0000
0000
0000
8000
5E00
2300
0180
0180
1180
2B00
1E00
0000
0000
0000
0000
ENDCHAR
STARTCHAR uni0E57
ENCODING 3671
SWIDTH 540 0
DWIDTH 9 0
BBX 9 18 0 -4
BITMAP
0000
0000
0000
0000
0000
0180
0180
6980
D580
D580
D580
C580
A580
4700
0000
0000
0000
0000
ENDCHAR
STARTCHAR uni0E58
ENCODING 3672
SWIDTH 540 0
DWIDTH 9 0
BBX 9 18 0 -4
BITMAP
0000
0000
0000
0000
0000
0000
0100
3E00
6000
C600
CB00
C700
7300
2E00
0000
0000
0000
0000
ENDCHAR
STARTCHAR uni0E59
ENCODING 3673
SWIDTH 540 0
DWIDTH 9 0
BBX 9 18 0 -4
BITMAP
0000
0000
0000
0000
0000
0000
0100
0700
6A00
D800
CC00
EC00
5600
2600
0000
0000
0000
0000
ENDCHAR
STARTCHAR uni0E5A
ENCODING 3674
SWIDTH 540 0
DWIDTH 9 0
BBX 9 18 0 -4
BITMAP
0000
0000
0000
0000
0000
0000
0000
DF00
FB00
1B00
1B00
1B00
1B00
3600
0000
0000
0000
0000
ENDCHAR
STARTCHAR uni0E5B
ENCODING 3675
SWIDTH 540 0
DWIDTH 9 0
BBX 9 18 0 -4
BITMAP
0000
0000
0000
0000
0000
0000
0000
0000
4000
A000
AB00
AC00
9000
6000
0000
0000
0000
0000
ENDCHAR
STARTCHAR uni1E02
ENCODING 7682
SWIDTH 540 0
DWIDTH 9 0
BBX 9 18 0 -4
BITMAP
0000
1800
1800
0000
7E00
6300
6300
6300
7E00
6300
6300
6300
6300
7E00
0000
0000
0000
0000
ENDCHAR
STARTCHAR uni1E03
ENCODING 7683
SWIDTH 540 0
DWIDTH 9 0
BBX 9 18 0 -4
BITMAP
0000
1800
1800
0000
6000
6000
6000
7E00
6300
6300
6300
6300
6300
7E00
0000
0000
0000
0000
ENDCHAR
STARTCHAR uni1E0A
ENCODING 7690
SWIDTH 540 0
DWIDTH 9 0
BBX 9 18 0 -4
BITMAP
0000
1800
1800
0000
7C00
6600
6300
6300
6300
6300
6300
6300
6600
7C00
0000
0000
0000
0000
ENDCHAR
STARTCHAR uni1E0B
ENCODING 7691
SWIDTH 540 0
DWIDTH 9 0
BBX 9 18 0 -4
BITMAP
0000
1800
1800
0000
0300
0300
0300
3F00
6300
6300
6300
6300
6300
3F00
0000
0000
0000
0000
ENDCHAR
STARTCHAR uni1E1E
ENCODING 7710
SWIDTH 540 0
DWIDTH 9 0
BBX 9 18 0 -4
BITMAP
0000
1800
1800
0000
7F00
6000
6000
6000
7C00
6000
6000
6000
6000
6000
0000
0000
0000
0000
ENDCHAR
STARTCHAR uni1E1F
ENCODING 7711
SWIDTH 540 0
DWIDTH 9 0
BBX 9 18 0 -4
BITMAP
0000
1800
1800
0000
1C00
3600
3600
3000
3000
7800
3000
3000
3000
3000
0000
0000
0000
0000
ENDCHAR
STARTCHAR uni1E40
ENCODING 7744
SWIDTH 540 0
DWIDTH 9 0
BBX 9 18 0 -4
BITMAP
0000
1800
1800
0000
6300
7700
7F00
6B00
6300
6300
6300
6300
6300
6300
0000
0000
0000
0000
ENDCHAR
STARTCHAR uni1E41
ENCODING 7745
SWIDTH 540 0
DWIDTH 9 0
BBX 9 18 0 -4
BITMAP
0000
0000
0000
0000
1800
1800
0000
FE00
DB00
DB00
DB00
DB00
DB00
C300
0000
0000
0000
0000
ENDCHAR
STARTCHAR uni1E56
ENCODING 7766
SWIDTH 540 0
DWIDTH 9 0
BBX 9 18 0 -4
BITMAP
0000
1800
1800
0000
7C00
6600
6300
6300
6600
7C00
6000
6000
6000
6000
0000
0000
0000
0000
ENDCHAR
STARTCHAR uni1E57
ENCODING 7767
SWIDTH 540 0
DWIDTH 9 0
BBX 9 18 0 -4
BITMAP
0000
0000
0000
0000
1800
1800
0000
7C00
6600
6300
6300
6300
6600
7C00
6000
6000
6000
0000
ENDCHAR
STARTCHAR uni1E60
ENCODING 7776
SWIDTH 540 0
DWIDTH 9 0
BBX 9 18 0 -4
BITMAP
0000
1800
1800
0000
3E00
6300
6000
6000
3E00
0300
0300
0300
6300
3E00
0000
0000
0000
0000
ENDCHAR
STARTCHAR uni1E61
ENCODING 7777
SWIDTH 540 0
DWIDTH 9 0
BBX 9 18 0 -4
BITMAP
0000
0000
0000
0000
1800
1800
0000
3E00
6300
6000
3E00
0300
6300
3E00
0000
0000
0000
0000
ENDCHAR
STARTCHAR uni1E6A
ENCODING 7786
SWIDTH 540 0
DWIDTH 9 0
BBX 9 18 0 -4
BITMAP
0000
1800
1800
0000
7E00
1800
1800
1800
1800
1800
1800
1800
1800
1800
0000
0000
0000
0000
ENDCHAR
STARTCHAR uni1E6B
ENCODING 7787
SWIDTH 540 0
DWIDTH 9 0
BBX 9 18 0 -4
BITMAP
0000
0000
1800
1800
0000
1800
1800
7E00
1800
1800
1800
1800
1B00
0E00
0000
0000
0000
0000
ENDCHAR
STARTCHAR Wgrave
ENCODING 7808
SWIDTH 540 0
DWIDTH 9 0
BBX 9 18 0 -4
BITMAP
3000
1800
0C00
0000
6300
6300
6300
6300
6B00
6B00
6B00
7F00
7700
2200
0000
0000
0000
0000
ENDCHAR
STARTCHAR wgrave
ENCODING 7809
SWIDTH 540 0
DWIDTH 9 0
BBX 9 18 0 -4
BITMAP
0000
0000
0000
3000
1800
0C00
0000
C300
C300
DB00
DB00
DB00
FF00
6600
0000
0000
0000
0000
ENDCHAR
STARTCHAR Wacute
ENCODING 7810
SWIDTH 540 0
DWIDTH 9 0
BBX 9 18 0 -4
BITMAP
0600
0C00
1800
0000
6300
6300
6300
6300
6B00
6B00
6B00
7F00
7700
2200
0000
0000
0000
0000
ENDCHAR
STARTCHAR wacute
ENCODING 7811
SWIDTH 540 0
DWIDTH 9 0
BBX 9 18 0 -4
BITMAP
0000
0000
0000
0C00
1800
3000
0000
C300
C300
DB00
DB00
DB00
FF00
6600
0000
0000
0000
0000
ENDCHAR
STARTCHAR Wdieresis
ENCODING 7812
SWIDTH 540 0
DWIDTH 9 0
BBX 9 18 0 -4
BITMAP
0000
3600
3600
0000
6300
6300
6300
6300
6B00
6B00
6B00
7F00
7700
2200
0000
0000
0000
0000
ENDCHAR
STARTCHAR wdieresis
ENCODING 7813
SWIDTH 540 0
DWIDTH 9 0
BBX 9 18 0 -4
BITMAP
0000
0000
0000
0000
6600
6600
0000
C300
C300
DB00
DB00
DB00
FF00
6600
0000
0000
0000
0000
ENDCHAR
STARTCHAR Ygrave
ENCODING 7922
SWIDTH 540 0
DWIDTH 9 0
BBX 9 18 0 -4
BITMAP
6000
3000
1800
0000
C300
C300
6600
3C00
1800
1800
1800
1800
1800
1800
0000
0000
0000
0000
ENDCHAR
STARTCHAR ygrave
ENCODING 7923
SWIDTH 540 0
DWIDTH 9 0
BBX 9 18 0 -4
BITMAP
0000
0000
0000
3000
1800
0C00
0000
6300
6300
3600
3600
3600
1C00
1C00
1800
5800
3000
0000
ENDCHAR
STARTCHAR uni2010
ENCODING 8208
SWIDTH 540 0
DWIDTH 9 0
BBX 9 18 0 -4
BITMAP
0000
0000
0000
0000
0000
0000
0000
0000
0000
7E00
0000
0000
0000
0000
0000
0000
0000
0000
ENDCHAR
STARTCHAR uni2011
ENCODING 8209
SWIDTH 540 0
DWIDTH 9 0
BBX 9 18 0 -4
BITMAP
0000
0000
0000
0000
0000
0000
0000
0000
0000
7E00
0000
0000
0000
0000
0000
0000
0000
0000
ENDCHAR
STARTCHAR figuredash
ENCODING 8210
SWIDTH 540 0
DWIDTH 9 0
BBX 9 18 0 -4
BITMAP
0000
0000
0000
0000
0000
0000
0000
0000
0000
7F00
0000
0000
0000
0000
0000
0000
0000
0000
ENDCHAR
STARTCHAR endash
ENCODING 8211
SWIDTH 540 0
DWIDTH 9 0
BBX 9 18 0 -4
BITMAP
0000
0000
0000
0000
0000
0000
0000
0000
0000
FF00
0000
0000
0000
0000
0000
0000
0000
0000
ENDCHAR
STARTCHAR emdash
ENCODING 8212
SWIDTH 540 0
DWIDTH 9 0
BBX 9 18 0 -4
BITMAP
0000
0000
0000
0000
0000
0000
0000
0000
0000
FF80
0000
0000
0000
0000
0000
0000
0000
0000
ENDCHAR
STARTCHAR afii00208
ENCODING 8213
SWIDTH 540 0
DWIDTH 9 0
BBX 9 18 0 -4
BITMAP
0000
0000
0000
0000
0000
0000
0000
0000
0000
FF80
0000
0000
0000
0000
0000
0000
0000
0000
ENDCHAR
STARTCHAR uni2016
ENCODING 8214
SWIDTH 540 0
DWIDTH 9 0
BBX 9 18 0 -4
BITMAP
0000
0000
0000
0000
3600
3600
3600
3600
3600
3600
3600
3600
3600
3600
0000
0000
0000
0000
ENDCHAR
STARTCHAR underscoredbl
ENCODING 8215
SWIDTH 540 0
DWIDTH 9 0
BBX 9 18 0 -4
BITMAP
0000
0000
0000
0000
0000
0000
0000
0000
0000
0000
0000
0000
0000
0000
0000
7F00
0000
7F00
ENDCHAR
STARTCHAR quoteleft
ENCODING 8216
SWIDTH 540 0
DWIDTH 9 0
BBX 9 18 0 -4
BITMAP
0000
0000
0000
0000
0C00
1800
1C00
1C00
0000
0000
0000
0000
0000
0000
0000
0000
0000
0000
ENDCHAR
STARTCHAR quoteright
ENCODING 8217
SWIDTH 540 0
DWIDTH 9 0
BBX 9 18 0 -4
BITMAP
0000
0000
0000
0000
1C00
1C00
0C00
1800
0000
0000
0000
0000
0000
0000
0000
0000
0000
0000
ENDCHAR
STARTCHAR quotesinglbase
ENCODING 8218
SWIDTH 540 0
DWIDTH 9 0
BBX 9 18 0 -4
BITMAP
0000
0000
0000
0000
0000
0000
0000
0000
0000
0000
0000
3800
3800
1800
3000
0000
0000
0000
ENDCHAR
STARTCHAR quotereversed
ENCODING 8219
SWIDTH 540 0
DWIDTH 9 0
BBX 9 18 0 -4
BITMAP
0000
0000
0000
0000
3800
3800
3000
1800
0000
0000
0000
0000
0000
0000
0000
0000
0000
0000
ENDCHAR
STARTCHAR quotedblleft
ENCODING 8220
SWIDTH 540 0
DWIDTH 9 0
BBX 9 18 0 -4
BITMAP
0000
0000
0000
0000
3300
6600
7700
7700
0000
0000
0000
0000
0000
0000
0000
0000
0000
0000
ENDCHAR
STARTCHAR quotedblright
ENCODING 8221
SWIDTH 540 0
DWIDTH 9 0
BBX 9 18 0 -4
BITMAP
0000
0000
0000
0000
7700
7700
3300
6600
0000
0000
0000
0000
0000
0000
0000
0000
0000
0000
ENDCHAR
STARTCHAR quotedblbase
ENCODING 8222
SWIDTH 540 0
DWIDTH 9 0
BBX 9 18 0 -4
BITMAP
0000
0000
0000
0000
0000
0000
0000
0000
0000
0000
0000
7700
7700
3300
6600
0000
0000
0000
ENDCHAR
STARTCHAR uni201F
ENCODING 8223
SWIDTH 540 0
DWIDTH 9 0
BBX 9 18 0 -4
BITMAP
0000
0000
0000
0000
7700
7700
6600
3300
0000
0000
0000
0000
0000
0000
0000
0000
0000
0000
ENDCHAR
STARTCHAR dagger
ENCODING 8224
SWIDTH 540 0
DWIDTH 9 0
BBX 9 18 0 -4
BITMAP
0000
0000
0000
1800
3C00
1800
5A00
FF00
5A00
1800
3C00
1800
1800
1800
1800
1800
0000
0000
ENDCHAR
STARTCHAR daggerdbl
ENCODING 8225
SWIDTH 540 0
DWIDTH 9 0
BBX 9 18 0 -4
BITMAP
0000
0000
0000
1800
3C00
1800
5A00
FF00
5A00
1800
5A00
FF00
5A00
1800
3C00
1800
0000
0000
ENDCHAR
STARTCHAR bullet
ENCODING 8226
SWIDTH 540 0
DWIDTH 9 0
BBX 9 18 0 -4
BITMAP
0000
0000
0000
0000
0000
0000
0000
1800
3C00
3C00
1800
0000
0000
0000
0000
0000
0000
0000
ENDCHAR
STARTCHAR uni2023
ENCODING 8227
SWIDTH 540 0
DWIDTH 9 0
BBX 9 18 0 -4
BITMAP
0000
0000
0000
0000
0000
2000
3000
3800
3C00
3800
3000
2000
0000
0000
0000
0000
0000
0000
ENDCHAR
STARTCHAR onedotenleader
ENCODING 8228
SWIDTH 540 0
DWIDTH 9 0
BBX 9 18 0 -4
BITMAP
0000
0000
0000
0000
0000
0000
0000
0000
0000
0000
0000
0000
6000
6000
0000
0000
0000
0000
ENDCHAR
STARTCHAR twodotenleader
ENCODING 8229
SWIDTH 540 0
DWIDTH 9 0
BBX 9 18 0 -4
BITMAP
0000
0000
0000
0000
0000
0000
0000
0000
0000
0000
0000
0000
6C00
6C00
0000
0000
0000
0000
ENDCHAR
STARTCHAR ellipsis
ENCODING 8230
SWIDTH 540 0
DWIDTH 9 0
BBX 9 18 0 -4
BITMAP
0000
0000
0000
0000
0000
0000
0000
0000
0000
0000
0000
0000
DB00
DB00
0000
0000
0000
0000
ENDCHAR
STARTCHAR uni2027
ENCODING 8231
SWIDTH 540 0
DWIDTH 9 0
BBX 9 18 0 -4
BITMAP
0000
0000
0000
0000
0000
0000
0000
0800
1C00
0800
0000
0000
0000
0000
0000
0000
0000
0000
ENDCHAR
STARTCHAR perthousand
ENCODING 8240
SWIDTH 540 0
DWIDTH 9 0
BBX 9 18 0 -4
BITMAP
0000
0000
0000
0000
4300
E600
E600
4C00
1800
1800
3500
6F80
6F80
C500
0000
0000
0000
0000
ENDCHAR
STARTCHAR minute
ENCODING 8242
SWIDTH 540 0
DWIDTH 9 0
BBX 9 18 0 -4
BITMAP
0000
0000
0000
0000
1800
1800
1800
3000
0000
0000
0000
0000
0000
0000
0000
0000
0000
0000
ENDCHAR
STARTCHAR second
ENCODING 8243
SWIDTH 540 0
DWIDTH 9 0
BBX 9 18 0 -4
BITMAP
0000
0000
0000
0000
3600
3600
3600
6C00
0000
0000
0000
0000
0000
0000
0000
0000
0000
0000
ENDCHAR
STARTCHAR uni2034
ENCODING 8244
SWIDTH 540 0
DWIDTH 9 0
BBX 9 18 0 -4
BITMAP
0000
0000
0000
0000
6D80
6D80
6D80
DB00
0000
0000
0000
0000
0000
0000
0000
0000
0000
0000
ENDCHAR
STARTCHAR uni2035
ENCODING 8245
SWIDTH 540 0
DWIDTH 9 0
BBX 9 18 0 -4
BITMAP
0000
0000
0000
0000
3000
3000
3000
1800
0000
0000
0000
0000
0000
0000
0000
0000
0000
0000
ENDCHAR
STARTCHAR uni2036
ENCODING 8246
SWIDTH 540 0
DWIDTH 9 0
BBX 9 18 0 -4
BITMAP
0000
0000
0000
0000
6C00
6C00
6C00
3600
0000
0000
0000
0000
0000
0000
0000
0000
0000
0000
ENDCHAR
STARTCHAR uni2037
ENCODING 8247
SWIDTH 540 0
DWIDTH 9 0
BBX 9 18 0 -4
BITMAP
0000
0000
0000
0000
DB00
DB00
DB00
6D80
0000
0000
0000
0000
0000
0000
0000
0000
0000
0000
ENDCHAR
STARTCHAR guilsinglleft
ENCODING 8249
SWIDTH 540 0
DWIDTH 9 0
BBX 9 18 0 -4
BITMAP
0000
0000
0000
0000
0000
0000
0C00
1800
3000
3000
1800
0C00
0000
0000
0000
0000
0000
0000
ENDCHAR
STARTCHAR guilsinglright
ENCODING 8250
SWIDTH 540 0
DWIDTH 9 0
BBX 9 18 0 -4
BITMAP
0000
0000
0000
0000
0000
0000
3000
1800
0C00
0C00
1800
3000
0000
0000
0000
0000
0000
0000
ENDCHAR
STARTCHAR exclamdbl
ENCODING 8252
SWIDTH 540 0
DWIDTH 9 0
BBX 9 18 0 -4
BITMAP
0000
0000
0000
3600
3600
3600
3600
3600
3600
3600
0000
0000
3600
3600
0000
0000
0000
0000
ENDCHAR
STARTCHAR uni203E
ENCODING 8254
SWIDTH 540 0
DWIDTH 9 0
BBX 9 18 0 -4
BITMAP
0000
0000
0000
FF80
0000
0000
0000
0000
0000
0000
0000
0000
0000
0000
0000
0000
0000
0000
ENDCHAR
STARTCHAR fraction
ENCODING 8260
SWIDTH 540 0
DWIDTH 9 0
BBX 9 18 0 -4
BITMAP
0000
0000
0000
0000
0300
0600
0600
0C00
1800
1800
3000
6000
6000
C000
0000
0000
0000
0000
ENDCHAR
STARTCHAR dong
ENCODING 8363
SWIDTH 540 0
DWIDTH 9 0
BBX 9 18 0 -4
BITMAP
0000
0000
0000
0000
0300
0F80
0300
3F00
6300
6300
6300
6300
6300
3F00
0000
3E00
0000
0000
ENDCHAR
STARTCHAR Euro
ENCODING 8364
SWIDTH 540 0
DWIDTH 9 0
BBX 9 18 0 -4
BITMAP
0000
0000
0000
0000
0E00
1B00
3000
7800
3000
7800
3000
3000
1B00
0E00
0000
0000
0000
0000
ENDCHAR
STARTCHAR uni20AF
ENCODING 8367
SWIDTH 540 0
DWIDTH 9 0
BBX 9 18 0 -4
BITMAP
0000
0000
0000
0000
1800
7C00
DE00
1B00
1B00
1B00
1B00
7B00
DB00
6E00
0000
0000
0000
0000
ENDCHAR
STARTCHAR afii61352
ENCODING 8470
SWIDTH 540 0
DWIDTH 9 0
BBX 9 18 0 -4
BITMAP
0000
0000
0000
0000
F000
F000
D800
D800
DB00
DF80
DF80
DB00
D800
DF80
0000
0000
0000
0000
ENDCHAR
STARTCHAR trademark
ENCODING 8482
SWIDTH 540 0
DWIDTH 9 0
BBX 9 18 0 -4
BITMAP
0000
0000
0000
FD80
6F80
6D80
6D80
6D80
0000
0000
0000
0000
0000
0000
0000
0000
0000
0000
ENDCHAR
STARTCHAR Omega
ENCODING 8486
SWIDTH 540 0
DWIDTH 9 0
BBX 9 18 0 -4
BITMAP
0000
0000
0000
0000
3C00
6600
C300
C300
C300
C300
C300
6600
6600
E700
0000
0000
0000
0000
ENDCHAR
STARTCHAR oneeighth
ENCODING 8539
SWIDTH 540 0
DWIDTH 9 0
BBX 9 18 0 -4
BITMAP
0000
0000
0000
0000
C000
C000
C000
C000
CE00
DB00
0E00
1B00
1B00
0E00
0000
0000
0000
0000
ENDCHAR
STARTCHAR threeeighths
ENCODING 8540
SWIDTH 540 0
DWIDTH 9 0
BBX 9 18 0 -4
BITMAP
0000
0000
0000
0000
E000
3000
E000
3000
3700
ED80
0700
0D80
0D80
0700
0000
0000
0000
0000
ENDCHAR
STARTCHAR fiveeighths
ENCODING 8541
SWIDTH 540 0
DWIDTH 9 0
BBX 9 18 0 -4
BITMAP
0000
0000
0000
0000
F000
C000
F000
3000
3700
ED80
0700
0D80
0D80
0700
0000
0000
0000
0000
ENDCHAR
STARTCHAR seveneighths
ENCODING 8542
SWIDTH 540 0
DWIDTH 9 0
BBX 9 18 0 -4
BITMAP
0000
0000
0000
0000
F000
3000
3000
6000
6700
6D80
0700
0D80
0D80
0700
0000
0000
0000
0000
ENDCHAR
STARTCHAR arrowleft
ENCODING 8592
SWIDTH 540 0
DWIDTH 9 0
BBX 9 18 0 -4
BITMAP
0000
0000
0000
0000
0000
0800
1800
3000
7F00
7F00
3000
1800
0800
0000
0000
0000
0000
0000
ENDCHAR
STARTCHAR arrowup
ENCODING 8593
SWIDTH 540 0
DWIDTH 9 0
BBX 9 18 0 -4
BITMAP
0000
0000
0000
0000
1800
3C00
7E00
DB00
1800
1800
1800
1800
1800
1800
0000
0000
0000
0000
ENDCHAR
STARTCHAR arrowright
ENCODING 8594
SWIDTH 540 0
DWIDTH 9 0
BBX 9 18 0 -4
BITMAP
0000
0000
0000
0000
0000
0800
0C00
0600
7F00
7F00
0600
0C00
0800
0000
0000
0000
0000
0000
ENDCHAR
STARTCHAR arrowdown
ENCODING 8595
SWIDTH 540 0
DWIDTH 9 0
BBX 9 18 0 -4
BITMAP
0000
0000
0000
0000
1800
1800
1800
1800
1800
1800
DB00
7E00
3C00
1800
0000
0000
0000
0000
ENDCHAR
STARTCHAR universal
ENCODING 8704
SWIDTH 540 0
DWIDTH 9 0
BBX 9 18 0 -4
BITMAP
0000
0000
0000
0000
6300
6300
6300
3600
3E00
3600
1C00
1C00
1C00
0800
0000
0000
0000
0000
ENDCHAR
STARTCHAR existential
ENCODING 8707
SWIDTH 540 0
DWIDTH 9 0
BBX 9 18 0 -4
BITMAP
0000
0000
0000
0000
7F00
0300
0300
0300
1F00
0300
0300
0300
0300
7F00
0000
0000
0000
0000
ENDCHAR
STARTCHAR minus
ENCODING 8722
SWIDTH 540 0
DWIDTH 9 0
BBX 9 18 0 -4
BITMAP
0000
0000
0000
0000
0000
0000
0000
0000
0000
FF00
0000
0000
0000
0000
0000
0000
0000
0000
ENDCHAR
STARTCHAR notequal
ENCODING 8800
SWIDTH 540 0
DWIDTH 9 0
BBX 9 18 0 -4
BITMAP
0000
0000
0000
0000
0000
0000
0000
0600
7F00
0C00
1800
7F00
3000
0000
0000
0000
0000
0000
ENDCHAR
STARTCHAR lessequal
ENCODING 8804
SWIDTH 540 0
DWIDTH 9 0
BBX 9 18 0 -4
BITMAP
0000
0000
0000
0000
0600
0C00
1800
3000
6000
3000
1800
0C00
0600
0000
7E00
0000
0000
0000
ENDCHAR
STARTCHAR greaterequal
ENCODING 8805
SWIDTH 540 0
DWIDTH 9 0
BBX 9 18 0 -4
BITMAP
0000
0000
0000
0000
6000
3000
1800
0C00
0600
0C00
1800
3000
6000
0000
7E00
0000
0000
0000
ENDCHAR
STARTCHAR uni23BA
ENCODING 9146
SWIDTH 540 0
DWIDTH 9 0
BBX 9 18 0 -4
BITMAP
FF80
FF80
0000
0000
0000
0000
0000
0000
0000
0000
0000
0000
0000
0000
0000
0000
0000
0000
ENDCHAR
STARTCHAR uni23BB
ENCODING 9147
SWIDTH 540 0
DWIDTH 9 0
BBX 9 18 0 -4
BITMAP
0000
0000
0000
0000
FF80
FF80
0000
0000
0000
0000
0000
0000
0000
0000
0000
0000
0000
0000
ENDCHAR
STARTCHAR uni23BC
ENCODING 9148
SWIDTH 540 0
DWIDTH 9 0
BBX 9 18 0 -4
BITMAP
0000
0000
0000
0000
0000
0000
0000
0000
0000
0000
0000
0000
FF80
FF80
0000
0000
0000
0000
ENDCHAR
STARTCHAR uni23BD
ENCODING 9149
SWIDTH 540 0
DWIDTH 9 0
BBX 9 18 0 -4
BITMAP
0000
0000
0000
0000
0000
0000
0000
0000
0000
0000
0000
0000
0000
0000
0000
0000
FF80
FF80
ENDCHAR
STARTCHAR uni2409
ENCODING 9225
SWIDTH 540 0
DWIDTH 9 0
BBX 9 18 0 -4
BITMAP
0000
0000
0000
0000
D800
D800
F800
D800
D800
0F00
0600
0600
0600
0600
0000
0000
0000
0000
ENDCHAR
STARTCHAR uni240A
ENCODING 9226
SWIDTH 540 0
DWIDTH 9 0
BBX 9 18 0 -4
BITMAP
0000
0000
0000
0000
C000
C000
C000
C000
F000
0F00
0C00
0E00
0C00
0C00
0000
0000
0000
0000
ENDCHAR
STARTCHAR uni240B
ENCODING 9227
SWIDTH 540 0
DWIDTH 9 0
BBX 9 18 0 -4
BITMAP
0000
0000
0000
0000
D800
D800
D800
7000
2000
0F00
0600
0600
0600
0600
0000
0000
0000
0000
ENDCHAR
STARTCHAR uni240C
ENCODING 9228
SWIDTH 540 0
DWIDTH 9 0
BBX 9 18 0 -4
BITMAP
0000
0000
0000
0000
F000
C000
E000
C000
C000
0F00
0C00
0E00
0C00
0C00
0000
0000
0000
0000
ENDCHAR
STARTCHAR uni240D
ENCODING 9229
SWIDTH 540 0
DWIDTH 9 0
BBX 9 18 0 -4
BITMAP
0000
0000
0000
0000
7000
C000
C000
C000
7000
1E00
1B00
1E00
1B00
1B00
0000
0000
0000
0000
ENDCHAR
STARTCHAR uni2424
ENCODING 9252
SWIDTH 540 0
DWIDTH 9 0
BBX 9 18 0 -4
BITMAP
0000
0000
0000
F000
D800
D800
D800
D800
0000
1800
1800
1800
1800
1F00
0000
0000
0000
0000
ENDCHAR
STARTCHAR SF100000
ENCODING 9472
SWIDTH 540 0
DWIDTH 9 0
BBX 9 18 0 -4
BITMAP
0000
0000
0000
0000
0000
0000
0000
0000
FF80
FF80
0000
0000
0000
0000
0000
0000
0000
0000
ENDCHAR
STARTCHAR SF110000
ENCODING 9474
SWIDTH 540 0
DWIDTH 9 0
BBX 9 18 0 -4
BITMAP
0C00
0C00
0C00
0C00
0C00
0C00
0C00
0C00
0C00
0C00
0C00
0C00
0C00
0C00
0C00
0C00
0C00
0C00
ENDCHAR
STARTCHAR SF010000
ENCODING 9484
SWIDTH 540 0
DWIDTH 9 0
BBX 9 18 0 -4
BITMAP
0000
0000
0000
0000
0000
0000
0000
0000
0F80
0F80
0C00
0C00
0C00
0C00
0C00
0C00
0C00
0C00
ENDCHAR
STARTCHAR SF030000
ENCODING 9488
SWIDTH 540 0
DWIDTH 9 0
BBX 9 18 0 -4
BITMAP
0000
0000
0000
0000
0000
0000
0000
0000
FC00
FC00
0C00
0C00
0C00
0C00
0C00
0C00
0C00
0C00
ENDCHAR
STARTCHAR SF020000
ENCODING 9492
SWIDTH 540 0
DWIDTH 9 0
BBX 9 18 0 -4
BITMAP
0C00
0C00
0C00
0C00
0C00
0C00
0C00
0C00
0F80
0F80
0000
0000
0000
0000
0000
0000
0000
0000
ENDCHAR
STARTCHAR SF040000
ENCODING 9496
SWIDTH 540 0
DWIDTH 9 0
BBX 9 18 0 -4
BITMAP
0C00
0C00
0C00
0C00
0C00
0C00
0C00
0C00
FC00
FC00
0000
0000
0000
0000
0000
0000
0000
0000
ENDCHAR
STARTCHAR SF080000
ENCODING 9500
SWIDTH 540 0
DWIDTH 9 0
BBX 9 18 0 -4
BITMAP
0C00
0C00
0C00
0C00
0C00
0C00
0C00
0C00
0F80
0F80
0C00
0C00
0C00
0C00
0C00
0C00
0C00
0C00
ENDCHAR
STARTCHAR SF090000
ENCODING 9508
SWIDTH 540 0
DWIDTH 9 0
BBX 9 18 0 -4
BITMAP
0C00
0C00
0C00
0C00
0C00
0C00
0C00
0C00
FC00
FC00
0C00
0C00
0C00
0C00
0C00
0C00
0C00
0C00
ENDCHAR
STARTCHAR SF060000
ENCODING 9516
SWIDTH 540 0
DWIDTH 9 0
BBX 9 18 0 -4
BITMAP
0000
0000
0000
0000
0000
0000
0000
0000
FF80
FF80
0C00
0C00
0C00
0C00
0C00
0C00
0C00
0C00
ENDCHAR
STARTCHAR SF070000
ENCODING 9524
SWIDTH 540 0
DWIDTH 9 0
BBX 9 18 0 -4
BITMAP
0C00
0C00
0C00
0C00
0C00
0C00
0C00
0C00
FF80
FF80
0000
0000
0000
0000
0000
0000
0000
0000
ENDCHAR
STARTCHAR SF050000
ENCODING 9532
SWIDTH 540 0
DWIDTH 9 0
BBX 9 18 0 -4
BITMAP
0C00
0C00
0C00
0C00
0C00
0C00
0C00
0C00
FF80
FF80
0C00
0C00
0C00
0C00
0C00
0C00
0C00
0C00
ENDCHAR
STARTCHAR uni256D
ENCODING 9581
SWIDTH 540 0
DWIDTH 9 0
BBX 9 18 0 -4
BITMAP
0000
0000
0000
0000
0000
0000
0000
0000
0380
0780
0E00
0C00
0C00
0C00
0C00
0C00
0C00
0C00
ENDCHAR
STARTCHAR uni256E
ENCODING 9582
SWIDTH 540 0
DWIDTH 9 0
BBX 9 18 0 -4
BITMAP
0000
0000
0000
0000
0000
0000
0000
0000
F000
F800
1C00
0C00
0C00
0C00
0C00
0C00
0C00
0C00
ENDCHAR
STARTCHAR uni256F
ENCODING 9583
SWIDTH 540 0
DWIDTH 9 0
BBX 9 18 0 -4
BITMAP
0C00
0C00
0C00
0C00
0C00
0C00
0C00
1C00
F800
F000
0000
0000
0000
0000
0000
0000
0000
0000
ENDCHAR
STARTCHAR uni2570
ENCODING 9584
SWIDTH 540 0
DWIDTH 9 0
BBX 9 18 0 -4
BITMAP
0C00
0C00
0C00
0C00
0C00
0C00
0C00
0E00
0780
0380
0000
0000
0000
0000
0000
0000
0000
0000
ENDCHAR
STARTCHAR shade
ENCODING 9618
SWIDTH 540 0
DWIDTH 9 0
BBX 9 18 0 -4
BITMAP
AA80
5500
AA80
5500
AA80
5500
AA80
5500
AA80
5500
AA80
5500
AA80
5500
AA80
5500
AA80
5500
ENDCHAR
STARTCHAR uni25AE
ENCODING 9646
SWIDTH 540 0
DWIDTH 9 0
BBX 9 18 0 -4
BITMAP
0000
0000
0000
0000
0000
7E00
7E00
7E00
7E00
7E00
7E00
7E00
7E00
7E00
0000
0000
0000
0000
ENDCHAR
STARTCHAR uni25C6
ENCODING 9670
SWIDTH 540 0
DWIDTH 9 0
BBX 9 18 0 -4
BITMAP
0000
0000
0000
0000
0000
0800
1C00
3E00
7F00
FF80
7F00
3E00
1C00
0800
0000
0000
0000
0000
ENDCHAR
STARTCHAR musicalnote
ENCODING 9834
SWIDTH 540 0
DWIDTH 9 0
BBX 9 18 0 -4
BITMAP
0000
0000
0000
0000
1C00
1E00
1B00
1B00
1800
1800
7800
F800
F800
7000
0000
0000
0000
0000
ENDCHAR
STARTCHAR uniFFFD
ENCODING 65533
SWIDTH 540 0
DWIDTH 9 0
BBX 9 18 0 -4
BITMAP
0000
0000
0000
0000
7E00
C300
9900
F900
F300
E700
E700
FF00
E700
7E00
0000
0000
0000
0000
ENDCHAR
ENDFONT

0000
1C00
2200
4100
4100
4100
4100
4100
2200
1400
7700
0000
0000
0000
0000
ENDCHAR
STARTCHAR iotadieresistonos
ENCODING 912
SWIDTH 540 0
DWIDTH 9 0
BBX 9 18 0 -4
BITMAP
0000
0000
0000
0400
4900
5100
0000
1000
1000
1000
1000
1000
1200
0C00
0000
0000
0000
0000
ENDCHAR
STARTCHAR Alpha
ENCODING 913
SWIDTH 540 0
DWIDTH 9 0
BBX 9 18 0 -4
BITMAP
0000
0000
0000
0000
0800
1400
1400
1400
2200
3E00
2200
4100
4100
4100
0000
0000
0000
0000
ENDCHAR
STARTCHAR Beta
ENCODING 914
SWIDTH 540 0
DWIDTH 9 0
BBX 9 18 0 -4
BITMAP
0000
0000
0000
0000
7C00
4200
4100
4200
7C00
4200
4100
4100
4200
7C00
0000
0000
0000
0000
ENDCHAR
STARTCHAR Gamma
ENCODING 915
SWIDTH 540 0
DWIDTH 9 0
BBX 9 18 0 -4
BITMAP
0000
0000
0000
0000
7E00
4000
4000
4000
4000
4000
4000
4000
4000
4000
0000
0000
0000
0000
ENDCHAR
STARTCHAR Delta
ENCODING 916
SWIDTH 540 0
DWIDTH 9 0
BBX 9 18 0 -4
BITMAP
0000
0000
0000
0000
0800
0800
1400
1400
1400
2200
2200
2200
4100
7F00
0000
0000
0000
0000
ENDCHAR
STARTCHAR Epsilon
ENCODING 917
SWIDTH 540 0
DWIDTH 9 0
BBX 9 18 0 -4
BITMAP
0000
0000
0000
0000
7F00
4000
4000
4000
7C00
4000
4000
4000
4000
7F00
0000
0000
0000
0000
ENDCHAR
STARTCHAR Zeta
ENCODING 918
SWIDTH 540 0
DWIDTH 9 0
BBX 9 18 0 -4
BITMAP
0000
0000
0000
0000
7F00
0100
0200
0400
0800
1000
2000
4000
4000
7F00
0000
0000
0000
0000
ENDCHAR
STARTCHAR Eta
ENCODING 919
SWIDTH 540 0
DWIDTH 9 0
BBX 9 18 0 -4
BITMAP
0000
0000
0000
0000
4100
4100
4100
4100
7F00
4100
4100
4100
4100
4100
0000
0000
0000
0000
ENDCHAR
STARTCHAR Theta
ENCODING 920
SWIDTH 540 0
DWIDTH 9 0
BBX 9 18 0 -4
BITMAP
0000
0000
0000
0000
3E00
4100
4100
4100
7F00
4100
4100
4100
4100
3E00
0000
0000
0000
0000
ENDCHAR
STARTCHAR Iota
ENCODING 921
SWIDTH 540 0
DWIDTH 9 0
BBX 9 18 0 -4
BITMAP
0000
0000
0000
0000
3E00
0800
0800
0800
0800
0800
0800
0800
0800
3E00
0000
0000
0000
0000
ENDCHAR
STARTCHAR Kappa
ENCODING 922
SWIDTH 540 0
DWIDTH 9 0
BBX 9 18 0 -4
BITMAP
0000
0000
0000
0000
4100
4200
4400
4800
5000
6800
4400
4200
4100
4100
0000
0000
0000
0000
ENDCHAR
STARTCHAR Lambda
ENCODING 923
SWIDTH 540 0
DWIDTH 9 0
BBX 9 18 0 -4
BITMAP
0000
0000
0000
0000
0800
1400
1400
1400
2200
2200
2200
4100
4100
4100
0000
0000
0000
0000
ENDCHAR
STARTCHAR Mu
ENCODING 924
SWIDTH 540 0
DWIDTH 9 0
BBX 9 18 0 -4
BITMAP
0000
0000
0000
0000
4100
4100
6300
5500
4900
4100
4100
4100
4100
4100
0000
0000
0000
0000
ENDCHAR
STARTCHAR Nu
ENCODING 925
SWIDTH 540 0
DWIDTH 9 0
BBX 9 18 0 -4
BITMAP
0000
0000
0000
0000
4100
4100
6100
5100
4900
4500
4300
4100
4100
4100
0000
0000
0000
0000
ENDCHAR
STARTCHAR Xi
ENCODING 926
SWIDTH 540 0
DWIDTH 9 0
BBX 9 18 0 -4
BITMAP
0000
0000
0000
0000
7F00
0000
0000
0000
3E00
0000
0000
0000
0000
7F00
0000
0000
0000
0000
ENDCHAR
STARTCHAR Omicron
ENCODING 927
SWIDTH 540 0
DWIDTH 9 0
BBX 9 18 0 -4
BITMAP
0000
0000
0000
0000
3E00
4100
4100
4100
4100
4100
4100
4100
4100
3E00
0000
0000
0000
0000
ENDCHAR
STARTCHAR Pi
ENCODING 928
SWIDTH 540 0
DWIDTH 9 0
BBX 9 18 0 -4
BITMAP
0000
0000
0000
0000
7F00
2200
2200
2200
2200
2200
2200
2200
2200
2200
0000
0000
0000
0000
ENDCHAR
STARTCHAR Rho
ENCODING 929
SWIDTH 540 0
DWIDTH 9 0
BBX 9 18 0 -4
BITMAP
0000
0000
0000
0000
7C00
4200
4100
4100
4200
7C00
4000
4000
4000
4000
0000
0000
0000
0000
ENDCHAR
STARTCHAR Sigma
ENCODING 931
SWIDTH 540 0
DWIDTH 9 0
BBX 9 18 0 -4
BITMAP
0000
0000
0000
0000
7F00
2000
1000
0800
0400
0400
0800
1000
2000
7F00
0000
0000
0000
0000
ENDCHAR
STARTCHAR Tau
ENCODING 932
SWIDTH 540 0
DWIDTH 9 0
BBX 9 18 0 -4
BITMAP
0000
0000
0000
0000
7F00
0800
0800
0800
0800
0800
0800
0800
0800
0800
0000
0000
0000
0000
ENDCHAR
STARTCHAR Upsilon
ENCODING 933
SWIDTH 540 0
DWIDTH 9 0
BBX 9 18 0 -4
BITMAP
0000
0000
0000
0000
4100
4100
2200
1400
0800
0800
0800
0800
0800
0800
0000
0000
0000
0000
ENDCHAR
STARTCHAR Phi
ENCODING 934
SWIDTH 540 0
DWIDTH 9 0
BBX 9 18 0 -4
BITMAP
0000
0000
0000
0000
0800
3E00
4900
4900
4900
4900
4900
4900
3E00
0800
0000
0000
0000
0000
ENDCHAR
STARTCHAR Chi
ENCODING 935
SWIDTH 540 0
DWIDTH 9 0
BBX 9 18 0 -4
BITMAP
0000
0000
0000
0000
4100
4100
2200
1400
0800
0800
1400
2200
4100
4100
0000
0000
0000
0000
ENDCHAR
STARTCHAR Psi
ENCODING 936
SWIDTH 540 0
DWIDTH 9 0
BBX 9 18 0 -4
BITMAP
0000
0000
0000
0000
4900
4900
4900
4900
4900
4900
3E00
0800
0800
0800
0000
0000
0000
0000
ENDCHAR
STARTCHAR Omega
ENCODING 937
SWIDTH 540 0
DWIDTH 9 0
BBX 9 18 0 -4
BITMAP
0000
0000
0000
0000
1C00
2200
4100
4100
4100
4100
4100
2200
1400
7700
0000
0000
0000
0000
ENDCHAR
STARTCHAR Iotadieresis
ENCODING 938
SWIDTH 540 0
DWIDTH 9 0
BBX 9 18 0 -4
BITMAP
0000
1400
1400
0000
3E00
0800
0800
0800
0800
0800
0800
0800
0800
3E00
0000
0000
0000
0000
ENDCHAR
STARTCHAR Upsilondieresis
ENCODING 939
SWIDTH 540 0
DWIDTH 9 0
BBX 9 18 0 -4
BITMAP
0000
1400
1400
0000
4100
4100
2200
1400
0800
0800
0800
0800
0800
0800
0000
0000
0000
0000
ENDCHAR
STARTCHAR alphatonos
ENCODING 940
SWIDTH 540 0
DWIDTH 9 0
BBX 9 18 0 -4
BITMAP
0000
0000
0000
0400
0800
1000
0000
3D00
4300
4100
4100
4300
4500
3900
0000
0000
0000
0000
ENDCHAR
STARTCHAR epsilontonos
ENCODING 941
SWIDTH 540 0
DWIDTH 9 0
BBX 9 18 0 -4
BITMAP
0000
0000
0000
0400
0800
1000
0000
3E00
4100
4000
3C00
4000
4100
3E00
0000
0000
0000
0000
ENDCHAR
STARTCHAR etatonos
ENCODING 942
SWIDTH 540 0
DWIDTH 9 0
BBX 9 18 0 -4
BITMAP
0000
0000
0000
0400
0800
1000
0000
5E00
6100
4100
4100
4100
4100
4100
0100
0100
0100
0000
ENDCHAR
STARTCHAR iotatonos
ENCODING 943
SWIDTH 540 0
DWIDTH 9 0
BBX 9 18 0 -4
BITMAP
0000
0000
0000
0400
0800
1000
0000
1000
1000
1000
1000
1000
1200
0C00
0000
0000
0000
0000
ENDCHAR
STARTCHAR upsilondieresistonos
ENCODING 944
SWIDTH 540 0
DWIDTH 9 0
BBX 9 18 0 -4
BITMAP
0000
0000
0000
0400
4900
5100
0000
4100
4100
4100
4100
4100
4100
3E00
0000
0000
0000
0000
ENDCHAR
STARTCHAR alpha
ENCODING 945
SWIDTH 540 0
DWIDTH 9 0
BBX 9 18 0 -4
BITMAP
0000
0000
0000
0000
0000
0000
0000
3D00
4300
4100
4100
4300
4500
3900
0000
0000
0000
0000
ENDCHAR
STARTCHAR beta
ENCODING 946
SWIDTH 540 0
DWIDTH 9 0
BBX 9 18 0 -4
BITMAP
0000
0000
0000
0000
3800
4400
4400
4400
7E00
4100
4100
4100
6100
5E00
4000
4000
4000
0000
ENDCHAR
STARTCHAR gamma
ENCODING 947
SWIDTH 540 0
DWIDTH 9 0
BBX 9 18 0 -4
BITMAP
0000
0000
0000
0000
0000
0000
0000
4100
4100
2200
2200
1400
1400
0800
0800
0800
0800
0000
ENDCHAR
STARTCHAR delta
ENCODING 948
SWIDTH 540 0
DWIDTH 9 0
BBX 9 18 0 -4
BITMAP
0000
0000
0000
0000
3E00
4100
2000
3E00
4100
4100
4100
4100
4100
3E00
0000
0000
0000
0000
ENDCHAR
STARTCHAR epsilon
ENCODING 949
SWIDTH 540 0
DWIDTH 9 0
BBX 9 18 0 -4
BITMAP
0000
0000
0000
0000
0000
0000
0000
3E00
4100
4000
3C00
4000
4100
3E00
0000
0000
0000
0000
ENDCHAR
STARTCHAR zeta
ENCODING 950
SWIDTH 540 0
DWIDTH 9 0
BBX 9 18 0 -4
BITMAP
0000
0000
0000
0000
7F00
0800
1000
2000
4000
4000
4000
4000
4000
3E00
0100
0100
0600
0000
ENDCHAR
STARTCHAR eta
ENCODING 951
SWIDTH 540 0
DWIDTH 9 0
BBX 9 18 0 -4
BITMAP
0000
0000
0000
0000
0000
0000
0000
5E00
6100
4100
4100
4100
4100
4100
0100
0100
0100
0000
ENDCHAR
STARTCHAR theta
ENCODING 952
SWIDTH 540 0
DWIDTH 9 0
BBX 9 18 0 -4
BITMAP
0000
0000
0000
0000
3C00
4200
4200
4200
7E00
4200
4200
4200
4200
3C00
0000
0000
0000
0000
ENDCHAR
STARTCHAR iota
ENCODING 953
SWIDTH 540 0
DWIDTH 9 0
BBX 9 18 0 -4
BITMAP
0000
0000
0000
0000
0000
0000
0000
1000
1000
1000
1000
1000
1200
0C00
0000
0000
0000
0000
ENDCHAR
STARTCHAR kappa
ENCODING 954
SWIDTH 540 0
DWIDTH 9 0
BBX 9 18 0 -4
BITMAP
0000
0000
0000
0000
0000
0000
0000
4200
4400
4800
5000
6800
4400
4200
0000
0000
0000
0000
ENDCHAR
STARTCHAR lambda
ENCODING 955
SWIDTH 540 0
DWIDTH 9 0
BBX 9 18 0 -4
BITMAP
0000
0000
0000
0000
3C00
4200
0200
3A00
4600
4200
4200
4200
4200
4200
0000
0000
0000
0000
ENDCHAR
STARTCHAR mu
ENCODING 956
SWIDTH 540 0
DWIDTH 9 0
BBX 9 18 0 -4
BITMAP
0000
0000
0000
0000
0000
0000
0000
4100
4100
4100
4100
4100
6300
5D00
4000
4000
4000
0000
ENDCHAR
STARTCHAR nu
ENCODING 957
SWIDTH 540 0
DWIDTH 9 0
BBX 9 18 0 -4
BITMAP
0000
0000
0000
0000
0000
0000
0000
4100
4100
2200
2200
1400
1400
0800
0000
0000
0000
0000
ENDCHAR
STARTCHAR xi
ENCODING 958
SWIDTH 540 0
DWIDTH 9 0
BBX 9 18 0 -4
BITMAP
0000
0000
0000
0000
7F00
1000
2000
2000
1C00
2000
4000
4000
4000
3E00
0100
0100
0600
0000
ENDCHAR
STARTCHAR omicron
ENCODING 959
SWIDTH 540 0
DWIDTH 9 0
BBX 9 18 0 -4
BITMAP
0000
0000
0000
0000
0000
0000
0000
1C00
2200
4100
4100
4100
2200
1C00
0000
0000
0000
0000
ENDCHAR
STARTCHAR pi
ENCODING 960
SWIDTH 540 0
DWIDTH 9 0
BBX 9 18 0 -4
BITMAP
0000
0000
0000
0000
0000
0000
0000
7F00
2200
2200
2200
2200
2200
2200
0000
0000
0000
0000
ENDCHAR
STARTCHAR rho
ENCODING 961
SWIDTH 540 0
DWIDTH 9 0
BBX 9 18 0 -4
BITMAP
0000
0000
0000
0000
0000
0000
0000
3E00
4100
4100
4100
4100
6100
5E00
4000
4000
4000
0000
ENDCHAR
STARTCHAR sigma1
ENCODING 962
SWIDTH 540 0
DWIDTH 9 0
BBX 9 18 0 -4
BITMAP
0000
0000
0000
0000
0000
0000
0000
3E00
4100
4000
4000
4000
4000
3E00
0100
0100
0E00
0000
ENDCHAR
STARTCHAR sigma
ENCODING 963
SWIDTH 540 0
DWIDTH 9 0
BBX 9 18 0 -4
BITMAP
0000
0000
0000
0000
0000
0000
0000
3F00
4400
4200
4100
4100
4100
3E00
0000
0000
0000
0000
ENDCHAR
STARTCHAR tau
ENCODING 964
SWIDTH 540 0
DWIDTH 9 0
BBX 9 18 0 -4
BITMAP
0000
0000
0000
0000
0000
0000
0000
7F00
0800
0800
0800
0800
0900
0600
0000
0000
0000
0000
ENDCHAR
STARTCHAR upsilon
ENCODING 965
SWIDTH 540 0
DWIDTH 9 0
BBX 9 18 0 -4
BITMAP
0000
0000
0000
0000
0000
0000
0000
4100
4100
4100
4100
4100
4100
3E00
0000
0000
0000
0000
ENDCHAR
STARTCHAR phi
ENCODING 966
SWIDTH 540 0
DWIDTH 9 0
BBX 9 18 0 -4
BITMAP
0000
0000
0000
0000
0000
0000
0000
2600
4900
4900
4900
4900
4900
3E00
0800
0800
0800
0000
ENDCHAR
STARTCHAR chi
ENCODING 967
SWIDTH 540 0
DWIDTH 9 0
BBX 9 18 0 -4
BITMAP
0000
0000
0000
0000
0000
0000
0000
4100
4100
2200
1400
0800
0800
1400
2200
4100
4100
0000
ENDCHAR
STARTCHAR psi
ENCODING 968
SWIDTH 540 0
DWIDTH 9 0
BBX 9 18 0 -4
BITMAP
0000
0000
0000
0000
0000
0000
0000
4900
4900
4900
4900
4900
4900
3E00
0800
0800
0800
0000
ENDCHAR
STARTCHAR omega
ENCODING 969
SWIDTH 540 0
DWIDTH 9 0
BBX 9 18 0 -4
BITMAP
0000
0000
0000
0000
0000
0000
0000
4100
4900
4900
4900
4900
4900
3600
0000
0000
0000
0000
ENDCHAR
STARTCHAR iotadieresis
ENCODING 970
SWIDTH 540 0
DWIDTH 9 0
BBX 9 18 0 -4
BITMAP
0000
0000
0000
0000
2800
2800
0000
1000
1000
1000
1000
1000
1200
0C00
0000
0000
0000
0000
ENDCHAR
STARTCHAR upsilondieresis
ENCODING 971
SWIDTH 540 0
DWIDTH 9 0
BBX 9 18 0 -4
BITMAP
0000
0000
0000
0000
1400
1400
0000
4100
4100
4100
4100
4100
4100
3E00
0000
0000
0000
0000
ENDCHAR
STARTCHAR omicrontonos
ENCODING 972
SWIDTH 540 0
DWIDTH 9 0
BBX 9 18 0 -4
BITMAP
0000
0000
0000
0400
0800
1000
0000
1C00
2200
4100
4100
4100
2200
1C00
0000
0000
0000
0000
ENDCHAR
STARTCHAR upsilontonos
ENCODING 973
SWIDTH 540 0
DWIDTH 9 0
BBX 9 18 0 -4
BITMAP
0000
0000
0000
0400
0800
1000
0000
4100
4100
4100
4100
4100
4100
3E00
0000
0000
0000
0000
ENDCHAR
STARTCHAR omegatonos
ENCODING 974
SWIDTH 540 0
DWIDTH 9 0
BBX 9 18 0 -4
BITMAP
0000
0000
0000
0400
0800
1000
0000
4100
4900
4900
4900
4900
4900
3600
0000
0000
0000
0000
ENDCHAR
STARTCHAR uni03D0
ENCODING 976
SWIDTH 540 0
DWIDTH 9 0
BBX 9 18 0 -4
BITMAP
0000
0000
0000
0000
1C00
2200
4200
4400
5E00
6100
4100
4100
2200
1C00
0000
0000
0000
0000
ENDCHAR
STARTCHAR theta1
ENCODING 977
SWIDTH 540 0
DWIDTH 9 0
BBX 9 18 0 -4
BITMAP
0000
0000
0000
0000
1C00
2200
2200
1F00
0200
6200
2200
2200
2200
1C00
0000
0000
0000
0000
ENDCHAR
STARTCHAR Upsilon1
ENCODING 978
SWIDTH 540 0
DWIDTH 9 0
BBX 9 18 0 -4
BITMAP
0000
0000
0000
0000
2200
5500
1400
1400
0800
0800
0800
0800
0800
0800
0000
0000
0000
0000
ENDCHAR
STARTCHAR uni03D3
ENCODING 979
SWIDTH 540 0
DWIDTH 9 0
BBX 9 18 0 -4
BITMAP
0000
0000
0000
0000
4A00
5500
8400
0400
0400
0400
0400
0400
0400
0400
0000
0000
0000
0000
ENDCHAR
STARTCHAR uni03D4
ENCODING 980
SWIDTH 540 0
DWIDTH 9 0
BBX 9 18 0 -4
BITMAP
0000
2200
2200
0000
2200
5500
1400
1400
0800
0800
0800
0800
0800
0800
0000
0000
0000
0000
ENDCHAR
STARTCHAR phi1
ENCODING 981
SWIDTH 540 0
DWIDTH 9 0
BBX 9 18 0 -4
BITMAP
0000
0000
0000
0000
0800
0800
0800
3E00
4900
4900
4900
4900
4900
3E00
0800
0800
0800
0000
ENDCHAR
STARTCHAR omega1
ENCODING 982
SWIDTH 540 0
DWIDTH 9 0
BBX 9 18 0 -4
BITMAP
0000
0000
0000
0000
0000
0000
0000
7F00
2200
4900
4900
4900
4900
3600
0000
0000
0000
0000
ENDCHAR
STARTCHAR uni03D7
ENCODING 983
SWIDTH 540 0
DWIDTH 9 0
BBX 9 18 0 -4
BITMAP
0000
0000
0000
2000
1000
0800
0000
6100
1200
1400
1800
1400
2500
4300
0100
0200
3C00
0000
ENDCHAR
STARTCHAR uni03D8
ENCODING 984
SWIDTH 540 0
DWIDTH 9 0
BBX 9 18 0 -4
BITMAP
0000
0000
0000
0000
3E00
4100
4100
4100
4100
4100
4100
4100
4100
3E00
0800
0800
0800
0000
ENDCHAR
STARTCHAR uni03D9
ENCODING 985
SWIDTH 540 0
DWIDTH 9 0
BBX 9 18 0 -4
BITMAP
0000
0000
0000
0000
0000
0000
0000
3E00
4100
4100
4100
4100
4100
3E00
0800
0800
0800
0000
ENDCHAR
STARTCHAR uni03DA
ENCODING 986
SWIDTH 540 0
DWIDTH 9 0
BBX 9 18 0 -4
BITMAP
0000
0000
0000
0000
1E00
2100
4000
4000
4000
4000
4000
4000
3E00
0100
0100
0600
0000
0000
ENDCHAR
STARTCHAR uni03DB
ENCODING 987
SWIDTH 540 0
DWIDTH 9 0
BBX 9 18 0 -4
BITMAP
0000
0000
0000
0000
0000
0000
0100
3E00
4000
4000
4000
4000
4000
3E00
0100
0100
0600
0000
ENDCHAR
STARTCHAR uni03DC
ENCODING 988
SWIDTH 540 0
DWIDTH 9 0
BBX 9 18 0 -4
BITMAP
0000
0000
0000
0000
7F00
4000
4000
4000
7C00
4000
4000
4000
4000
4000
0000
0000
0000
0000
ENDCHAR
STARTCHAR uni03DD
ENCODING 989
SWIDTH 540 0
DWIDTH 9 0
BBX 9 18 0 -4
BITMAP
0000
0000
0000
0000
0000
0000
0000
3E00
2000
2000
2000
3C00
2000
2000
2000
2000
2000
0000
ENDCHAR
STARTCHAR uni03DE
ENCODING 990
SWIDTH 540 0
DWIDTH 9 0
BBX 9 18 0 -4
BITMAP
0000
0000
0000
0000
8000
4000
4200
4600
4A00
5200
6200
4200
0200
0100
0000
0000
0000
0000
ENDCHAR
STARTCHAR uni03DF
ENCODING 991
SWIDTH 540 0
DWIDTH 9 0
BBX 9 18 0 -4
BITMAP
0000
0000
0000
0000
1000
1000
2000
2000
2000
4000
7E00
0200
0400
0400
0400
0800
0800
0000
ENDCHAR
STARTCHAR uni03E0
ENCODING 992
SWIDTH 540 0
DWIDTH 9 0
BBX 9 18 0 -4
BITMAP
0000
0000
0000
0000
0800
1400
1400
1400
2200
2600
2600
4900
4900
4900
0000
0000
0000
0000
ENDCHAR
STARTCHAR uni03E1
ENCODING 993
SWIDTH 540 0
DWIDTH 9 0
BBX 9 18 0 -4
BITMAP
0000
0000
0000
0000
6000
1800
0400
0400
0A00
1200
2500
0900
1100
0100
0100
0100
0100
0000
ENDCHAR
STARTCHAR uni03E2
ENCODING 994
SWIDTH 540 0
DWIDTH 9 0
BBX 9 18 0 -4
BITMAP
0000
0000
0000
0000
4900
4900
4900
4900
4900
4900
4900
3700
0100
3E00
0000
0000
0000
0000
ENDCHAR
STARTCHAR uni03E3
ENCODING 995
SWIDTH 540 0
DWIDTH 9 0
BBX 9 18 0 -4
BITMAP
0000
0000
0000
0000
0000
0000
0000
4900
4900
4900
4900
4900
4900
3700
0100
3E00
0000
0000
ENDCHAR
STARTCHAR uni03E4
ENCODING 996
SWIDTH 540 0
DWIDTH 9 0
BBX 9 18 0 -4
BITMAP
0000
0000
0000
0000
3100
4900
4100
4100
4100
4100
3F00
0100
0100
0100
0000
0000
0000
0000
ENDCHAR
STARTCHAR uni03E5
ENCODING 997
SWIDTH 540 0
DWIDTH 9 0
BBX 9 18 0 -4
BITMAP
0000
0000
0000
0000
1400
2400
2400
2400
2400
1C00
0400
0400
0400
0400
0000
0000
0000
0000
ENDCHAR
STARTCHAR uni03E6
ENCODING 998
SWIDTH 540 0
DWIDTH 9 0
BBX 9 18 0 -4
BITMAP
0000
0000
0000
0000
7000
2000
2000
2000
3C00
2200
2100
2100
2100
7100
0200
1C00
0000
0000
ENDCHAR
STARTCHAR uni03E7
ENCODING 999
SWIDTH 540 0
DWIDTH 9 0
BBX 9 18 0 -4
BITMAP
0000
0000
0000
0000
0000
0000
1000
1000
3E00
5100
2100
0100
4100
3E00
0000
0000
0000
0000
ENDCHAR
STARTCHAR uni03E8
ENCODING 1000
SWIDTH 540 0
DWIDTH 9 0
BBX 9 18 0 -4
BITMAP
0000
0000
0000
0000
3E00
4100
4100
2100
0200
1C00
2000
4100
4100
3E00
0000
0000
0000
0000
ENDCHAR
STARTCHAR uni03E9
ENCODING 1001
SWIDTH 540 0
DWIDTH 9 0
BBX 9 18 0 -4
BITMAP
0000
0000
0000
0000
3C00
4200
4200
4200
2400
1800
3000
4000
4000
3E00
0000
0000
0000
0000
ENDCHAR
STARTCHAR uni03EA
ENCODING 1002
SWIDTH 540 0
DWIDTH 9 0
BBX 9 18 0 -4
BITMAP
0000
0000
0000
0000
6300
1400
0800
0800
1400
1400
2200
2200
4100
7F00
0000
0000
0000
0000
ENDCHAR
STARTCHAR uni03EB
ENCODING 1003
SWIDTH 540 0
DWIDTH 9 0
BBX 9 18 0 -4
BITMAP
0000
0000
0000
0000
0000
0000
6300
1400
0800
0800
1400
1400
2200
3E00
0000
0000
0000
0000
ENDCHAR
STARTCHAR uni03EC
ENCODING 1004
SWIDTH 540 0
DWIDTH 9 0
BBX 9 18 0 -4
BITMAP
0000
0000
0000
0000
3E00
4000
5E00
6100
4100
4100
4100
4100
2100
1E00
0000
0000
0000
0000
ENDCHAR
STARTCHAR uni03ED
ENCODING 1005
SWIDTH 540 0
DWIDTH 9 0
BBX 9 18 0 -4
BITMAP
0000
0000
0000
0000
0000
0000
0000
3F00
4000
5E00
4100
4100
4100
3E00
0000
0000
0000
0000
ENDCHAR
STARTCHAR uni03EE
ENCODING 1006
SWIDTH 540 0
DWIDTH 9 0
BBX 9 18 0 -4
BITMAP
0000
0000
0000
0000
1C00
0800
7F00
4900
0800
0800
0800
0800
0800
0800
0000
0000
0000
0000
ENDCHAR
STARTCHAR uni03EF
ENCODING 1007
SWIDTH 540 0
DWIDTH 9 0
BBX 9 18 0 -4
BITMAP
0000
0000
0000
0000
0000
0000
0800
0900
7F00
4800
0800
0800
0800
0800
0000
0000
0000
0000
ENDCHAR
STARTCHAR uni03F0
ENCODING 1008
SWIDTH 540 0
DWIDTH 9 0
BBX 9 18 0 -4
BITMAP
0000
0000
0000
0000
0000
0000
0000
6100
1200
1400
1800
1400
2400
4300
0000
0000
0000
0000
ENDCHAR
STARTCHAR uni03F1
ENCODING 1009
SWIDTH 540 0
DWIDTH 9 0
BBX 9 18 0 -4
BITMAP
0000
0000
0000
0000
0000
0000
0000
3E00
4100
4100
4100
4100
6100
5E00
4000
2000
1E00
0000
ENDCHAR
STARTCHAR uni03F2
ENCODING 1010
SWIDTH 540 0
DWIDTH 9 0
BBX 9 18 0 -4
BITMAP
0000
0000
0000
0000
0000
0000
0000
3E00
4100
4000
4000
4000
4100
3E00
0000
0000
0000
0000
ENDCHAR
STARTCHAR uni03F3
ENCODING 1011
SWIDTH 540 0
DWIDTH 9 0
BBX 9 18 0 -4
BITMAP
0000
0000
0000
0000
0600
0000
0000
0E00
0200
0200
0200
0200
0200
0200
2200
2200
1C00
0000
ENDCHAR
STARTCHAR uni03F4
ENCODING 1012
SWIDTH 540 0
DWIDTH 9 0
BBX 9 18 0 -4
BITMAP
0000
0000
0000
0000
3E00
4100
4100
4100
7F00
4100
4100
4100
4100
3E00
0000
0000
0000
0000
ENDCHAR
STARTCHAR uni03F5
ENCODING 1013
SWIDTH 540 0
DWIDTH 9 0
BBX 9 18 0 -4
BITMAP
0000
0000
0000
0000
0000
0000
0000
3E00
4000
4000
7C00
4000
4000
3E00
0000
0000
0000
0000
ENDCHAR
STARTCHAR uni03F6
ENCODING 1014
SWIDTH 540 0
DWIDTH 9 0
BBX 9 18 0 -4
BITMAP
0000
0000
0000
0000
0000
0000
0000
7C00
0200
0200
3E00
0200
0200
7C00
0000
0000
0000
0000
ENDCHAR
STARTCHAR uni0400
ENCODING 1024
SWIDTH 540 0
DWIDTH 9 0
BBX 9 18 0 -4
BITMAP
1000
0800
0400
0000
7F00
4000
4000
4000
7C00
4000
4000
4000
4000
7F00
0000
0000
0000
0000
ENDCHAR
STARTCHAR afii10023
ENCODING 1025
SWIDTH 540 0
DWIDTH 9 0
BBX 9 18 0 -4
BITMAP
0000
1400
1400
0000
7F00
4000
4000
4000
7C00
4000
4000
4000
4000
7F00
0000
0000
0000
0000
ENDCHAR
STARTCHAR afii10051
ENCODING 1026
SWIDTH 540 0
DWIDTH 9 0
BBX 9 18 0 -4
BITMAP
0000
0000
0000
0000
7C00
1000
1000
1600
1900
1100
1100
1100
1100
1100
0100
0600
0000
0000
ENDCHAR
STARTCHAR afii10052
ENCODING 1027
SWIDTH 540 0
DWIDTH 9 0
BBX 9 18 0 -4
BITMAP
0200
0400
0800
0000
3F00
2000
2000
2000
2000
2000
2000
2000
2000
2000
0000
0000
0000
0000
ENDCHAR
STARTCHAR afii10053
ENCODING 1028
SWIDTH 540 0
DWIDTH 9 0
BBX 9 18 0 -4
BITMAP
0000
0000
0000
0000
1E00
2100
4000
4000
7800
4000
4000
4000
2100
1E00
0000
0000
0000
0000
ENDCHAR
STARTCHAR afii10054
ENCODING 1029
SWIDTH 540 0
DWIDTH 9 0
BBX 9 18 0 -4
BITMAP
0000
0000
0000
0000
3E00
4100
4000
4000
3E00
0100
0100
0100
4100
3E00
0000
0000
0000
0000
ENDCHAR
STARTCHAR afii10055
ENCODING 1030
SWIDTH 540 0
DWIDTH 9 0
BBX 9 18 0 -4
BITMAP
0000
0000
0000
0000
3E00
0800
0800
0800
0800
0800
0800
0800
0800
3E00
0000
0000
0000
0000
ENDCHAR
STARTCHAR afii10056
ENCODING 1031
SWIDTH 540 0
DWIDTH 9 0
BBX 9 18 0 -4
BITMAP
0000
1400
1400
0000
3E00
0800
0800
0800
0800
0800
0800
0800
0800
3E00
0000
0000
0000
0000
ENDCHAR
STARTCHAR afii10057
ENCODING 1032
SWIDTH 540 0
DWIDTH 9 0
BBX 9 18 0 -4
BITMAP
0000
0000
0000
0000
0F00
0200
0200
0200
0200
0200
0200
0200
4200
3C00
0000
0000
0000
0000
ENDCHAR
STARTCHAR afii10058
ENCODING 1033
SWIDTH 540 0
DWIDTH 9 0
BBX 9 18 0 -4
BITMAP
0000
0000
0000
0000
7800
4800
4800
4800
4E00
4900
4900
4900
4900
8E00
0000
0000
0000
0000
ENDCHAR
STARTCHAR afii10059
ENCODING 1034
SWIDTH 540 0
DWIDTH 9 0
BBX 9 18 0 -4
BITMAP
0000
0000
0000
0000
4800
4800
4800
4800
7E00
4900
4900
4900
4900
4E00
0000
0000
0000
0000
ENDCHAR
STARTCHAR afii10060
ENCODING 1035
SWIDTH 540 0
DWIDTH 9 0
BBX 9 18 0 -4
BITMAP
0000
0000
0000
0000
7E00
1000
1000
1000
1E00
1100
1100
1100
1100
1100
0000
0000
0000
0000
ENDCHAR
STARTCHAR afii10061
ENCODING 1036
SWIDTH 540 0
DWIDTH 9 0
BBX 9 18 0 -4
BITMAP
0400
0800
1000
0000
4100
4200
4400
4800
5000
6800
4400
4200
4100
4100
0000
0000
0000
0000
ENDCHAR
STARTCHAR uni040D
ENCODING 1037
SWIDTH 540 0
DWIDTH 9 0
BBX 9 18 0 -4
BITMAP
1000
0800
0400
0000
4100
4100
4300
4500
4900
5100
6100
4100
4100
4100
0000
0000
0000
0000
ENDCHAR
STARTCHAR afii10062
ENCODING 1038
SWIDTH 540 0
DWIDTH 9 0
BBX 9 18 0 -4
BITMAP
0000
1100
0E00
0000
2100
2100
1200
1200
1200
0C00
0C00
0800
4800
3000
0000
0000
0000
0000
ENDCHAR
STARTCHAR afii10145
ENCODING 1039
SWIDTH 540 0
DWIDTH 9 0
BBX 9 18 0 -4
BITMAP
0000
0000
0000
0000
4100
4100
4100
4100
4100
4100
4100
4100
4100
7F00
0800
0800
0000
0000
ENDCHAR
STARTCHAR afii10017
ENCODING 1040
SWIDTH 540 0
DWIDTH 9 0
BBX 9 18 0 -4
BITMAP
0000
0000
0000
0000
0800
1400
1400
1400
2200
3E00
2200
4100
4100
4100
0000
0000
0000
0000
ENDCHAR
STARTCHAR afii10018
ENCODING 1041
SWIDTH 540 0
DWIDTH 9 0
BBX 9 18 0 -4
BITMAP
0000
0000
0000
0000
7E00
4000
4000
4000
7C00
4200
4100
4100
4200
7C00
0000
0000
0000
0000
ENDCHAR
STARTCHAR afii10019
ENCODING 1042
SWIDTH 540 0
DWIDTH 9 0
BBX 9 18 0 -4
BITMAP
0000
0000
0000
0000
7C00
4200
4100
4200
7C00
4200
4100
4100
4200
7C00
0000
0000
0000
0000
ENDCHAR
STARTCHAR afii10020
ENCODING 1043
SWIDTH 540 0
DWIDTH 9 0
BBX 9 18 0 -4
BITMAP
0000
0000
0000
0000
3F00
2000
2000
2000
2000
2000
2000
2000
2000
2000
0000
0000
0000
0000
ENDCHAR
STARTCHAR afii10021
ENCODING 1044
SWIDTH 540 0
DWIDTH 9 0
BBX 9 18 0 -4
BITMAP
0000
0000
0000
0000
1E00
1200
1200
1200
1200
2200
2200
2200
2200
7F00
4100
4100
0000
0000
ENDCHAR
STARTCHAR afii10022
ENCODING 1045
SWIDTH 540 0
DWIDTH 9 0
BBX 9 18 0 -4
BITMAP
0000
0000
0000
0000
7F00
4000
4000
4000
7C00
4000
4000
4000
4000
7F00
0000
0000
0000
0000
ENDCHAR
STARTCHAR afii10024
ENCODING 1046
SWIDTH 540 0
DWIDTH 9 0
BBX 9 18 0 -4
BITMAP
0000
0000
0000
0000
4900
4900
2A00
2A00
1C00
2A00
2A00
4900
4900
4900
0000
0000
0000
0000
ENDCHAR
STARTCHAR afii10025
ENCODING 1047
SWIDTH 540 0
DWIDTH 9 0
BBX 9 18 0 -4
BITMAP
0000
0000
0000
0000
3E00
4100
0100
0200
0C00
0200
0100
0100
4100
3E00
0000
0000
0000
0000
ENDCHAR
STARTCHAR afii10026
ENCODING 1048
SWIDTH 540 0
DWIDTH 9 0
BBX 9 18 0 -4
BITMAP
0000
0000
0000
0000
4100
4100
4300
4500
4900
5100
6100
4100
4100
4100
0000
0000
0000
0000
ENDCHAR
STARTCHAR afii10027
ENCODING 1049
SWIDTH 540 0
DWIDTH 9 0
BBX 9 18 0 -4
BITMAP
0000
2200
1C00
0000
4100
4100
4300
4500
4900
5100
6100
4100
4100
4100
0000
0000
0000
0000
ENDCHAR
STARTCHAR afii10028
ENCODING 1050
SWIDTH 540 0
DWIDTH 9 0
BBX 9 18 0 -4
BITMAP
0000
0000
0000
0000
4100
4200
4400
4800
5000
6800
4400
4200
4100
4100
0000
0000
0000
0000
ENDCHAR
STARTCHAR afii10029
ENCODING 1051
SWIDTH 540 0
DWIDTH 9 0
BBX 9 18 0 -4
BITMAP
0000
0000
0000
0000
0F00
1100
1100
1100
1100
2100
2100
2100
2100
4100
0000
0000
0000
0000
ENDCHAR
STARTCHAR afii10030
ENCODING 1052
SWIDTH 540 0
DWIDTH 9 0
BBX 9 18 0 -4
BITMAP
0000
0000
0000
0000
4100
4100
6300
5500
4900
4100
4100
4100
4100
4100
0000
0000
0000
0000
ENDCHAR
STARTCHAR afii10031
ENCODING 1053
SWIDTH 540 0
DWIDTH 9 0
BBX 9 18 0 -4
BITMAP
0000
0000
0000
0000
4100
4100
4100
4100
7F00
4100
4100
4100
4100
4100
0000
0000
0000
0000
ENDCHAR
STARTCHAR afii10032
ENCODING 1054
SWIDTH 540 0
DWIDTH 9 0
BBX 9 18 0 -4
BITMAP
0000
0000
0000
0000
3E00
4100
4100
4100
4100
4100
4100
4100
4100
3E00
0000
0000
0000
0000
ENDCHAR
STARTCHAR afii10033
ENCODING 1055
SWIDTH 540 0
DWIDTH 9 0
BBX 9 18 0 -4
BITMAP
0000
0000
0000
0000
7F00
4100
4100
4100
4100
4100
4100
4100
4100
4100
0000
0000
0000
0000
ENDCHAR
STARTCHAR afii10034
ENCODING 1056
SWIDTH 540 0
DWIDTH 9 0
BBX 9 18 0 -4
BITMAP
0000
0000
0000
0000
7C00
4200
4100
4100
4200
7C00
4000
4000
4000
4000
0000
0000
0000
0000
ENDCHAR
STARTCHAR afii10035
ENCODING 1057
SWIDTH 540 0
DWIDTH 9 0
BBX 9 18 0 -4
BITMAP
0000
0000
0000
0000
1E00
2100
4000
4000
4000
4000
4000
4000
2100
1E00
0000
0000
0000
0000
ENDCHAR
STARTCHAR afii10036
ENCODING 1058
SWIDTH 540 0
DWIDTH 9 0
BBX 9 18 0 -4
BITMAP
0000
0000
0000
0000
7F00
0800
0800
0800
0800
0800
0800
0800
0800
0800
0000
0000
0000
0000
ENDCHAR
STARTCHAR afii10037
ENCODING 1059
SWIDTH 540 0
DWIDTH 9 0
BBX 9 18 0 -4
BITMAP
0000
0000
0000
0000
2100
2100
1200
1200
1200
0C00
0C00
0800
4800
3000
0000
0000
0000
0000
ENDCHAR
STARTCHAR afii10038
ENCODING 1060
SWIDTH 540 0
DWIDTH 9 0
BBX 9 18 0 -4
BITMAP
0000
0000
0000
0000
0800
3E00
4900
4900
4900
4900
4900
4900
3E00
0800
0000
0000
0000
0000
ENDCHAR
STARTCHAR afii10039
ENCODING 1061
SWIDTH 540 0
DWIDTH 9 0
BBX 9 18 0 -4
BITMAP
0000
0000
0000
0000
4100
4100
2200
1400
0800
0800
1400
2200
4100
4100
0000
0000
0000
0000
ENDCHAR
STARTCHAR afii10040
ENCODING 1062
SWIDTH 540 0
DWIDTH 9 0
BBX 9 18 0 -4
BITMAP
0000
0000
0000
0000
4200
4200
4200
4200
4200
4200
4200
4200
4200
7F00
0100
0100
0000
0000
ENDCHAR
STARTCHAR afii10041
ENCODING 1063
SWIDTH 540 0
DWIDTH 9 0
BBX 9 18 0 -4
BITMAP
0000
0000
0000
0000
4100
4100
4100
4100
3F00
0100
0100
0100
0100
0100
0000
0000
0000
0000
ENDCHAR
STARTCHAR afii10042
ENCODING 1064
SWIDTH 540 0
DWIDTH 9 0
BBX 9 18 0 -4
BITMAP
0000
0000
0000
0000
4900
4900
4900
4900
4900
4900
4900
4900
4900
7F00
0000
0000
0000
0000
ENDCHAR
STARTCHAR afii10043
ENCODING 1065
SWIDTH 540 0
DWIDTH 9 0
BBX 9 18 0 -4
BITMAP
0000
0000
0000
0000
4900
4900
4900
4900
4900
4900
4900
4900
4900
7F80
0080
0080
0000
0000
ENDCHAR
STARTCHAR afii10044
ENCODING 1066
SWIDTH 540 0
DWIDTH 9 0
BBX 9 18 0 -4
BITMAP
0000
0000
0000
0000
7000
1000
1000
1000
1C00
1200
1100
1100
1200
1C00
0000
0000
0000
0000
ENDCHAR
STARTCHAR afii10045
ENCODING 1067
SWIDTH 540 0
DWIDTH 9 0
BBX 9 18 0 -4
BITMAP
0000
0000
0000
0000
4100
4100
4100
4100
7100
4900
4500
4500
4900
7100
0000
0000
0000
0000
ENDCHAR
STARTCHAR afii10046
ENCODING 1068
SWIDTH 540 0
DWIDTH 9 0
BBX 9 18 0 -4
BITMAP
0000
0000
0000
0000
4000
4000
4000
4000
7C00
4200
4100
4100
4200
7C00
0000
0000
0000
0000
ENDCHAR
STARTCHAR afii10047
ENCODING 1069
SWIDTH 540 0
DWIDTH 9 0
BBX 9 18 0 -4
BITMAP
0000
0000
0000
0000
3C00
4200
0100
0100
0F00
0100
0100
0100
4200
3C00
0000
0000
0000
0000
ENDCHAR
STARTCHAR afii10048
ENCODING 1070
SWIDTH 540 0
DWIDTH 9 0
BBX 9 18 0 -4
BITMAP
0000
0000
0000
0000
4E00
5100
5100
5100
7100
5100
5100
5100
5100
4E00
0000
0000
0000
0000
ENDCHAR
STARTCHAR afii10049
ENCODING 1071
SWIDTH 540 0
DWIDTH 9 0
BBX 9 18 0 -4
BITMAP
0000
0000
0000
0000
1F00
2100
4100
4100
2100
1F00
0900
1100
2100
4100
0000
0000
0000
0000
ENDCHAR
STARTCHAR afii10065
ENCODING 1072
SWIDTH 540 0
DWIDTH 9 0
BBX 9 18 0 -4
BITMAP
0000
0000
0000
0000
0000
0000
0000
3E00
0100
0100
3F00
4100
4300
3D00
0000
0000
0000
0000
ENDCHAR
STARTCHAR afii10066
ENCODING 1073
SWIDTH 540 0
DWIDTH 9 0
BBX 9 18 0 -4
BITMAP
0000
0000
0000
0000
0100
3E00
4000
5E00
6100
4100
4100
4100
4100
3E00
0000
0000
0000
0000
ENDCHAR
STARTCHAR afii10067
ENCODING 1074
SWIDTH 540 0
DWIDTH 9 0
BBX 9 18 0 -4
BITMAP
0000
0000
0000
0000
0000
0000
0000
7E00
4100
4100
7E00
4100
4100
7E00
0000
0000
0000
0000
ENDCHAR
STARTCHAR afii10068
ENCODING 1075
SWIDTH 540 0
DWIDTH 9 0
BBX 9 18 0 -4
BITMAP
0000
0000
0000
0000
0000
0000
0000
3F00
2000
2000
2000
2000
2000
2000
0000
0000
0000
0000
ENDCHAR
STARTCHAR afii10069
ENCODING 1076
SWIDTH 540 0
DWIDTH 9 0
BBX 9 18 0 -4
BITMAP
0000
0000
0000
0000
0000
0000
0000
1E00
1200
1200
1200
2200
2200
7F00
4100
4100
0000
0000
ENDCHAR
STARTCHAR afii10070
ENCODING 1077
SWIDTH 540 0
DWIDTH 9 0
BBX 9 18 0 -4
BITMAP
0000
0000
0000
0000
0000
0000
0000
3E00
4100
4100
7F00
4000
4100
3E00
0000
0000
0000
0000
ENDCHAR
STARTCHAR afii10072
ENCODING 1078
SWIDTH 540 0
DWIDTH 9 0
BBX 9 18 0 -4
BITMAP
0000
0000
0000
0000
0000
0000
0000
4900
4900
2A00
1C00
2A00
4900
4900
0000
0000
0000
0000
ENDCHAR
STARTCHAR afii10073
ENCODING 1079
SWIDTH 540 0
DWIDTH 9 0
BBX 9 18 0 -4
BITMAP
0000
0000
0000
0000
0000
0000
0000
3E00
4100
0100
0E00
0100
4100
3E00
0000
0000
0000
0000
ENDCHAR
STARTCHAR afii10074
ENCODING 1080
SWIDTH 540 0
DWIDTH 9 0
BBX 9 18 0 -4
BITMAP
0000
0000
0000
0000
0000
0000
0000
4100
4300
4500
4900
5100
6100
4100
0000
0000
0000
0000
ENDCHAR
STARTCHAR afii10075
ENCODING 1081
SWIDTH 540 0
DWIDTH 9 0
BBX 9 18 0 -4
BITMAP
0000
0000
0000
0000
2200
1C00
0000
4100
4300
4500
4900
5100
6100
4100
0000
0000
0000
0000
ENDCHAR
STARTCHAR afii10076
ENCODING 1082
SWIDTH 540 0
DWIDTH 9 0
BBX 9 18 0 -4
BITMAP
0000
0000
0000
0000
0000
0000
0000
4100
4200
4400
7800
4400
4200
4100
0000
0000
0000
0000
ENDCHAR
STARTCHAR afii10077
ENCODING 1083
SWIDTH 540 0
DWIDTH 9 0
BBX 9 18 0 -4
BITMAP
0000
0000
0000
0000
0000
0000
0000
0F00
1100
1100
1100
1100
1100
2100
0000
0000
0000
0000
ENDCHAR
STARTCHAR afii10078
ENCODING 1084
SWIDTH 540 0
DWIDTH 9 0
BBX 9 18 0 -4
BITMAP
0000
0000
0000
0000
0000
0000
0000
4100
6300
5500
4900
4100
4100
4100
0000
0000
0000
0000
ENDCHAR
STARTCHAR afii10079
ENCODING 1085
SWIDTH 540 0
DWIDTH 9 0
BBX 9 18 0 -4
BITMAP
0000
0000
0000
0000
0000
0000
0000
4100
4100
4100
7F00
4100
4100
4100
0000
0000
0000
0000
ENDCHAR
STARTCHAR afii10080
ENCODING 1086
SWIDTH 540 0
DWIDTH 9 0
BBX 9 18 0 -4
BITMAP
0000
0000
0000
0000
0000
0000
0000
3E00
4100
4100
4100
4100
4100
3E00
0000
0000
0000
0000
ENDCHAR
STARTCHAR afii10081
ENCODING 1087
SWIDTH 540 0
DWIDTH 9 0
BBX 9 18 0 -4
BITMAP
0000
0000
0000
0000
0000
0000
0000
7F00
4100
4100
4100
4100
4100
4100
0000
0000
0000
0000
ENDCHAR
STARTCHAR afii10082
ENCODING 1088
SWIDTH 540 0
DWIDTH 9 0
BBX 9 18 0 -4
BITMAP
0000
0000
0000
0000
0000
0000
0000
5C00
6200
4100
4100
4100
6200
5C00
4000
4000
4000
0000
ENDCHAR
STARTCHAR afii10083
ENCODING 1089
SWIDTH 540 0
DWIDTH 9 0
BBX 9 18 0 -4
BITMAP
0000
0000
0000
0000
0000
0000
0000
3E00
4100
4000
4000
4000
4100
3E00
0000
0000
0000
0000
ENDCHAR
STARTCHAR afii10084
ENCODING 1090
SWIDTH 540 0
DWIDTH 9 0
BBX 9 18 0 -4
BITMAP
0000
0000
0000
0000
0000
0000
0000
7F00
0800
0800
0800
0800
0800
0800
0000
0000
0000
0000
ENDCHAR
STARTCHAR afii10085
ENCODING 1091
SWIDTH 540 0
DWIDTH 9 0
BBX 9 18 0 -4
BITMAP
0000
0000
0000
0000
0000
0000
0000
2100
2100
1200
1200
1200
0C00
0C00
0800
4800
3000
0000
ENDCHAR
STARTCHAR afii10086
ENCODING 1092
SWIDTH 540 0
DWIDTH 9 0
BBX 9 18 0 -4
BITMAP
0000
0000
0000
0000
0800
0800
0800
3E00
4900
4900
4900
4900
4900
3E00
0800
0800
0800
0000
ENDCHAR
STARTCHAR afii10087
ENCODING 1093
SWIDTH 540 0
DWIDTH 9 0
BBX 9 18 0 -4
BITMAP
0000
0000
0000
0000
0000
0000
0000
4100
2200
1400
0800
1400
2200
4100
0000
0000
0000
0000
ENDCHAR
STARTCHAR afii10088
ENCODING 1094
SWIDTH 540 0
DWIDTH 9 0
BBX 9 18 0 -4
BITMAP
0000
0000
0000
0000
0000
0000
0000
4200
4200
4200
4200
4200
4200
7F00
0100
0100
0000
0000
ENDCHAR
STARTCHAR afii10089
ENCODING 1095
SWIDTH 540 0
DWIDTH 9 0
BBX 9 18 0 -4
BITMAP
0000
0000
0000
0000
0000
0000
0000
4100
4100
4100
3F00
0100
0100
0100
0000
0000
0000
0000
ENDCHAR
STARTCHAR afii10090
ENCODING 1096
SWIDTH 540 0
DWIDTH 9 0
BBX 9 18 0 -4
BITMAP
0000
0000
0000
0000
0000
0000
0000
4900
4900
4900
4900
4900
4900
7F00
0000
0000
0000
0000
ENDCHAR
STARTCHAR afii10091
ENCODING 1097
SWIDTH 540 0
DWIDTH 9 0
BBX 9 18 0 -4
BITMAP
0000
0000
0000
0000
0000
0000
0000
4900
4900
4900
4900
4900
4900
7F80
0080
0080
0000
0000
ENDCHAR
STARTCHAR afii10092
ENCODING 1098
SWIDTH 540 0
DWIDTH 9 0
BBX 9 18 0 -4
BITMAP
0000
0000
0000
0000
0000
0000
0000
7000
1000
1000
1E00
1100
1100
1E00
0000
0000
0000
0000
ENDCHAR
STARTCHAR afii10093
ENCODING 1099
SWIDTH 540 0
DWIDTH 9 0
BBX 9 18 0 -4
BITMAP
0000
0000
0000
0000
0000
0000
0000
4100
4100
4100
7900
4500
4500
7900
0000
0000
0000
0000
ENDCHAR
STARTCHAR afii10094
ENCODING 1100
SWIDTH 540 0
DWIDTH 9 0
BBX 9 18 0 -4
BITMAP
0000
0000
0000
0000
0000
0000
0000
2000
2000
2000
3E00
2100
2100
3E00
0000
0000
0000
0000
ENDCHAR
STARTCHAR afii10095
ENCODING 1101
SWIDTH 540 0
DWIDTH 9 0
BBX 9 18 0 -4
BITMAP
0000
0000
0000
0000
0000
0000
0000
3E00
4100
0100
0F00
0100
4100
3E00
0000
0000
0000
0000
ENDCHAR
STARTCHAR afii10096
ENCODING 1102
SWIDTH 540 0
DWIDTH 9 0
BBX 9 18 0 -4
BITMAP
0000
0000
0000
0000
0000
0000
0000
4E00
5100
5100
7100
5100
5100
4E00
0000
0000
0000
0000
ENDCHAR
STARTCHAR afii10097
ENCODING 1103
SWIDTH 540 0
DWIDTH 9 0
BBX 9 18 0 -4
BITMAP
0000
0000
0000
0000
0000
0000
0000
3F00
4100
4100
3F00
1100
2100
4100
0000
0000
0000
0000
ENDCHAR
STARTCHAR uni0450
ENCODING 1104
SWIDTH 540 0
DWIDTH 9 0
BBX 9 18 0 -4
BITMAP
0000
0000
0000
1000
0800
0400
0000
3E00
4100
4100
7F00
4000
4100
3E00
0000
0000
0000
0000
ENDCHAR
STARTCHAR afii10071
ENCODING 1105
SWIDTH 540 0
DWIDTH 9 0
BBX 9 18 0 -4
BITMAP
0000
0000
0000
0000
1400
1400
0000
3E00
4100
4100
7F00
4000
4100
3E00
0000
0000
0000
0000
ENDCHAR
STARTCHAR afii10099
ENCODING 1106
SWIDTH 540 0
DWIDTH 9 0
BBX 9 18 0 -4
BITMAP
0000
0000
0000
0000
2000
7C00
2000
2E00
3100
2100
2100
2100
2100
2100
0100
0E00
0000
0000
ENDCHAR
STARTCHAR afii10100
ENCODING 1107
SWIDTH 540 0
DWIDTH 9 0
BBX 9 18 0 -4
BITMAP
0000
0000
0000
0200
0400
0800
0000
3F00
2000
2000
2000
2000
2000
2000
0000
0000
0000
0000
ENDCHAR
STARTCHAR afii10101
ENCODING 1108
SWIDTH 540 0
DWIDTH 9 0
BBX 9 18 0 -4
BITMAP
0000
0000
0000
0000
0000
0000
0000
3E00
4100
4000
7800
4000
4100
3E00
0000
0000
0000
0000
ENDCHAR
STARTCHAR afii10102
ENCODING 1109
SWIDTH 540 0
DWIDTH 9 0
BBX 9 18 0 -4
BITMAP
0000
0000
0000
0000
0000
0000
0000
3E00
4100
4000
3E00
0100
4100
3E00
0000
0000
0000
0000
ENDCHAR
STARTCHAR afii10103
ENCODING 1110
SWIDTH 540 0
DWIDTH 9 0
BBX 9 18 0 -4
BITMAP
0000
0000
0000
0000
1800
0000
0000
3800
0800
0800
0800
0800
0800
3E00
0000
0000
0000
0000
ENDCHAR
STARTCHAR afii10104
ENCODING 1111
SWIDTH 540 0
DWIDTH 9 0
BBX 9 18 0 -4
BITMAP
0000
0000
0000
2400
2400
0000
0000
3800
0800
0800
0800
0800
0800
3E00
0000
0000
0000
0000
ENDCHAR
STARTCHAR afii10105
ENCODING 1112
SWIDTH 540 0
DWIDTH 9 0
BBX 9 18 0 -4
BITMAP
0000
0000
0000
0000
0600
0000
0000
0E00
0200
0200
0200
0200
0200
0200
2200
2200
1C00
0000
ENDCHAR
STARTCHAR afii10106
ENCODING 1113
SWIDTH 540 0
DWIDTH 9 0
BBX 9 18 0 -4
BITMAP
0000
0000
0000
0000
0000
0000
0000
3800
2800
2800
2E00
2900
2900
4E00
0000
0000
0000
0000
ENDCHAR
STARTCHAR afii10107
ENCODING 1114
SWIDTH 540 0
DWIDTH 9 0
BBX 9 18 0 -4
BITMAP
0000
0000
0000
0000
0000
0000
0000
4800
4800
4800
7E00
4900
4900
4E00
0000
0000
0000
0000
ENDCHAR
STARTCHAR afii10108
ENCODING 1115
SWIDTH 540 0
DWIDTH 9 0
BBX 9 18 0 -4
BITMAP
0000
0000
0000
0000
2000
7C00
2000
2E00
3100
2100
2100
2100
2100
2100
0000
0000
0000
0000
ENDCHAR
STARTCHAR afii10109
ENCODING 1116
SWIDTH 540 0
DWIDTH 9 0
BBX 9 18 0 -4
BITMAP
0000
0000
0000
0400
0800
1000
0000
4100
4200
4400
7800
4400
4200
4100
0000
0000
0000
0000
ENDCHAR
STARTCHAR uni045D
ENCODING 1117
SWIDTH 540 0
DWIDTH 9 0
BBX 9 18 0 -4
BITMAP
0000
0000
0000
1000
0800
0400
0000
4100
4300
4500
4900
5100
6100
4100
0000
0000
0000
0000
ENDCHAR
STARTCHAR afii10110
ENCODING 1118
SWIDTH 540 0
DWIDTH 9 0
BBX 9 18 0 -4
BITMAP
0000
0000
0000
0000
1100
0E00
0000
2100
2100
1200
1200
1200
0C00
0C00
0800
4800
3000
0000
ENDCHAR
STARTCHAR afii10193
ENCODING 1119
SWIDTH 540 0
DWIDTH 9 0
BBX 9 18 0 -4
BITMAP
0000
0000
0000
0000
0000
0000
0000
4100
4100
4100
4100
4100
4100
7F00
0800
0800
0000
0000
ENDCHAR
STARTCHAR uni0460
ENCODING 1120
SWIDTH 540 0
DWIDTH 9 0
BBX 9 18 0 -4
BITMAP
0000
0000
0000
0000
2200
5500
5500
4100
4100
4100
4100
4900
4900
3600
0000
0000
0000
0000
ENDCHAR
STARTCHAR uni0461
ENCODING 1121
SWIDTH 540 0
DWIDTH 9 0
BBX 9 18 0 -4
BITMAP
0000
0000
0000
0000
0000
0000
0000
4100
4900
4900
4900
4900
4900
3600
0000
0000
0000
0000
ENDCHAR
STARTCHAR afii10146
ENCODING 1122
SWIDTH 540 0
DWIDTH 9 0
BBX 9 18 0 -4
BITMAP
0000
0000
0000
4000
4000
F800
4000
4000
7C00
4200
4100
4100
4200
7C00
0000
0000
0000
0000
ENDCHAR
STARTCHAR afii10194
ENCODING 1123
SWIDTH 540 0
DWIDTH 9 0
BBX 9 18 0 -4
BITMAP
0000
0000
0000
0000
2000
2000
2000
F800
2000
2000
3E00
2100
2100
3E00
0000
0000
0000
0000
ENDCHAR
STARTCHAR uni0464
ENCODING 1124
SWIDTH 540 0
DWIDTH 9 0
BBX 9 18 0 -4
BITMAP
0000
0000
0000
0000
4E00
5100
5000
5000
7F00
5000
5000
5000
5100
4E00
0000
0000
0000
0000
ENDCHAR
STARTCHAR uni0465
ENCODING 1125
SWIDTH 540 0
DWIDTH 9 0
BBX 9 18 0 -4
BITMAP
0000
0000
0000
0000
0000
0000
0000
4E00
5100
5000
7E00
5000
5100
4E00
0000
0000
0000
0000
ENDCHAR
STARTCHAR uni0466
ENCODING 1126
SWIDTH 540 0
DWIDTH 9 0
BBX 9 18 0 -4
BITMAP
0000
0000
0000
0000
0800
1400
1400
1400
2200
3E00
2A00
4900
4900
5D00
0000
0000
0000
0000
ENDCHAR
STARTCHAR uni0467
ENCODING 1127
SWIDTH 540 0
DWIDTH 9 0
BBX 9 18 0 -4
BITMAP
0000
0000
0000
0000
0000
0000
0000
0800
1400
1400
3E00
2A00
4900
5D00
0000
0000
0000
0000
ENDCHAR
STARTCHAR uni0468
ENCODING 1128
SWIDTH 540 0
DWIDTH 9 0
BBX 9 18 0 -4
BITMAP
0000
0000
0000
0000
4400
4400
4400
4A00
7A00
4A00
5500
5500
5500
5500
0000
0000
0000
0000
ENDCHAR
STARTCHAR uni0469
ENCODING 1129
SWIDTH 540 0
DWIDTH 9 0
BBX 9 18 0 -4
BITMAP
0000
0000
0000
0000
0000
0000
0000
4400
4400
4A00
7A00
5500
5500
5500
0000
0000
0000
0000
ENDCHAR
STARTCHAR uni046A
ENCODING 1130
SWIDTH 540 0
DWIDTH 9 0
BBX 9 18 0 -4
BITMAP
0000
0000
0000
0000
3E00
2200
2200
1400
0800
1C00
2A00
4900
4900
4900
0000
0000
0000
0000
ENDCHAR
STARTCHAR uni046B
ENCODING 1131
SWIDTH 540 0
DWIDTH 9 0
BBX 9 18 0 -4
BITMAP
0000
0000
0000
0000
0000
0000
0000
3E00
2200
1400
0800
3E00
4900
4900
0000
0000
0000
0000
ENDCHAR
STARTCHAR uni046C
ENCODING 1132
SWIDTH 540 0
DWIDTH 9 0
BBX 9 18 0 -4
BITMAP
0000
0000
0000
0000
5F00
5100
5100
4A00
7C00
4E00
5500
5500
5500
5500
0000
0000
0000
0000
ENDCHAR
STARTCHAR uni046D
ENCODING 1133
SWIDTH 540 0
DWIDTH 9 0
BBX 9 18 0 -4
BITMAP
0000
0000
0000
0000
0000
0000
0000
5F00
5100
4A00
7C00
4E00
5500
5500
0000
0000
0000
0000
ENDCHAR
STARTCHAR uni046E
ENCODING 1134
SWIDTH 540 0
DWIDTH 9 0
BBX 9 18 0 -4
BITMAP
0000
2200
1C00
0000
3E00
4100
0100
0200
0C00
0200
0100
0100
0100
3E00
4000
4000
3E00
0000
ENDCHAR
STARTCHAR uni046F
ENCODING 1135
SWIDTH 540 0
DWIDTH 9 0
BBX 9 18 0 -4
BITMAP
0000
0000
0000
0000
2200
1C00
0000
3E00
4100
0100
0E00
0100
0100
3E00
4000
4000
3C00
0000
ENDCHAR
STARTCHAR uni0470
ENCODING 1136
SWIDTH 540 0
DWIDTH 9 0
BBX 9 18 0 -4
BITMAP
0000
0000
0000
0000
4900
4900
4900
4900
4900
4900
3E00
0800
0800
0800
0000
0000
0000
0000
ENDCHAR
STARTCHAR uni0471
ENCODING 1137
SWIDTH 540 0
DWIDTH 9 0
BBX 9 18 0 -4
BITMAP
0000
0000
0000
0000
0000
0000
0000
4900
4900
4900
4900
4900
4900
3E00
0800
0800
0800
0000
ENDCHAR
STARTCHAR afii10147
ENCODING 1138
SWIDTH 540 0
DWIDTH 9 0
BBX 9 18 0 -4
BITMAP
0000
0000
0000
0000
3E00
4100
4100
4100
7F00
4100
4100
4100
4100
3E00
0000
0000
0000
0000
ENDCHAR
STARTCHAR afii10195
ENCODING 1139
SWIDTH 540 0
DWIDTH 9 0
BBX 9 18 0 -4
BITMAP
0000
0000
0000
0000
0000
0000
0000
1C00
2200
4100
7F00
4100
2200
1C00
0000
0000
0000
0000
ENDCHAR
STARTCHAR afii10148
ENCODING 1140
SWIDTH 540 0
DWIDTH 9 0
BBX 9 18 0 -4
BITMAP
0000
0000
0000
0000
4000
4100
4200
2200
2200
2400
1400
1400
1400
0800
0000
0000
0000
0000
ENDCHAR
STARTCHAR afii10196
ENCODING 1141
SWIDTH 540 0
DWIDTH 9 0
BBX 9 18 0 -4
BITMAP
0000
0000
0000
0000
0000
0000
0000
4100
4200
2200
2400
1400
1400
0800
0000
0000
0000
0000
ENDCHAR
STARTCHAR uni0476
ENCODING 1142
SWIDTH 540 0
DWIDTH 9 0
BBX 9 18 0 -4
BITMAP
4800
2400
1200
0000
4000
4100
4200
2200
2200
2400
1400
1400
1400
0800
0000
0000
0000
0000
ENDCHAR
STARTCHAR uni0477
ENCODING 1143
SWIDTH 540 0
DWIDTH 9 0
BBX 9 18 0 -4
BITMAP
0000
0000
0000
4800
2400
1200
0000
4100
4200
2200
2400
1400
1400
0800
0000
0000
0000
0000
ENDCHAR
STARTCHAR uni0478
ENCODING 1144
SWIDTH 540 0
DWIDTH 9 0
BBX 9 18 0 -4
BITMAP
0000
0000
0000
0000
2000
5000
5000
5500
5500
5500
5500
5500
5500
2300
0100
0100
0600
0000
ENDCHAR
STARTCHAR uni0479
ENCODING 1145
SWIDTH 540 0
DWIDTH 9 0
BBX 9 18 0 -4
BITMAP
0000
0000
0000
0000
0000
0000
0000
2500
5500
5500
5500
5500
5500
2300
0100
0100
0600
0000
ENDCHAR
STARTCHAR uni047A
ENCODING 1146
SWIDTH 540 0
DWIDTH 9 0
BBX 9 18 0 -4
BITMAP
0000
0000
0000
0800
3E00
4100
4100
4100
4100
4100
4100
4100
4100
3E00
0800
0000
0000
0000
ENDCHAR
STARTCHAR uni047B
ENCODING 1147
SWIDTH 540 0
DWIDTH 9 0
BBX 9 18 0 -4
BITMAP
0000
0000
0000
0000
0000
0000
0800
1C00
2200
4100
4100
4100
2200
1C00
0000
0000
0000
0000
ENDCHAR
STARTCHAR uni047C
ENCODING 1148
SWIDTH 540 0
DWIDTH 9 0
BBX 9 18 0 -4
BITMAP
0400
0800
1000
0000
2200
5500
5500
4100
4100
4100
4100
4900
4900
3600
0000
0000
0000
0000
ENDCHAR
STARTCHAR uni047D
ENCODING 1149
SWIDTH 540 0
DWIDTH 9 0
BBX 9 18 0 -4
BITMAP
0000
0000
0000
0400
0800
1000
0000
4100
4900
4900
4900
4900
4900
3600
0000
0000
0000
0000
ENDCHAR
STARTCHAR uni047E
ENCODING 1150
SWIDTH 540 0
DWIDTH 9 0
BBX 9 18 0 -4
BITMAP
0000
0000
3E00
0000
2200
5500
5500
4100
4100
4100
4100
4900
4900
3600
0000
0000
0000
0000
ENDCHAR
STARTCHAR uni047F
ENCODING 1151
SWIDTH 540 0
DWIDTH 9 0
BBX 9 18 0 -4
BITMAP
0000
0000
0000
0000
0000
3E00
0000
4100
4900
4900
4900
4900
4900
3600
0000
0000
0000
0000
ENDCHAR
STARTCHAR uni0480
ENCODING 1152
SWIDTH 540 0
DWIDTH 9 0
BBX 9 18 0 -4
BITMAP
0000
0000
0000
0000
1E00
2100
4000
4000
4000
4000
4000
4000
3C00
0400
0400
0400
0000
0000
ENDCHAR
STARTCHAR uni0481
ENCODING 1153
SWIDTH 540 0
DWIDTH 9 0
BBX 9 18 0 -4
BITMAP
0000
0000
0000
0000
0000
0000
0000
3E00
4100
4000
4000
4000
4000
3C00
0400
0400
0400
0000
ENDCHAR
STARTCHAR uni0482
ENCODING 1154
SWIDTH 540 0
DWIDTH 9 0
BBX 9 18 0 -4
BITMAP
0000
0000
0000
0000
0200
1200
0C00
0600
0900
4800
3000
1800
2400
2000
0000
0000
0000
0000
ENDCHAR
STARTCHAR uni0483
ENCODING 1155
SWIDTH 540 0
DWIDTH 9 0
BBX 9 18 0 -4
BITMAP
0200
3E00
2000
0000
0000
0000
0000
0000
0000
0000
0000
0000
0000
0000
0000
0000
0000
0000
ENDCHAR
STARTCHAR uni0484
ENCODING 1156
SWIDTH 540 0
DWIDTH 9 0
BBX 9 18 0 -4
BITMAP
0000
3800
4700
0000
0000
0000
0000
0000
0000
0000
0000
0000
0000
0000
0000
0000
0000
0000
ENDCHAR
STARTCHAR uni0485
ENCODING 1157
SWIDTH 540 0
DWIDTH 9 0
BBX 9 18 0 -4
BITMAP
3C00
6200
6100
0000
0000
0000
0000
0000
0000
0000
0000
0000
0000
0000
0000
0000
0000
0000
ENDCHAR
STARTCHAR uni0486
ENCODING 1158
SWIDTH 540 0
DWIDTH 9 0
BBX 9 18 0 -4
BITMAP
1E00
2300
4300
0000
0000
0000
0000
0000
0000
0000
0000
0000
0000
0000
0000
0000
0000
0000
ENDCHAR
STARTCHAR uni0488
ENCODING 1160
SWIDTH 540 0
DWIDTH 9 0
BBX 9 18 0 -4
BITMAP
0000
0000
0000
0000
2000
5000
0200
0500
0000
0000
2000
5000
0200
0500
0000
0000
0000
0000
ENDCHAR
STARTCHAR uni0489
ENCODING 1161
SWIDTH 540 0
DWIDTH 9 0
BBX 9 18 0 -4
BITMAP
0000
0000
0000
0000
2000
4200
6400
0600
0000
0000
2000
4200
6400
0600
0000
0000
0000
0000
ENDCHAR
STARTCHAR uni048A
ENCODING 1162
SWIDTH 540 0
DWIDTH 9 0
BBX 9 18 0 -4
BITMAP
0000
0000
2200
1C00
0000
4100
4100
4300
4500
4900
5100
6100
4100
4100
0080
0100
0000
0000
ENDCHAR
STARTCHAR uni048B
ENCODING 1163
SWIDTH 540 0
DWIDTH 9 0
BBX 9 18 0 -4
BITMAP
0000
0000
0000
0000
2200
1C00
0000
4100
4300
4500
4900
5100
6100
4100
0080
0100
0000
0000
ENDCHAR
STARTCHAR uni048C
ENCODING 1164
SWIDTH 540 0
DWIDTH 9 0
BBX 9 18 0 -4
BITMAP
0000
0000
0000
0000
4000
F800
4000
4000
7C00
4200
4100
4100
4200
7C00
0000
0000
0000
0000
ENDCHAR
STARTCHAR uni048D
ENCODING 1165
SWIDTH 540 0
DWIDTH 9 0
BBX 9 18 0 -4
BITMAP
0000
0000
0000
0000
0000
0000
0000
2000
7C00
2000
3E00
2100
2100
3E00
0000
0000
0000
0000
ENDCHAR
STARTCHAR uni048E
ENCODING 1166
SWIDTH 540 0
DWIDTH 9 0
BBX 9 18 0 -4
BITMAP
0000
0000
0000
0000
7C00
4200
4100
4500
4200
7D00
4000
4000
4000
4000
0000
0000
0000
0000
ENDCHAR
STARTCHAR uni048F
ENCODING 1167
SWIDTH 540 0
DWIDTH 9 0
BBX 9 18 0 -4
BITMAP
0000
0000
0000
0000
0000
0000
0000
5C00
6200
4100
4100
4500
6200
5D00
4000
4000
4000
0000
ENDCHAR
STARTCHAR afii10050
ENCODING 1168
SWIDTH 540 0
DWIDTH 9 0
BBX 9 18 0 -4
BITMAP
0000
0000
0100
0100
3F00
2000
2000
2000
2000
2000
2000
2000
2000
2000
0000
0000
0000
0000
ENDCHAR
STARTCHAR afii10098
ENCODING 1169
SWIDTH 540 0
DWIDTH 9 0
BBX 9 18 0 -4
BITMAP
0000
0000
0000
0000
0000
0100
0100
3F00
2000
2000
2000
2000
2000
2000
0000
0000
0000
0000
ENDCHAR
STARTCHAR uni0492
ENCODING 1170
SWIDTH 540 0
DWIDTH 9 0
BBX 9 18 0 -4
BITMAP
0000
0000
0000
0000
7E00
4000
4000
4000
7800
4000
4000
4000
4000
4000
0000
0000
0000
0000
ENDCHAR
STARTCHAR uni0493
ENCODING 1171
SWIDTH 540 0
DWIDTH 9 0
BBX 9 18 0 -4
BITMAP
0000
0000
0000
0000
0000
0000
0000
7E00
4000
4000
7800
4000
4000
4000
0000
0000
0000
0000
ENDCHAR
STARTCHAR uni0494
ENCODING 1172
SWIDTH 540 0
DWIDTH 9 0
BBX 9 18 0 -4
BITMAP
0000
0000
0000
0000
7E00
4000
4000
7C00
4200
4100
4100
4100
4100
4100
0200
1C00
0000
0000
ENDCHAR
STARTCHAR uni0495
ENCODING 1173
SWIDTH 540 0
DWIDTH 9 0
BBX 9 18 0 -4
BITMAP
0000
0000
0000
0000
0000
0000
0000
7C00
4000
7800
4400
4400
4400
4400
0400
3800
0000
0000
ENDCHAR
STARTCHAR uni0496
ENCODING 1174
SWIDTH 540 0
DWIDTH 9 0
BBX 9 18 0 -4
BITMAP
0000
0000
0000
0000
4900
4900
2A00
2A00
1C00
2A00
2A00
4900
4900
4980
0080
0080
0000
0000
ENDCHAR
STARTCHAR uni0497
ENCODING 1175
SWIDTH 540 0
DWIDTH 9 0
BBX 9 18 0 -4
BITMAP
0000
0000
0000
0000
0000
0000
0000
4900
4900
2A00
1C00
2A00
4900
4980
0080
0080
0000
0000
ENDCHAR
STARTCHAR uni0498
ENCODING 1176
SWIDTH 540 0
DWIDTH 9 0
BBX 9 18 0 -4
BITMAP
0000
0000
0000
0000
3E00
4100
0100
0200
0C00
0200
0100
0100
4100
3E00
0800
2400
1800
0000
ENDCHAR
STARTCHAR uni0499
ENCODING 1177
SWIDTH 540 0
DWIDTH 9 0
BBX 9 18 0 -4
BITMAP
0000
0000
0000
0000
0000
0000
0000
3E00
4100
0100
0E00
0100
4100
3E00
0800
2400
1800
0000
ENDCHAR
STARTCHAR uni049A
ENCODING 1178
SWIDTH 540 0
DWIDTH 9 0
BBX 9 18 0 -4
BITMAP
0000
0000
0000
0000
4100
4200
4400
4800
5000
6800
4400
4200
4100
4100
0100
0100
0000
0000
ENDCHAR
STARTCHAR uni049B
ENCODING 1179
SWIDTH 540 0
DWIDTH 9 0
BBX 9 18 0 -4
BITMAP
0000
0000
0000
0000
0000
0000
0000
4100
4200
4400
7800
4400
4200
4100
0100
0100
0000
0000
ENDCHAR
STARTCHAR uni049C
ENCODING 1180
SWIDTH 540 0
DWIDTH 9 0
BBX 9 18 0 -4
BITMAP
0000
0000
0000
0000
4100
4200
5400
5800
5000
7800
5400
5200
4100
4100
0000
0000
0000
0000
ENDCHAR
STARTCHAR uni049D
ENCODING 1181
SWIDTH 540 0
DWIDTH 9 0
BBX 9 18 0 -4
BITMAP
0000
0000
0000
0000
0000
0000
0000
4100
5200
5400
7800
5400
5200
4100
0000
0000
0000
0000
ENDCHAR
STARTCHAR uni049E
ENCODING 1182
SWIDTH 540 0
DWIDTH 9 0
BBX 9 18 0 -4
BITMAP
0000
0000
0000
0000
4100
F200
4400
4800
5000
6800
4400
4200
4100
4100
0000
0000
0000
0000
ENDCHAR
STARTCHAR uni049F
ENCODING 1183
SWIDTH 540 0
DWIDTH 9 0
BBX 9 18 0 -4
BITMAP
0000
0000
0000
0000
4000
4000
F000
4200
4400
4800
5800
6400
4200
4100
0000
0000
0000
0000
ENDCHAR
STARTCHAR uni04A0
ENCODING 1184
SWIDTH 540 0
DWIDTH 9 0
BBX 9 18 0 -4
BITMAP
0000
0000
0000
0000
E100
2200
2400
2800
3000
2800
2400
2200
2100
2100
0000
0000
0000
0000
ENDCHAR
STARTCHAR uni04A1
ENCODING 1185
SWIDTH 540 0
DWIDTH 9 0
BBX 9 18 0 -4
BITMAP
0000
0000
0000
0000
0000
0000
0000
7100
1200
1400
1800
1400
1200
1100
0000
0000
0000
0000
ENDCHAR
STARTCHAR uni04A2
ENCODING 1186
SWIDTH 540 0
DWIDTH 9 0
BBX 9 18 0 -4
BITMAP
0000
0000
0000
0000
4100
4100
4100
4100
7F00
4100
4100
4100
4100
4180
0080
0080
0000
0000
ENDCHAR
STARTCHAR uni04A3
ENCODING 1187
SWIDTH 540 0
DWIDTH 9 0
BBX 9 18 0 -4
BITMAP
0000
0000
0000
0000
0000
0000
0000
4100
4100
4100
7F00
4100
4100
4180
0080
0080
0000
0000
ENDCHAR
STARTCHAR uni04A4
ENCODING 1188
SWIDTH 540 0
DWIDTH 9 0
BBX 9 18 0 -4
BITMAP
0000
0000
0000
0000
4F00
4800
4800
4800
7800
4800
4800
4800
4800
4800
0000
0000
0000
0000
ENDCHAR
STARTCHAR uni04A5
ENCODING 1189
SWIDTH 540 0
DWIDTH 9 0
BBX 9 18 0 -4
BITMAP
0000
0000
0000
0000
0000
0000
0000
4F00
4800
4800
7800
4800
4800
4800
0000
0000
0000
0000
ENDCHAR
STARTCHAR uni04A6
ENCODING 1190
SWIDTH 540 0
DWIDTH 9 0
BBX 9 18 0 -4
BITMAP
0000
0000
0000
0000
7800
4800
4800
4E00
4900
4900
4900
4900
4900
4900
0100
0E00
0000
0000
ENDCHAR
STARTCHAR uni04A7
ENCODING 1191
SWIDTH 540 0
DWIDTH 9 0
BBX 9 18 0 -4
BITMAP
0000
0000
0000
0000
0000
0000
0000
7800
4800
4800
4E00
4900
4900
4900
0100
0E00
0000
0000
ENDCHAR
STARTCHAR uni04A8
ENCODING 1192
SWIDTH 540 0
DWIDTH 9 0
BBX 9 18 0 -4
BITMAP
0000
0000
0000
0000
1E00
2000
4000
4600
4900
4900
4900
4900
2A00
1C00
0800
0700
0000
0000
ENDCHAR
STARTCHAR uni04A9
ENCODING 1193
SWIDTH 540 0
DWIDTH 9 0
BBX 9 18 0 -4
BITMAP
0000
0000
0000
0000
0000
0000
0000
3C00
4000
4C00
5200
5200
5200
3C00
1000
0E00
0000
0000
ENDCHAR
STARTCHAR uni04AA
ENCODING 1194
SWIDTH 540 0
DWIDTH 9 0
BBX 9 18 0 -4
BITMAP
0000
0000
0000
0000
1E00
2100
4000
4000
4000
4000
4000
4000
2100
1E00
0800
0800
0400
0000
ENDCHAR
STARTCHAR uni04AB
ENCODING 1195
SWIDTH 540 0
DWIDTH 9 0
BBX 9 18 0 -4
BITMAP
0000
0000
0000
0000
0000
0000
0000
3E00
4100
4000
4000
4000
4100
3E00
0800
0800
0400
0000
ENDCHAR
STARTCHAR uni04AC
ENCODING 1196
SWIDTH 540 0
DWIDTH 9 0
BBX 9 18 0 -4
BITMAP
0000
0000
0000
0000
7F00
0800
0800
0800
0800
0800
0800
0800
0800
0C00
0400
0400
0000
0000
ENDCHAR
STARTCHAR uni04AD
ENCODING 1197
SWIDTH 540 0
DWIDTH 9 0
BBX 9 18 0 -4
BITMAP
0000
0000
0000
0000
0000
0000
0000
7F00
0800
0800
0800
0800
0800
0C00
0400
0400
0000
0000
ENDCHAR
STARTCHAR uni04AE
ENCODING 1198
SWIDTH 540 0
DWIDTH 9 0
BBX 9 18 0 -4
BITMAP
0000
0000
0000
0000
4100
4100
2200
1400
0800
0800
0800
0800
0800
0800
0000
0000
0000
0000
ENDCHAR
STARTCHAR uni04AF
ENCODING 1199
SWIDTH 540 0
DWIDTH 9 0
BBX 9 18 0 -4
BITMAP
0000
0000
0000
0000
0000
0000
0000
4100
2200
1400
0800
0800
0800
0800
0800
0800
0800
0000
ENDCHAR
STARTCHAR uni04B0
ENCODING 1200
SWIDTH 540 0
DWIDTH 9 0
BBX 9 18 0 -4
BITMAP
0000
0000
0000
0000
4100
4100
2200
1400
0800
0800
0800
0800
3E00
0800
0800
0800
0800
0000
ENDCHAR
STARTCHAR uni04B1
ENCODING 1201
SWIDTH 540 0
DWIDTH 9 0
BBX 9 18 0 -4
BITMAP
0000
0000
0000
0000
0000
0000
0000
4100
2200
1400
0800
0800
0800
3E00
0800
0800
0800
0000
ENDCHAR
STARTCHAR uni04B2
ENCODING 1202
SWIDTH 540 0
DWIDTH 9 0
BBX 9 18 0 -4
BITMAP
0000
0000
0000
0000
4100
4100
2200
1400
0800
0800
1400
2200
4100
4180
0080
0080
0000
0000
ENDCHAR
STARTCHAR uni04B3
ENCODING 1203
SWIDTH 540 0
DWIDTH 9 0
BBX 9 18 0 -4
BITMAP
0000
0000
0000
0000
0000
0000
0000
4100
2200
1400
0800
1400
2200
4180
0080
0080
0000
0000
ENDCHAR
STARTCHAR uni04B4
ENCODING 1204
SWIDTH 540 0
DWIDTH 9 0
BBX 9 18 0 -4
BITMAP
0000
0000
0000
0000
FA00
2200
2200
2200
2200
2200
2200
2200
2200
3F00
0100
0100
0000
0000
ENDCHAR
STARTCHAR uni04B5
ENCODING 1205
SWIDTH 540 0
DWIDTH 9 0
BBX 9 18 0 -4
BITMAP
0000
0000
0000
0000
0000
0000
0000
FA00
2200
2200
2200
2200
2200
3F00
0100
0100
0000
0000
ENDCHAR
STARTCHAR uni04B6
ENCODING 1206
SWIDTH 540 0
DWIDTH 9 0
BBX 9 18 0 -4
BITMAP
0000
0000
0000
0000
4100
4100
4100
4100
3F00
0100
0100
0100
0100
0180
0080
0080
0000
0000
ENDCHAR
STARTCHAR uni04B7
ENCODING 1207
SWIDTH 540 0
DWIDTH 9 0
BBX 9 18 0 -4
BITMAP
0000
0000
0000
0000
0000
0000
0000
4100
4100
4100
3F00
0100
0100
0180
0080
0080
0000
0000
ENDCHAR
STARTCHAR uni04B8
ENCODING 1208
SWIDTH 540 0
DWIDTH 9 0
BBX 9 18 0 -4
BITMAP
0000
0000
0000
0000
4100
4100
4900
4900
3F00
0900
0900
0100
0100
0100
0000
0000
0000
0000
ENDCHAR
STARTCHAR uni04B9
ENCODING 1209
SWIDTH 540 0
DWIDTH 9 0
BBX 9 18 0 -4
BITMAP
0000
0000
0000
0000
0000
0000
0000
4100
4100
4900
3F00
0900
0100
0100
0000
0000
0000
0000
ENDCHAR
STARTCHAR uni04BA
ENCODING 1210
SWIDTH 540 0
DWIDTH 9 0
BBX 9 18 0 -4
BITMAP
0000
0000
0000
0000
4000
4000
4000
7E00
4100
4100
4100
4100
4100
4100
0000
0000
0000
0000
ENDCHAR
STARTCHAR uni04BB
ENCODING 1211
SWIDTH 540 0
DWIDTH 9 0
BBX 9 18 0 -4
BITMAP
0000
0000
0000
0000
4000
4000
4000
5800
6400
4200
4200
4200
4200
4200
0000
0000
0000
0000
ENDCHAR
STARTCHAR uni04BC
ENCODING 1212
SWIDTH 540 0
DWIDTH 9 0
BBX 9 18 0 -4
BITMAP
0000
0000
0000
0000
1E00
6100
A100
A100
7F00
2000
2000
2000
2100
1E00
0000
0000
0000
0000
ENDCHAR
STARTCHAR uni04BD
ENCODING 1213
SWIDTH 540 0
DWIDTH 9 0
BBX 9 18 0 -4
BITMAP
0000
0000
0000
0000
0000
0000
4000
9E00
A100
A100
7F00
2000
2100
1E00
0000
0000
0000
0000
ENDCHAR
STARTCHAR uni04BE
ENCODING 1214
SWIDTH 540 0
DWIDTH 9 0
BBX 9 18 0 -4
BITMAP
0000
0000
0000
0000
1E00
6100
A100
A100
7F00
2000
2000
2000
2100
1E00
0800
0800
0400
0000
ENDCHAR
STARTCHAR uni04BF
ENCODING 1215
SWIDTH 540 0
DWIDTH 9 0
BBX 9 18 0 -4
BITMAP
0000
0000
0000
0000
0000
0000
4000
9E00
A100
A100
7F00
2000
2100
1E00
0800
0800
0400
0000
ENDCHAR
STARTCHAR uni04C0
ENCODING 1216
SWIDTH 540 0
DWIDTH 9 0
BBX 9 18 0 -4
BITMAP
0000
0000
0000
0000
3E00
0800
0800
0800
0800
0800
0800
0800
0800
3E00
0000
0000
0000
0000
ENDCHAR
STARTCHAR uni04C1
ENCODING 1217
SWIDTH 540 0
DWIDTH 9 0
BBX 9 18 0 -4
BITMAP
0000
2200
1C00
0000
4900
4900
2A00
2A00
1C00
2A00
2A00
4900
4900
4900
0000
0000
0000
0000
ENDCHAR
STARTCHAR uni04C2
ENCODING 1218
SWIDTH 540 0
DWIDTH 9 0
BBX 9 18 0 -4
BITMAP
0000
0000
0000
0000
2200
1C00
0000
4900
4900
2A00
1C00
2A00
4900
4900
0000
0000
0000
0000
ENDCHAR
STARTCHAR uni04C3
ENCODING 1219
SWIDTH 540 0
DWIDTH 9 0
BBX 9 18 0 -4
BITMAP
0000
0000
0000
0000
4100
4200
4400
4800
5000
6800
4400
4200
4100
4100
0100
1200
0C00
0000
ENDCHAR
STARTCHAR uni04C4
ENCODING 1220
SWIDTH 540 0
DWIDTH 9 0
BBX 9 18 0 -4
BITMAP
0000
0000
0000
0000
0000
0000
0000
4100
4200
4400
7800
4400
4200
4100
0100
1100
0E00
0000
ENDCHAR
STARTCHAR uni04C5
ENCODING 1221
SWIDTH 540 0
DWIDTH 9 0
BBX 9 18 0 -4
BITMAP
0000
0000
0000
0000
3F00
2100
2100
2100
2100
2100
2100
2100
2100
4100
0080
0100
0000
0000
ENDCHAR
STARTCHAR uni04C6
ENCODING 1222
SWIDTH 540 0
DWIDTH 9 0
BBX 9 18 0 -4
BITMAP
0000
0000
0000
0000
0000
0000
0000
1F00
1100
1100
1100
1100
1100
6100
0080
0100
0000
0000
ENDCHAR
STARTCHAR uni04C7
ENCODING 1223
SWIDTH 540 0
DWIDTH 9 0
BBX 9 18 0 -4
BITMAP
0000
0000
0000
0000
4100
4100
4100
4100
7F00
4100
4100
4100
4100
4100
0100
2200
1C00
0000
ENDCHAR
STARTCHAR uni04C8
ENCODING 1224
SWIDTH 540 0
DWIDTH 9 0
BBX 9 18 0 -4
BITMAP
0000
0000
0000
0000
0000
0000
0000
4100
4100
4100
7F00
4100
4100
4100
0100
2200
1C00
0000
ENDCHAR
STARTCHAR uni04C9
ENCODING 1225
SWIDTH 540 0
DWIDTH 9 0
BBX 9 18 0 -4
BITMAP
0000
0000
0000
0000
4100
4100
4100
4100
7F00
4100
4100
4100
4100
4100
0080
0100
0000
0000
ENDCHAR
STARTCHAR uni04CA
ENCODING 1226
SWIDTH 540 0
DWIDTH 9 0
BBX 9 18 0 -4
BITMAP
0000
0000
0000
0000
0000
0000
0000
4100
4100
4100
7F00
4100
4100
4100
0080
0100
0000
0000
ENDCHAR
STARTCHAR uni04CB
ENCODING 1227
SWIDTH 540 0
DWIDTH 9 0
BBX 9 18 0 -4
BITMAP
0000
0000
0000
0000
4100
4100
4100
4100
3F00
0100
0100
0100
0100
0700
0400
0400
0000
0000
ENDCHAR
STARTCHAR uni04CC
ENCODING 1228
SWIDTH 540 0
DWIDTH 9 0
BBX 9 18 0 -4
BITMAP
0000
0000
0000
0000
0000
0000
0000
4100
4100
4100
3F00
0100
0100
0700
0400
0400
0000
0000
ENDCHAR
STARTCHAR uni04CD
ENCODING 1229
SWIDTH 540 0
DWIDTH 9 0
BBX 9 18 0 -4
BITMAP
0000
0000
0000
0000
4100
4100
6300
5500
5500
4900
4900
4100
4100
4100
0080
0100
0000
0000
ENDCHAR
STARTCHAR uni04CE
ENCODING 1230
SWIDTH 540 0
DWIDTH 9 0
BBX 9 18 0 -4
BITMAP
0000
0000
0000
0000
0000
0000
0000
4100
6300
5500
4900
4100
4100
4100
0080
0100
0000
0000
ENDCHAR
STARTCHAR uni04D0
ENCODING 1232
SWIDTH 540 0
DWIDTH 9 0
BBX 9 18 0 -4
BITMAP
0000
2200
1C00
0000
0800
1400
1400
1400
2200
3E00
2200
4100
4100
4100
0000
0000
0000
0000
ENDCHAR
STARTCHAR uni04D1
ENCODING 1233
SWIDTH 540 0
DWIDTH 9 0
BBX 9 18 0 -4
BITMAP
0000
0000
0000
0000
2200
1C00
0000
3E00
0100
0100
3F00
4100
4300
3D00
0000
0000
0000
0000
ENDCHAR
STARTCHAR uni04D2
ENCODING 1234
SWIDTH 540 0
DWIDTH 9 0
BBX 9 18 0 -4
BITMAP
0000
1400
1400
0000
0800
1400
1400
1400
2200
3E00
2200
4100
4100
4100
0000
0000
0000
0000
ENDCHAR
STARTCHAR uni04D3
ENCODING 1235
SWIDTH 540 0
DWIDTH 9 0
BBX 9 18 0 -4
BITMAP
0000
0000
0000
0000
1400
1400
0000
3E00
0100
0100
3F00
4100
4300
3D00
0000
0000
0000
0000
ENDCHAR
STARTCHAR uni04D4
ENCODING 1236
SWIDTH 540 0
DWIDTH 9 0
BBX 9 18 0 -4
BITMAP
0000
0000
0000
0000
0F00
1400
1400
1400
2700
3C00
2400
4400
4400
4700
0000
0000
0000
0000
ENDCHAR
STARTCHAR uni04D5
ENCODING 1237
SWIDTH 540 0
DWIDTH 9 0
BBX 9 18 0 -4
BITMAP
0000
0000
0000
0000
0000
0000
0000
3600
0900
0900
3F00
4800
4900
3600
0000
0000
0000
0000
ENDCHAR
STARTCHAR uni04D6
ENCODING 1238
SWIDTH 540 0
DWIDTH 9 0
BBX 9 18 0 -4
BITMAP
0000
2200
1C00
0000
7F00
4000
4000
4000
7C00
4000
4000
4000
4000
7F00
0000
0000
0000
0000
ENDCHAR
STARTCHAR uni04D7
ENCODING 1239
SWIDTH 540 0
DWIDTH 9 0
BBX 9 18 0 -4
BITMAP
0000
0000
0000
0000
2200
1C00
0000
3E00
4100
4100
7F00
4000
4100
3E00
0000
0000
0000
0000
ENDCHAR
STARTCHAR uni04D8
ENCODING 1240
SWIDTH 540 0
DWIDTH 9 0
BBX 9 18 0 -4
BITMAP
0000
0000
0000
0000
1C00
2200
4100
0100
0100
7F00
4100
4100
2200
1C00
0000
0000
0000
0000
ENDCHAR
STARTCHAR afii10846
ENCODING 1241
SWIDTH 540 0
DWIDTH 9 0
BBX 9 18 0 -4
BITMAP
0000
0000
0000
0000
0000
0000
0000
3E00
4100
0100
7F00
4100
4100
3E00
0000
0000
0000
0000
ENDCHAR
STARTCHAR uni04DA
ENCODING 1242
SWIDTH 540 0
DWIDTH 9 0
BBX 9 18 0 -4
BITMAP
0000
1400
1400
0000
1C00
2200
4100
0100
0100
7F00
4100
4100
2200
1C00
0000
0000
0000
0000
ENDCHAR
STARTCHAR uni04DB
ENCODING 1243
SWIDTH 540 0
DWIDTH 9 0
BBX 9 18 0 -4
BITMAP
0000
0000
0000
0000
1400
1400
0000
3E00
4100
0100
7F00
4100
4100
3E00
0000
0000
0000
0000
ENDCHAR
STARTCHAR uni04DC
ENCODING 1244
SWIDTH 540 0
DWIDTH 9 0
BBX 9 18 0 -4
BITMAP
0000
1400
1400
0000
4900
4900
2A00
2A00
1C00
2A00
2A00
4900
4900
4900
0000
0000
0000
0000
ENDCHAR
STARTCHAR uni04DD
ENCODING 1245
SWIDTH 540 0
DWIDTH 9 0
BBX 9 18 0 -4
BITMAP
0000
0000
0000
1400
1400
0000
0000
4900
4900
2A00
1C00
2A00
4900
4900
0000
0000
0000
0000
ENDCHAR
STARTCHAR uni04DE
ENCODING 1246
SWIDTH 540 0
DWIDTH 9 0
BBX 9 18 0 -4
BITMAP
0000
1400
1400
0000
3E00
4100
0100
0200
0C00
0200
0100
0100
4100
3E00
0000
0000
0000
0000
ENDCHAR
STARTCHAR uni04DF
ENCODING 1247
SWIDTH 540 0
DWIDTH 9 0
BBX 9 18 0 -4
BITMAP
0000
0000
0000
0000
1400
1400
0000
3E00
4100
0100
0E00
0100
4100
3E00
0000
0000
0000
0000
ENDCHAR
STARTCHAR uni04E0
ENCODING 1248
SWIDTH 540 0
DWIDTH 9 0
BBX 9 18 0 -4
BITMAP
0000
0000
0000
0000
7E00
0400
0800
1000
3800
0400
0200
0200
4400
3800
0000
0000
0000
0000
ENDCHAR
STARTCHAR uni04E1
ENCODING 1249
SWIDTH 540 0
DWIDTH 9 0
BBX 9 18 0 -4
BITMAP
0000
0000
0000
0000
0000
0000
0000
7E00
0400
0800
1000
3800
0400
0200
0200
4400
3800
0000
ENDCHAR
STARTCHAR uni04E2
ENCODING 1250
SWIDTH 540 0
DWIDTH 9 0
BBX 9 18 0 -4
BITMAP
0000
0000
3E00
0000
4100
4100
4300
4500
4900
5100
6100
4100
4100
4100
0000
0000
0000
0000
ENDCHAR
STARTCHAR uni04E3
ENCODING 1251
SWIDTH 540 0
DWIDTH 9 0
BBX 9 18 0 -4
BITMAP
0000
0000
0000
0000
0000
3E00
0000
4100
4300
4500
4900
5100
6100
4100
0000
0000
0000
0000
ENDCHAR
STARTCHAR uni04E4
ENCODING 1252
SWIDTH 540 0
DWIDTH 9 0
BBX 9 18 0 -4
BITMAP
0000
1400
1400
0000
4100
4100
4300
4500
4900
5100
6100
4100
4100
4100
0000
0000
0000
0000
ENDCHAR
STARTCHAR uni04E5
ENCODING 1253
SWIDTH 540 0
DWIDTH 9 0
BBX 9 18 0 -4
BITMAP
0000
0000
0000
0000
1400
1400
0000
4100
4300
4500
4900
5100
6100
4100
0000
0000
0000
0000
ENDCHAR
STARTCHAR uni04E6
ENCODING 1254
SWIDTH 540 0
DWIDTH 9 0
BBX 9 18 0 -4
BITMAP
0000
1400
1400
0000
3E00
4100
4100
4100
4100
4100
4100
4100
4100
3E00
0000
0000
0000
0000
ENDCHAR
STARTCHAR uni04E7
ENCODING 1255
SWIDTH 540 0
DWIDTH 9 0
BBX 9 18 0 -4
BITMAP
0000
0000
0000
0000
1400
1400
0000
3E00
4100
4100
4100
4100
4100
3E00
0000
0000
0000
0000
ENDCHAR
STARTCHAR uni04E8
ENCODING 1256
SWIDTH 540 0
DWIDTH 9 0
BBX 9 18 0 -4
BITMAP
0000
0000
0000
0000
3E00
4100
4100
4100
7F00
4100
4100
4100
4100
3E00
0000
0000
0000
0000
ENDCHAR
STARTCHAR uni04E9
ENCODING 1257
SWIDTH 540 0
DWIDTH 9 0
BBX 9 18 0 -4
BITMAP
0000
0000
0000
0000
0000
0000
0000
3E00
4100
4100
7F00
4100
4100
3E00
0000
0000
0000
0000
ENDCHAR
STARTCHAR uni04EA
ENCODING 1258
SWIDTH 540 0
DWIDTH 9 0
BBX 9 18 0 -4
BITMAP
0000
1400
1400
0000
3E00
4100
4100
4100
7F00
4100
4100
4100
4100
3E00
0000
0000
0000
0000
ENDCHAR
STARTCHAR uni04EB
ENCODING 1259
SWIDTH 540 0
DWIDTH 9 0
BBX 9 18 0 -4
BITMAP
0000
0000
0000
0000
1400
1400
0000
3E00
4100
4100
7F00
4100
4100
3E00
0000
0000
0000
0000
ENDCHAR
STARTCHAR uni04EC
ENCODING 1260
SWIDTH 540 0
DWIDTH 9 0
BBX 9 18 0 -4
BITMAP
0000
1400
1400
0000
3C00
4200
0100
0100
0F00
0100
0100
0100
4200
3C00
0000
0000
0000
0000
ENDCHAR
STARTCHAR uni04ED
ENCODING 1261
SWIDTH 540 0
DWIDTH 9 0
BBX 9 18 0 -4
BITMAP
0000
0000
0000
0000
1400
1400
0000
3E00
4100
0100
0F00
0100
4100
3E00
0000
0000
0000
0000
ENDCHAR
STARTCHAR uni04EE
ENCODING 1262
SWIDTH 540 0
DWIDTH 9 0
BBX 9 18 0 -4
BITMAP
0000
0000
1E00
0000
2100
2100
1200
1200
1200
0C00
0C00
0800
4800
3000
0000
0000
0000
0000
ENDCHAR
STARTCHAR uni04EF
ENCODING 1263
SWIDTH 540 0
DWIDTH 9 0
BBX 9 18 0 -4
BITMAP
0000
0000
0000
0000
0000
1E00
0000
2100
2100
1200
1200
1200
0C00
0C00
0800
4800
3000
0000
ENDCHAR
STARTCHAR uni04F0
ENCODING 1264
SWIDTH 540 0
DWIDTH 9 0
BBX 9 18 0 -4
BITMAP
0000
0A00
0A00
0000
2100
2100
1200
1200
1200
0C00
0C00
0800
4800
3000
0000
0000
0000
0000
ENDCHAR
STARTCHAR uni04F1
ENCODING 1265
SWIDTH 540 0
DWIDTH 9 0
BBX 9 18 0 -4
BITMAP
0000
0000
0000
0000
0A00
0A00
0000
2100
2100
1200
1200
1200
0C00
0C00
0800
4800
3000
0000
ENDCHAR
STARTCHAR uni04F2
ENCODING 1266
SWIDTH 540 0
DWIDTH 9 0
BBX 9 18 0 -4
BITMAP
0900
1200
2400
0000
2100
2100
1200
1200
1200
0C00
0C00
0800
4800
3000
0000
0000
0000
0000
ENDCHAR
STARTCHAR uni04F3
ENCODING 1267
SWIDTH 540 0
DWIDTH 9 0
BBX 9 18 0 -4
BITMAP
0000
0000
0000
0900
1200
2400
0000
2100
2100
1200
1200
1200
0C00
0C00
0800
4800
3000
0000
ENDCHAR
STARTCHAR uni04F4
ENCODING 1268
SWIDTH 540 0
DWIDTH 9 0
BBX 9 18 0 -4
BITMAP
0000
1400
1400
0000
4100
4100
4100
4100
3F00
0100
0100
0100
0100
0100
0000
0000
0000
0000
ENDCHAR
STARTCHAR uni04F5
ENCODING 1269
SWIDTH 540 0
DWIDTH 9 0
BBX 9 18 0 -4
BITMAP
0000
0000
0000
0000
1400
1400
0000
4100
4100
4100
3F00
0100
0100
0100
0000
0000
0000
0000
ENDCHAR
STARTCHAR uni04F8
ENCODING 1272
SWIDTH 540 0
DWIDTH 9 0
BBX 9 18 0 -4
BITMAP
0000
1400
1400
0000
4100
4100
4100
4100
7100
4900
4500
4500
4900
7100
0000
0000
0000
0000
ENDCHAR
STARTCHAR uni04F9
ENCODING 1273
SWIDTH 540 0
DWIDTH 9 0
BBX 9 18 0 -4
BITMAP
0000
0000
0000
0000
1400
1400
0000
4100
4100
4100
7900
4500
4500
7900
0000
0000
0000
0000
ENDCHAR
STARTCHAR uni0500
ENCODING 1280
SWIDTH 540 0
DWIDTH 9 0
BBX 9 18 0 -4
BITMAP
0000
0000
0000
0000
0100
0100
0100
7F00
8100
8100
8100
8100
8100
7F00
0000
0000
0000
0000
ENDCHAR
STARTCHAR uni0501
ENCODING 1281
SWIDTH 540 0
DWIDTH 9 0
BBX 9 18 0 -4
BITMAP
0000
0000
0000
0000
0100
0100
0100
3D00
4300
4100
4100
4100
4300
3D00
0000
0000
0000
0000
ENDCHAR
STARTCHAR uni0502
ENCODING 1282
SWIDTH 540 0
DWIDTH 9 0
BBX 9 18 0 -4
BITMAP
0000
0000
0000
0000
0400
0400
0400
7C00
8400
8500
8500
8500
8500
7E00
0000
0000
0000
0000
ENDCHAR
STARTCHAR uni0503
ENCODING 1283
SWIDTH 540 0
DWIDTH 9 0
BBX 9 18 0 -4
BITMAP
0000
0000
0000
0000
0400
0400
0400
3400
4C00
4400
4500
4500
4D00
3200
0000
0000
0000
0000
ENDCHAR
STARTCHAR uni0504
ENCODING 1284
SWIDTH 540 0
DWIDTH 9 0
BBX 9 18 0 -4
BITMAP
0000
0000
0000
0000
3800
4400
0400
0400
1800
0500
0500
0500
0500
0200
0000
0000
0000
0000
ENDCHAR
STARTCHAR uni0505
ENCODING 1285
SWIDTH 540 0
DWIDTH 9 0
BBX 9 18 0 -4
BITMAP
0000
0000
0000
0000
0000
0000
0000
3800
4400
0400
1800
0500
0500
0200
0000
0000
0000
0000
ENDCHAR
STARTCHAR uni0506
ENCODING 1286
SWIDTH 540 0
DWIDTH 9 0
BBX 9 18 0 -4
BITMAP
0000
0000
0000
0000
3800
4400
0400
0400
1800
0400
0400
0400
0400
0600
0200
0200
0000
0000
ENDCHAR
STARTCHAR uni0507
ENCODING 1287
SWIDTH 540 0
DWIDTH 9 0
BBX 9 18 0 -4
BITMAP
0000
0000
0000
0000
0000
0000
0000
3800
4400
0400
1800
0400
0400
0600
0200
0200
0000
0000
ENDCHAR
STARTCHAR uni0508
ENCODING 1288
SWIDTH 540 0
DWIDTH 9 0
BBX 9 18 0 -4
BITMAP
0000
0000
0000
0000
3C00
2400
2400
2400
2400
2500
2500
2500
2500
4200
0000
0000
0000
0000
ENDCHAR
STARTCHAR uni0509
ENCODING 1289
SWIDTH 540 0
DWIDTH 9 0
BBX 9 18 0 -4
BITMAP
0000
0000
0000
0000
0000
0000
0000
3C00
2400
2400
2400
2500
2500
4200
0000
0000
0000
0000
ENDCHAR
STARTCHAR uni050A
ENCODING 1290
SWIDTH 540 0
DWIDTH 9 0
BBX 9 18 0 -4
BITMAP
0000
0000
0000
0000
4400
4400
4400
4400
7C00
4500
4500
4500
4500
4200
0000
0000
0000
0000
ENDCHAR
STARTCHAR uni050B
ENCODING 1291
SWIDTH 540 0
DWIDTH 9 0
BBX 9 18 0 -4
BITMAP
0000
0000
0000
0000
0000
0000
0000
4400
4400
4400
7C00
4500
4500
4200
0000
0000
0000
0000
ENDCHAR
STARTCHAR uni050C
ENCODING 1292
SWIDTH 540 0
DWIDTH 9 0
BBX 9 18 0 -4
BITMAP
0000
0000
0000
0000
3E00
4100
4000
4000
4000
4700
4100
4100
4100
3E00
0000
0000
0000
0000
ENDCHAR
STARTCHAR uni050D
ENCODING 1293
SWIDTH 540 0
DWIDTH 9 0
BBX 9 18 0 -4
BITMAP
0000
0000
0000
0000
0000
0000
0000
3E00
4100
4000
4700
4100
4100
3E00
0000
0000
0000
0000
ENDCHAR
STARTCHAR uni050E
ENCODING 1294
SWIDTH 540 0
DWIDTH 9 0
BBX 9 18 0 -4
BITMAP
0000
0000
0000
0000
7F00
0800
0800
0800
0800
0A00
0A00
0A00
0A00
0400
0000
0000
0000
0000
ENDCHAR
STARTCHAR uni050F
ENCODING 1295
SWIDTH 540 0
DWIDTH 9 0
BBX 9 18 0 -4
BITMAP
0000
0000
0000
0000
0000
0000
0000
7F00
0800
0800
0800
0A00
0A00
0400
0000
0000
0000
0000
ENDCHAR
STARTCHAR uni0531
ENCODING 1329
SWIDTH 540 0
DWIDTH 9 0
BBX 9 18 0 -4
BITMAP
0000
0000
0000
0000
8400
8400
8400
8400
8400
8400
8400
8E00
8500
7900
0000
0000
0000
0000
ENDCHAR
STARTCHAR uni0532
ENCODING 1330
SWIDTH 540 0
DWIDTH 9 0
BBX 9 18 0 -4
BITMAP
0000
0000
0000
0000
1C00
2200
4100
4100
4000
4000
7E00
4100
4000
4000
0000
0000
0000
0000
ENDCHAR
STARTCHAR uni0533
ENCODING 1331
SWIDTH 540 0
DWIDTH 9 0
BBX 9 18 0 -4
BITMAP
0000
0000
0000
0000
7800
8400
8400
8400
8400
7E00
0500
0400
0400
0400
0000
0000
0000
0000
ENDCHAR
STARTCHAR uni0534
ENCODING 1332
SWIDTH 540 0
DWIDTH 9 0
BBX 9 18 0 -4
BITMAP
0000
0000
0000
0000
7800
8400
8400
8400
0400
0600
0500
0400
0400
0400
0000
0000
0000
0000
ENDCHAR
STARTCHAR uni0535
ENCODING 1333
SWIDTH 540 0
DWIDTH 9 0
BBX 9 18 0 -4
BITMAP
0000
0000
0000
0000
4000
4000
4000
7E00
4100
4000
4000
4100
4100
3E00
0000
0000
0000
0000
ENDCHAR
STARTCHAR uni0536
ENCODING 1334
SWIDTH 540 0
DWIDTH 9 0
BBX 9 18 0 -4
BITMAP
0000
0000
0000
0000
3E00
4100
4100
4100
4100
3E00
0400
4800
7C00
4300
0000
0000
0000
0000
ENDCHAR
STARTCHAR uni0537
ENCODING 1335
SWIDTH 540 0
DWIDTH 9 0
BBX 9 18 0 -4
BITMAP
0000
0000
0000
0000
4000
4000
4000
4000
7E00
4100
4000
4000
4000
7E00
0100
0000
0000
0000
ENDCHAR
STARTCHAR uni0538
ENCODING 1336
SWIDTH 540 0
DWIDTH 9 0
BBX 9 18 0 -4
BITMAP
0000
0000
0000
0000
1C00
2200
4100
4100
4000
4000
4000
4000
4000
7E00
0100
0000
0000
0000
ENDCHAR
STARTCHAR uni0539
ENCODING 1337
SWIDTH 540 0
DWIDTH 9 0
BBX 9 18 0 -4
BITMAP
0000
0000
0000
0000
7800
8400
8400
8400
9E00
A500
A400
A400
A400
9800
0000
0000
0000
0000
ENDCHAR
STARTCHAR uni053A
ENCODING 1338
SWIDTH 540 0
DWIDTH 9 0
BBX 9 18 0 -4
BITMAP
0000
0000
0000
0000
0400
0400
0400
0400
7E00
8500
8400
8400
8400
7800
0000
0000
0000
0000
ENDCHAR
STARTCHAR uni053B
ENCODING 1339
SWIDTH 540 0
DWIDTH 9 0
BBX 9 18 0 -4
BITMAP
0000
0000
0000
0000
4000
4000
4000
5E00
6100
4100
4100
4000
4000
4000
0000
0000
0000
0000
ENDCHAR
STARTCHAR uni053C
ENCODING 1340
SWIDTH 540 0
DWIDTH 9 0
BBX 9 18 0 -4
BITMAP
0000
0000
0000
0000
4000
4000
4000
4000
4000
4000
4000
4000
4000
7E00
0100
0200
0000
0000
ENDCHAR
STARTCHAR uni053D
ENCODING 1341
SWIDTH 540 0
DWIDTH 9 0
BBX 9 18 0 -4
BITMAP
0000
0000
0000
0000
8000
8000
8000
F100
9100
9100
9100
9100
9100
8E00
0000
0000
0000
0000
ENDCHAR
STARTCHAR uni053E
ENCODING 1342
SWIDTH 540 0
DWIDTH 9 0
BBX 9 18 0 -4
BITMAP
0000
0000
0000
8000
C600
3900
4400
8200
8200
8200
8200
8200
4400
3800
0000
0000
0000
0000
ENDCHAR
ENDFONT
